<svg xmlns="http://www.w3.org/2000/svg" xmlns:xlink="http://www.w3.org/1999/xlink" viewBox="0 0 559.55 169.15"><defs><style>.cls-1,.cls-2,.cls-3,.cls-5,.cls-6{fill:none;}.cls-1{clip-rule:evenodd;}.cls-3,.cls-4{fill-rule:evenodd;}.cls-4{fill:#a5a5a5;}.cls-4,.cls-5,.cls-6{opacity:0.2;}.cls-5,.cls-6{stroke:#a5a5a5;stroke-linejoin:round;}.cls-5{stroke-width:0.96px;}.cls-6{stroke-width:1.92px;}.cls-7{clip-path:url(#clip-path);}.cls-8{clip-path:url(#clip-path-2);}.cls-30,.cls-37,.cls-40,.cls-9{font-size:13.68px;font-family:ArialMT, Arial;}.cls-10{letter-spacing:0.02em;}.cls-11{letter-spacing:-0.02em;}.cls-12{letter-spacing:-0.01em;}.cls-13{letter-spacing:-0.03em;}.cls-14{letter-spacing:-0.03em;}.cls-15{letter-spacing:-0.01em;}.cls-16{letter-spacing:-0.04em;}.cls-17{letter-spacing:0.02em;}.cls-18{letter-spacing:-0.01em;}.cls-19{letter-spacing:0.01em;}.cls-20{letter-spacing:0.04em;}.cls-21{letter-spacing:0.02em;}.cls-22{letter-spacing:-0.02em;}.cls-23{letter-spacing:0.03em;}.cls-24{letter-spacing:-0.03em;}.cls-25{clip-path:url(#clip-path-9);}.cls-26{clip-path:url(#clip-path-10);}.cls-27{letter-spacing:-0.07em;}.cls-28,.cls-40{letter-spacing:0.03em;}.cls-29{letter-spacing:-0.03em;}.cls-30,.cls-32{letter-spacing:-0.14em;}.cls-31{letter-spacing:0em;}.cls-33{clip-path:url(#clip-path-19);}.cls-34{clip-path:url(#clip-path-20);}.cls-35{letter-spacing:0.02em;}.cls-36{letter-spacing:-0.12em;}.cls-37{letter-spacing:-0.04em;}.cls-38{clip-path:url(#clip-path-29);}.cls-39{clip-path:url(#clip-path-30);}.cls-41{letter-spacing:-0.01em;}.cls-42{clip-path:url(#clip-path-43);}.cls-43{clip-path:url(#clip-path-44);}.cls-44{letter-spacing:0.01em;}.cls-45{letter-spacing:0.04em;}.cls-46{letter-spacing:0.02em;}.cls-47{clip-path:url(#clip-path-53);}.cls-48{clip-path:url(#clip-path-54);}</style><clipPath id="clip-path" transform="translate(-0.18 -0.17)"><polygon class="cls-1" points="0 171.36 560.88 171.36 560.88 0 0 0 0 171.36 0 171.36"/></clipPath><clipPath id="clip-path-2" transform="translate(-0.18 -0.17)"><rect class="cls-2" width="560.88" height="171.36"/></clipPath><clipPath id="clip-path-9" transform="translate(-0.18 -0.17)"><polygon class="cls-1" points="0 97.2 210.96 97.2 210.96 0 0 0 0 97.2 0 97.2"/></clipPath><clipPath id="clip-path-10" transform="translate(-0.18 -0.17)"><rect class="cls-2" width="210.96" height="97.2"/></clipPath><clipPath id="clip-path-19" transform="translate(-0.18 -0.17)"><polygon class="cls-1" points="0 125.28 210.96 125.28 210.96 11.52 0 11.52 0 125.28 0 125.28"/></clipPath><clipPath id="clip-path-20" transform="translate(-0.18 -0.17)"><rect class="cls-2" y="11.52" width="210.96" height="113.76"/></clipPath><clipPath id="clip-path-29" transform="translate(-0.18 -0.17)"><polygon class="cls-1" points="0 153.36 210.96 153.36 210.96 39.6 0 39.6 0 153.36 0 153.36"/></clipPath><clipPath id="clip-path-30" transform="translate(-0.18 -0.17)"><rect class="cls-2" y="39.6" width="210.96" height="113.76"/></clipPath><clipPath id="clip-path-43" transform="translate(-0.18 -0.17)"><polygon class="cls-1" points="0 171.36 210.96 171.36 210.96 67.68 0 67.68 0 171.36 0 171.36"/></clipPath><clipPath id="clip-path-44" transform="translate(-0.18 -0.17)"><rect class="cls-2" y="67.68" width="210.96" height="103.68"/></clipPath><clipPath id="clip-path-53" transform="translate(-0.18 -0.17)"><polygon class="cls-1" points="0 171.36 210.96 171.36 210.96 95.76 0 95.76 0 171.36 0 171.36"/></clipPath><clipPath id="clip-path-54" transform="translate(-0.18 -0.17)"><rect class="cls-2" y="95.76" width="210.96" height="75.6"/></clipPath></defs><title>Table1Chapter3OOP</title><g id="Layer_2" data-name="Layer 2"><g id="Layer_1-2" data-name="Layer 1"><polygon class="cls-4" points="0.48 28.51 210.62 28.51 210.62 56.54 0.48 56.54 0.48 28.51 0.48 28.51"/><polygon class="cls-4" points="210.62 28.51 293 28.51 293 56.54 210.62 56.54 210.62 28.51 210.62 28.51"/><polygon class="cls-4" points="293 28.51 393.68 28.51 393.68 56.54 293 56.54 293 28.51 293 28.51"/><polygon class="cls-4" points="393.68 28.51 481.15 28.51 481.15 56.54 393.68 56.54 393.68 28.51 393.68 28.51"/><polygon class="cls-4" points="481.15 28.51 559.08 28.51 559.08 56.54 481.15 56.54 481.15 28.51 481.15 28.51"/><polygon class="cls-4" points="0.48 84.58 210.62 84.58 210.62 112.61 0.48 112.61 0.48 84.58 0.48 84.58"/><polygon class="cls-4" points="210.62 84.58 293 84.58 293 112.61 210.62 112.61 210.62 84.58 210.62 84.58"/><polygon class="cls-4" points="293 84.58 393.68 84.58 393.68 112.61 293 112.61 293 84.58 293 84.58"/><polygon class="cls-4" points="393.68 84.58 481.15 84.58 481.15 112.61 393.68 112.61 393.68 84.58 393.68 84.58"/><polygon class="cls-4" points="481.15 84.58 559.08 84.58 559.08 112.61 481.15 112.61 481.15 84.58 481.15 84.58"/><polygon class="cls-4" points="0.48 140.64 210.62 140.64 210.62 168.67 0.48 168.67 0.48 140.64 0.48 140.64"/><polygon class="cls-4" points="210.62 140.64 293 140.64 293 168.67 210.62 168.67 210.62 140.64 210.62 140.64"/><polygon class="cls-4" points="293 140.64 393.68 140.64 393.68 168.67 293 168.67 293 140.64 293 140.64"/><polygon class="cls-4" points="393.68 140.64 481.15 140.64 481.15 168.67 393.68 168.67 393.68 140.64 393.68 140.64"/><polygon class="cls-4" points="481.15 140.64 559.08 140.64 559.08 168.67 481.15 168.67 481.15 140.64 481.15 140.64"/><line class="cls-5" x1="210.62" x2="210.62" y2="169.15"/><line class="cls-5" x1="293" x2="293" y2="169.15"/><line class="cls-5" x1="393.68" x2="393.68" y2="169.15"/><line class="cls-5" x1="481.15" x2="481.15" y2="169.15"/><line class="cls-6" y1="28.51" x2="559.55" y2="28.51"/><line class="cls-5" y1="56.54" x2="559.55" y2="56.54"/><line class="cls-5" y1="84.58" x2="559.55" y2="84.58"/><line class="cls-5" y1="112.61" x2="559.55" y2="112.61"/><line class="cls-5" y1="140.64" x2="559.55" y2="140.64"/><line class="cls-5" x1="0.48" x2="0.48" y2="169.15"/><line class="cls-5" x1="559.07" x2="559.07" y2="169.15"/><line class="cls-5" y1="0.48" x2="559.55" y2="0.48"/><line class="cls-5" y1="168.67" x2="559.55" y2="168.67"/><g class="cls-7"><g class="cls-8"><text class="cls-9" transform="translate(230.51 19.39)"><tspan class="cls-10">P</tspan><tspan class="cls-11" x="9.36" y="0">r</tspan><tspan class="cls-12" x="13.68" y="0">i</tspan><tspan class="cls-13" x="16.57" y="0">v</tspan><tspan class="cls-14" x="23.05" y="0">a</tspan><tspan class="cls-15" x="30.26" y="0">t</tspan><tspan x="33.87" y="0">e</tspan></text></g><g class="cls-7"><g class="cls-8"><text class="cls-9" transform="translate(307.88 19.39)"><tspan class="cls-16">N</tspan><tspan class="cls-17" x="9.37" y="0">o</tspan><tspan class="cls-18" x="17.28" y="0"> </tspan><tspan class="cls-19" x="20.89" y="0">m</tspan><tspan class="cls-17" x="32.41" y="0">od</tspan><tspan class="cls-12" x="48.23" y="0">i</tspan><tspan class="cls-20" x="51.12" y="0">f</tspan><tspan class="cls-12" x="55.42" y="0">i</tspan><tspan class="cls-17" x="58.31" y="0">e</tspan><tspan x="66.22" y="0">r</tspan></text></g><g class="cls-7"><g class="cls-8"><text class="cls-9" transform="translate(407.12 19.39)"><tspan class="cls-21">P</tspan><tspan class="cls-22" x="9.36" y="0">r</tspan><tspan class="cls-17" x="13.68" y="0">o</tspan><tspan class="cls-18" x="21.59" y="0">t</tspan><tspan class="cls-17" x="25.2" y="0">e</tspan><tspan class="cls-23" x="33.11" y="0">c</tspan><tspan class="cls-18" x="40.3" y="0">t</tspan><tspan class="cls-17" x="43.91" y="0">e</tspan><tspan x="51.82" y="0">d</tspan></text></g><g class="cls-7"><g class="cls-8"><text class="cls-9" transform="translate(501.03 19.39)"><tspan class="cls-21">P</tspan><tspan class="cls-24" x="9.36" y="0">u</tspan><tspan class="cls-17" x="16.57" y="0">b</tspan><tspan class="cls-12" x="24.48" y="0">li</tspan><tspan x="30.25" y="0">c</tspan></text></g></g></g></g></g><g class="cls-25"><g class="cls-26"><text class="cls-9" transform="translate(7.39 44.93)"><tspan class="cls-10">S</tspan><tspan class="cls-14" x="9.36" y="0">a</tspan><tspan class="cls-19" x="16.57" y="0">m</tspan><tspan class="cls-17" x="28.09" y="0">e</tspan><tspan class="cls-27" x="36" y="0"> </tspan><tspan class="cls-28" x="38.88" y="0">c</tspan><tspan class="cls-12" x="46.08" y="0">l</tspan><tspan class="cls-29" x="48.96" y="0">a</tspan><tspan class="cls-28" x="56.18" y="0">s</tspan><tspan x="63.37" y="0">s</tspan></text></g></g><g class="cls-7"><g class="cls-8"><text class="cls-30" transform="translate(240.59 47.43)">Y<tspan class="cls-17" x="7.21" y="0">e</tspan><tspan class="cls-31" x="15.12" y="0">s</tspan></text></g><g class="cls-7"><g class="cls-8"><text class="cls-9" transform="translate(332.37 47.43)"><tspan class="cls-32">Y</tspan><tspan class="cls-17" x="7.21" y="0">e</tspan><tspan x="15.12" y="0">s</tspan></text></g><g class="cls-7"><g class="cls-8"><text class="cls-9" transform="translate(425.83 47.43)"><tspan class="cls-32">Y</tspan><tspan class="cls-17" x="7.21" y="0">e</tspan><tspan x="15.12" y="0">s</tspan></text></g><g class="cls-7"><g class="cls-8"><text class="cls-9" transform="translate(508.95 47.43)"><tspan class="cls-32">Y</tspan><tspan class="cls-17" x="7.21" y="0">e</tspan><tspan x="15.12" y="0">s</tspan></text></g></g></g></g></g><g class="cls-33"><g class="cls-34"><text class="cls-9" transform="translate(7.39 72.97)"><tspan class="cls-10">S</tspan><tspan class="cls-14" x="9.36" y="0">a</tspan><tspan class="cls-19" x="16.57" y="0">m</tspan><tspan class="cls-17" x="28.09" y="0">e</tspan><tspan class="cls-27" x="36" y="0"> </tspan><tspan class="cls-17" x="38.88" y="0">p</tspan><tspan class="cls-29" x="46.79" y="0">a</tspan><tspan class="cls-28" x="54" y="0">c</tspan><tspan class="cls-13" x="61.2" y="0">k</tspan><tspan class="cls-29" x="67.68" y="0">a</tspan><tspan class="cls-35" x="74.89" y="0">ge</tspan><tspan class="cls-36" x="90.71" y="0"> </tspan><tspan class="cls-28" x="92.88" y="0">s</tspan><tspan class="cls-29" x="100.08" y="0">u</tspan><tspan class="cls-17" x="107.29" y="0">b</tspan><tspan class="cls-28" x="115.2" y="0">c</tspan><tspan class="cls-12" x="122.4" y="0">l</tspan><tspan class="cls-29" x="125.28" y="0">a</tspan><tspan class="cls-28" x="132.5" y="0">s</tspan><tspan x="139.69" y="0">s</tspan></text></g></g><g class="cls-7"><g class="cls-8"><text class="cls-37" transform="translate(242.75 75.46)">N<tspan class="cls-31" x="9.37" y="0">o</tspan></text></g><g class="cls-7"><g class="cls-8"><text class="cls-9" transform="translate(332.37 75.46)"><tspan class="cls-32">Y</tspan><tspan class="cls-17" x="7.21" y="0">e</tspan><tspan x="15.12" y="0">s</tspan></text></g><g class="cls-7"><g class="cls-8"><text class="cls-9" transform="translate(425.83 75.46)"><tspan class="cls-32">Y</tspan><tspan class="cls-17" x="7.21" y="0">e</tspan><tspan x="15.12" y="0">s</tspan></text></g><g class="cls-7"><g class="cls-8"><text class="cls-9" transform="translate(508.95 75.46)"><tspan class="cls-32">Y</tspan><tspan class="cls-17" x="7.21" y="0">e</tspan><tspan x="15.12" y="0">s</tspan></text></g></g></g></g></g><g class="cls-38"><g class="cls-39"><text class="cls-9" transform="translate(7.39 101)"><tspan class="cls-10">S</tspan><tspan class="cls-14" x="9.36" y="0">a</tspan><tspan class="cls-19" x="16.57" y="0">m</tspan><tspan class="cls-17" x="28.09" y="0">e</tspan><tspan class="cls-27" x="36" y="0"> </tspan><tspan class="cls-17" x="38.88" y="0">p</tspan><tspan class="cls-29" x="46.79" y="0">a</tspan><tspan class="cls-28" x="54" y="0">c</tspan><tspan class="cls-13" x="61.2" y="0">k</tspan><tspan class="cls-29" x="67.68" y="0">a</tspan><tspan class="cls-35" x="74.89" y="0">ge</tspan><tspan class="cls-36" x="90.71" y="0"> </tspan><tspan class="cls-29" x="92.88" y="0">n</tspan><tspan class="cls-17" x="100.09" y="0">o</tspan><tspan x="108" y="0">n</tspan></text></g></g><g class="cls-7"><g class="cls-8"><text class="cls-9" transform="translate(122.59 101)">-</text></g><g class="cls-7"><g class="cls-8"><text class="cls-40" transform="translate(126.91 101)">s<tspan class="cls-29" x="7.2" y="0">u</tspan><tspan class="cls-17" x="14.41" y="0">b</tspan><tspan class="cls-23" x="22.32" y="0">c</tspan><tspan class="cls-41" x="29.51" y="0">l</tspan><tspan class="cls-29" x="32.4" y="0">a</tspan><tspan class="cls-23" x="39.61" y="0">s</tspan><tspan class="cls-31" x="46.81" y="0">s</tspan></text></g><g class="cls-7"><g class="cls-8"><text class="cls-37" transform="translate(242.75 103.5)">N<tspan class="cls-31" x="9.37" y="0">o</tspan></text></g><g class="cls-7"><g class="cls-8"><text class="cls-9" transform="translate(332.37 103.5)"><tspan class="cls-32">Y</tspan><tspan class="cls-17" x="7.21" y="0">e</tspan><tspan x="15.12" y="0">s</tspan></text></g><g class="cls-7"><g class="cls-8"><text class="cls-9" transform="translate(425.83 103.5)"><tspan class="cls-32">Y</tspan><tspan class="cls-17" x="7.21" y="0">e</tspan><tspan x="15.12" y="0">s</tspan></text></g><g class="cls-7"><g class="cls-8"><text class="cls-9" transform="translate(508.95 103.5)"><tspan class="cls-32">Y</tspan><tspan class="cls-17" x="7.21" y="0">e</tspan><tspan x="15.12" y="0">s</tspan></text></g></g></g></g></g></g></g><g class="cls-42"><g class="cls-43"><text class="cls-9" transform="translate(7.39 129.02)"><tspan class="cls-44">D</tspan><tspan class="cls-12" x="10.07" y="0">i</tspan><tspan class="cls-45" x="12.96" y="0">ff</tspan><tspan class="cls-46" x="21.57" y="0">e</tspan><tspan class="cls-11" x="29.48" y="0">r</tspan><tspan class="cls-29" x="33.81" y="0">en</tspan><tspan class="cls-15" x="48.23" y="0">t</tspan><tspan class="cls-36" x="51.84" y="0"> </tspan><tspan class="cls-17" x="54.01" y="0">p</tspan><tspan class="cls-29" x="61.92" y="0">a</tspan><tspan class="cls-28" x="69.13" y="0">c</tspan><tspan class="cls-13" x="76.33" y="0">k</tspan><tspan class="cls-29" x="82.81" y="0">a</tspan><tspan class="cls-17" x="90.02" y="0">ge</tspan><tspan class="cls-27" x="105.84" y="0"> </tspan><tspan class="cls-28" x="108.72" y="0">s</tspan><tspan class="cls-29" x="115.92" y="0">u</tspan><tspan class="cls-17" x="123.13" y="0">b</tspan><tspan class="cls-28" x="131.04" y="0">c</tspan><tspan class="cls-12" x="138.24" y="0">l</tspan><tspan class="cls-29" x="141.13" y="0">a</tspan><tspan class="cls-28" x="148.34" y="0">s</tspan><tspan x="155.53" y="0">s</tspan></text></g></g><g class="cls-7"><g class="cls-8"><text class="cls-37" transform="translate(242.75 131.52)">N<tspan class="cls-31" x="9.37" y="0">o</tspan></text></g><g class="cls-7"><g class="cls-8"><text class="cls-9" transform="translate(334.52 131.52)"><tspan class="cls-16">N</tspan><tspan x="9.37" y="0">o</tspan></text></g><g class="cls-7"><g class="cls-8"><text class="cls-9" transform="translate(425.83 131.52)"><tspan class="cls-32">Y</tspan><tspan class="cls-17" x="7.21" y="0">e</tspan><tspan x="15.12" y="0">s</tspan></text></g><g class="cls-7"><g class="cls-8"><text class="cls-9" transform="translate(508.95 131.52)"><tspan class="cls-32">Y</tspan><tspan class="cls-17" x="7.21" y="0">e</tspan><tspan x="15.12" y="0">s</tspan></text></g></g></g></g></g><g class="cls-47"><g class="cls-48"><text class="cls-9" transform="translate(7.39 157.06)"><tspan class="cls-44">D</tspan><tspan class="cls-12" x="10.07" y="0">i</tspan><tspan class="cls-45" x="12.96" y="0">ff</tspan><tspan class="cls-46" x="21.57" y="0">e</tspan><tspan class="cls-11" x="29.48" y="0">r</tspan><tspan class="cls-29" x="33.81" y="0">en</tspan><tspan class="cls-15" x="48.23" y="0">t</tspan><tspan class="cls-36" x="51.84" y="0"> </tspan><tspan class="cls-17" x="54.01" y="0">p</tspan><tspan class="cls-29" x="61.92" y="0">a</tspan><tspan class="cls-28" x="69.13" y="0">c</tspan><tspan class="cls-13" x="76.33" y="0">k</tspan><tspan class="cls-29" x="82.81" y="0">a</tspan><tspan class="cls-17" x="90.02" y="0">ge</tspan><tspan class="cls-27" x="105.84" y="0"> </tspan><tspan class="cls-29" x="108.72" y="0">n</tspan><tspan class="cls-17" x="115.94" y="0">o</tspan><tspan x="123.85" y="0">n</tspan></text></g></g><g class="cls-7"><g class="cls-8"><text class="cls-9" transform="translate(138.43 157.06)">-</text></g><g class="cls-7"><g class="cls-8"><text class="cls-40" transform="translate(142.75 157.06)">s<tspan class="cls-29" x="7.2" y="0">u</tspan><tspan class="cls-17" x="14.41" y="0">b</tspan><tspan class="cls-23" x="22.32" y="0">c</tspan><tspan class="cls-41" x="29.51" y="0">l</tspan><tspan class="cls-29" x="32.4" y="0">a</tspan><tspan class="cls-23" x="39.61" y="0">s</tspan><tspan class="cls-31" x="46.81" y="0">s</tspan></text></g><g class="cls-7"><g class="cls-8"><text class="cls-37" transform="translate(242.75 159.56)">N<tspan class="cls-31" x="9.37" y="0">o</tspan></text></g><g class="cls-7"><g class="cls-8"><text class="cls-9" transform="translate(334.52 159.56)"><tspan class="cls-16">N</tspan><tspan x="9.37" y="0">o</tspan></text></g><g class="cls-7"><g class="cls-8"><text class="cls-9" transform="translate(428.72 159.56)"><tspan class="cls-16">N</tspan><tspan x="9.37" y="0">o</tspan></text></g><g class="cls-7"><g class="cls-8"><text class="cls-9" transform="translate(508.95 159.56)"><tspan class="cls-32">Y</tspan><tspan class="cls-17" x="7.21" y="0">e</tspan><tspan x="15.12" y="0">s</tspan></text></g></g></g></g></g></g></g></g></g></svg>