<svg xmlns="http://www.w3.org/2000/svg" viewBox="0 0 600 1115"><defs><style>.cls-1,.cls-5,.cls-6,.cls-7{fill:none;}.cls-1,.cls-2,.cls-6,.cls-7{stroke:#000;stroke-miterlimit:10;}.cls-3,.cls-4{font-size:14px;font-family:ArialMT, Arial;}.cls-3{letter-spacing:-0.06em;}.cls-6,.cls-7{stroke-width:0.5px;}.cls-7{stroke-dasharray:12.34 12.34;}</style></defs><title>inheritancetypes_1</title><g id="Layer_2" data-name="Layer 2"><g id="Layer_1-2" data-name="Layer 1"><rect class="cls-1" x="114.5" y="71.5" width="100" height="60"/><line class="cls-1" x1="114.5" y1="92.5" x2="214.5" y2="92.5"/><line class="cls-1" x1="114.5" y1="112.5" x2="214.5" y2="112.5"/><rect class="cls-1" x="114.5" y="169.5" width="100" height="60"/><line class="cls-1" x1="114.5" y1="190.5" x2="214.5" y2="190.5"/><line class="cls-1" x1="114.5" y1="210.5" x2="214.5" y2="210.5"/><line class="cls-1" x1="164.5" y1="131.5" x2="164.5" y2="169.5"/><polygon class="cls-2" points="164.5 147.5 160 152 169 152 164.5 147.5"/><text class="cls-3" transform="translate(159 86.5)">A</text><text class="cls-4" transform="translate(160 184.5)">B</text><text class="cls-4" transform="translate(109.1 250.59)">Single inheritance</text><rect class="cls-1" x="365.5" y="13.5" width="100" height="60"/><line class="cls-1" x1="365.5" y1="34.5" x2="465.5" y2="34.5"/><line class="cls-1" x1="365.5" y1="54.5" x2="465.5" y2="54.5"/><rect class="cls-1" x="365.5" y="111.5" width="100" height="60"/><line class="cls-1" x1="365.5" y1="132.5" x2="465.5" y2="132.5"/><line class="cls-1" x1="365.5" y1="152.5" x2="465.5" y2="152.5"/><rect class="cls-1" x="365.5" y="209.5" width="100" height="60"/><line class="cls-1" x1="365.5" y1="230.5" x2="465.5" y2="230.5"/><line class="cls-1" x1="365.5" y1="250.5" x2="465.5" y2="250.5"/><line class="cls-1" x1="415.5" y1="73.5" x2="415.5" y2="111.5"/><line class="cls-1" x1="415.5" y1="171.5" x2="415.5" y2="209.5"/><polygon class="cls-2" points="415.5 89.5 411 94 420 94 415.5 89.5"/><polygon class="cls-2" points="415.5 187.5 411 192 420 192 415.5 187.5"/><text class="cls-3" transform="translate(410 28.5)">A</text><text class="cls-4" transform="translate(411 126.5)">B</text><text class="cls-4" transform="translate(410 224.5)">C</text><text class="cls-4" transform="translate(351.09 290.59)">Multilevel inheritance</text><rect class="cls-1" x="255.5" y="319.5" width="100" height="60"/><line class="cls-1" x1="255.5" y1="340.5" x2="355.5" y2="340.5"/><line class="cls-1" x1="255.5" y1="360.5" x2="355.5" y2="360.5"/><text class="cls-3" transform="translate(300 334.5)">A</text><rect class="cls-1" x="155.5" y="447.5" width="100" height="60"/><line class="cls-1" x1="155.5" y1="468.5" x2="255.5" y2="468.5"/><line class="cls-1" x1="155.5" y1="488.5" x2="255.5" y2="488.5"/><text class="cls-4" transform="translate(201 462.5)">B</text><rect class="cls-1" x="355.5" y="447.5" width="100" height="60"/><line class="cls-1" x1="355.5" y1="468.5" x2="455.5" y2="468.5"/><line class="cls-1" x1="355.5" y1="488.5" x2="455.5" y2="488.5"/><text class="cls-4" transform="translate(400 462.5)">C</text><polyline class="cls-1" points="305.5 379.5 305.5 417.5 405.5 417.5 205 418 205 448"/><polygon class="cls-2" points="305.5 395.5 301 400 310 400 305.5 395.5"/><line class="cls-1" x1="405" y1="448" x2="405" y2="418"/><text class="cls-4" transform="translate(234.07 531.07)">Hierarchical inheritance</text><rect class="cls-1" x="155.5" y="559.5" width="100" height="60"/><line class="cls-1" x1="155.5" y1="580.5" x2="255.5" y2="580.5"/><line class="cls-1" x1="155.5" y1="600.5" x2="255.5" y2="600.5"/><text class="cls-3" transform="translate(200 574.5)">A</text><rect class="cls-1" x="355.5" y="559.5" width="100" height="60"/><line class="cls-1" x1="355.5" y1="580.5" x2="455.5" y2="580.5"/><line class="cls-1" x1="355.5" y1="600.5" x2="455.5" y2="600.5"/><text class="cls-4" transform="translate(401 574.5)">B</text><rect class="cls-1" x="255.5" y="687.5" width="100" height="60"/><line class="cls-1" x1="255.5" y1="708.5" x2="355.5" y2="708.5"/><line class="cls-1" x1="255.5" y1="728.5" x2="355.5" y2="728.5"/><text class="cls-4" transform="translate(300 702.5)">C</text><polyline class="cls-1" points="305 688 305 650 205 650 405.5 649.5 405.5 619.5"/><line class="cls-1" x1="205.5" y1="650.5" x2="205.5" y2="619.5"/><polygon class="cls-2" points="305 665.17 301.08 670.08 309 670.08 305 665.17"/><text class="cls-4" transform="translate(243.06 769.58)">Multiple inheritance</text><rect class="cls-1" x="249.5" y="798.5" width="100" height="60"/><line class="cls-1" x1="249.5" y1="819.5" x2="349.5" y2="819.5"/><line class="cls-1" x1="249.5" y1="839.5" x2="349.5" y2="839.5"/><line class="cls-1" x1="299.5" y1="858.5" x2="299.5" y2="896.5"/><polygon class="cls-2" points="299.5 874.5 295 879 304 879 299.5 874.5"/><text class="cls-3" transform="translate(294 813.5)">A</text><rect class="cls-1" x="249.5" y="896.5" width="100" height="60"/><line class="cls-1" x1="249.5" y1="917.5" x2="349.5" y2="917.5"/><line class="cls-1" x1="249.5" y1="937.5" x2="349.5" y2="937.5"/><text class="cls-4" transform="translate(294 911.5)">B</text><rect class="cls-1" x="149.5" y="1024.5" width="100" height="60"/><line class="cls-1" x1="149.5" y1="1045.5" x2="249.5" y2="1045.5"/><line class="cls-1" x1="149.5" y1="1065.5" x2="249.5" y2="1065.5"/><text class="cls-4" transform="translate(195 1039.5)">C</text><rect class="cls-1" x="349.5" y="1024.5" width="100" height="60"/><line class="cls-1" x1="349.5" y1="1045.5" x2="449.5" y2="1045.5"/><line class="cls-1" x1="349.5" y1="1065.5" x2="449.5" y2="1065.5"/><text class="cls-4" transform="translate(394 1039.5)">D</text><polyline class="cls-1" points="299.5 956.5 299.5 994.5 399.5 994.5 199 995 199 1025"/><polygon class="cls-2" points="299.5 972.5 295 977 304 977 299.5 972.5"/><line class="cls-1" x1="399" y1="1025" x2="399" y2="995"/><text class="cls-4" transform="translate(240.6 1106.56)">Hybrid inheritance</text><rect class="cls-5" width="600" height="1115"/><line class="cls-6" x1="120.5" y1="784" x2="126.5" y2="784"/><line class="cls-7" x1="138.84" y1="784" x2="478.33" y2="784"/><line class="cls-6" x1="484.5" y1="784" x2="490.5" y2="784"/><line class="cls-6" x1="116.5" y1="544" x2="122.5" y2="544"/><line class="cls-7" x1="134.84" y1="544" x2="474.33" y2="544"/><line class="cls-6" x1="480.5" y1="544" x2="486.5" y2="544"/><line class="cls-6" x1="120.5" y1="304" x2="126.5" y2="304"/><line class="cls-7" x1="138.84" y1="304" x2="478.33" y2="304"/><line class="cls-6" x1="484.5" y1="304" x2="490.5" y2="304"/></g></g></svg>