<svg xmlns="http://www.w3.org/2000/svg" xmlns:xlink="http://www.w3.org/1999/xlink" viewBox="0 0 600 175"><defs><style>.cls-1,.cls-2,.cls-3,.cls-41,.cls-5,.cls-6{fill:none;}.cls-1{clip-rule:evenodd;}.cls-3,.cls-4{fill-rule:evenodd;}.cls-4{fill:#a5a5a5;}.cls-4,.cls-5,.cls-6{opacity:0.2;}.cls-5,.cls-6{stroke:#a5a5a5;stroke-linejoin:round;}.cls-5{stroke-width:0.96px;}.cls-6{stroke-width:1.92px;}.cls-7{clip-path:url(#clip-path);}.cls-8{clip-path:url(#clip-path-2);}.cls-32,.cls-34,.cls-37,.cls-38,.cls-9{font-size:13.68px;}.cls-32,.cls-34,.cls-37,.cls-38,.cls-42,.cls-9{font-family:ArialMT, Arial;}.cls-10,.cls-37{letter-spacing:0.04em;}.cls-11{letter-spacing:-0.03em;}.cls-12{letter-spacing:-0.01em;}.cls-13{letter-spacing:0.02em;}.cls-14{letter-spacing:-0.02em;}.cls-15{letter-spacing:-0.01em;}.cls-16{letter-spacing:-0.04em;}.cls-17{letter-spacing:0.03em;}.cls-18,.cls-38{letter-spacing:-0.03em;}.cls-19{letter-spacing:-0.01em;}.cls-20,.cls-32{letter-spacing:-0.04em;}.cls-21{letter-spacing:0.02em;}.cls-22{letter-spacing:0.01em;}.cls-23{letter-spacing:-0.03em;}.cls-24{letter-spacing:0.03em;}.cls-25{letter-spacing:-0.03em;}.cls-26{letter-spacing:-0.03em;}.cls-27{letter-spacing:-0.04em;}.cls-28{letter-spacing:-0.02em;}.cls-29{letter-spacing:0.02em;}.cls-30,.cls-34{letter-spacing:0.01em;}.cls-31{letter-spacing:0.02em;}.cls-33{letter-spacing:0em;}.cls-35{letter-spacing:-0.12em;}.cls-36{letter-spacing:-0.03em;}.cls-39{letter-spacing:0em;}.cls-40{fill:#fff;}.cls-41{stroke:#000;stroke-miterlimit:10;}.cls-42{font-size:14px;}</style><clipPath id="clip-path"><polygon class="cls-1" points="57.11 173.04 567.59 173.04 567.59 1.68 57.11 1.68 57.11 173.04 57.11 173.04"/></clipPath><clipPath id="clip-path-2"><rect class="cls-2" x="57.11" y="1.68" width="510.48" height="171.36"/></clipPath></defs><title>interrupttypes_2</title><g id="Layer_2" data-name="Layer 2"><g id="Layer_1-2" data-name="Layer 1"><polygon class="cls-4" points="57.65 30.83 226.94 30.83 226.94 58.86 57.65 58.86 57.65 30.83 57.65 30.83"/><polygon class="cls-4" points="226.94 30.83 396.23 30.83 396.23 58.86 226.94 58.86 226.94 30.83 226.94 30.83"/><polygon class="cls-4" points="396.23 30.83 565.53 30.83 565.53 58.86 396.23 58.86 396.23 30.83 396.23 30.83"/><polygon class="cls-4" points="57.65 86.89 226.94 86.89 226.94 114.92 57.65 114.92 57.65 86.89 57.65 86.89"/><polygon class="cls-4" points="226.94 86.89 396.23 86.89 396.23 114.92 226.94 114.92 226.94 86.89 226.94 86.89"/><polygon class="cls-4" points="396.23 86.89 565.53 86.89 565.53 114.92 396.23 114.92 396.23 86.89 396.23 86.89"/><polygon class="cls-4" points="57.65 142.96 226.94 142.96 226.94 170.99 57.65 170.99 57.65 142.96 57.65 142.96"/><polygon class="cls-4" points="226.94 142.96 396.23 142.96 396.23 170.99 226.94 170.99 226.94 142.96 226.94 142.96"/><polygon class="cls-4" points="396.23 142.96 565.53 142.96 565.53 170.99 396.23 170.99 396.23 142.96 396.23 142.96"/><line class="cls-5" x1="226.94" y1="2.32" x2="226.94" y2="171.47"/><line class="cls-5" x1="396.23" y1="2.32" x2="396.23" y2="171.47"/><line class="cls-6" x1="57.17" y1="30.83" x2="566.01" y2="30.83"/><line class="cls-5" x1="57.17" y1="58.86" x2="566.01" y2="58.86"/><line class="cls-5" x1="57.17" y1="86.89" x2="566.01" y2="86.89"/><line class="cls-5" x1="57.17" y1="114.92" x2="566.01" y2="114.92"/><line class="cls-5" x1="57.17" y1="142.96" x2="566.01" y2="142.96"/><line class="cls-5" x1="57.65" y1="2.32" x2="57.65" y2="171.47"/><line class="cls-5" x1="565.53" y1="2.32" x2="565.53" y2="171.47"/><line class="cls-5" x1="57.17" y1="2.8" x2="566.01" y2="2.8"/><line class="cls-5" x1="57.17" y1="170.99" x2="566.01" y2="170.99"/><g class="cls-7"><g class="cls-8"><text class="cls-9" transform="translate(113.55 21.7)"><tspan class="cls-10">I</tspan><tspan class="cls-11" x="4.31" y="0">n</tspan><tspan class="cls-12" x="11.52" y="0">t</tspan><tspan class="cls-13" x="15.13" y="0">e</tspan><tspan class="cls-14" x="23.04" y="0">rr</tspan><tspan class="cls-11" x="31.68" y="0">u</tspan><tspan class="cls-13" x="38.89" y="0">p</tspan><tspan class="cls-15" x="46.8" y="0">t</tspan><tspan x="50.41" y="0">s</tspan></text></g><g class="cls-7"><g class="cls-8"><text class="cls-9" transform="translate(237.48 21.7)"><tspan class="cls-16">M</tspan><tspan class="cls-11" x="10.81" y="0">a</tspan><tspan class="cls-17" x="18.02" y="0">s</tspan><tspan class="cls-18" x="25.21" y="0">k</tspan><tspan class="cls-11" x="31.7" y="0">a</tspan><tspan class="cls-13" x="38.91" y="0">b</tspan><tspan class="cls-19" x="46.82" y="0">l</tspan><tspan class="cls-13" x="49.71" y="0">e</tspan><tspan class="cls-15" x="57.62" y="0">/</tspan><tspan class="cls-20" x="61.23" y="0">N</tspan><tspan class="cls-21" x="70.6" y="0">o</tspan><tspan x="78.51" y="0">n</tspan></text></g><g class="cls-7"><g class="cls-8"><text class="cls-9" transform="translate(323.17 21.7)">-</text></g><g class="cls-7"><g class="cls-8"><text class="cls-9" transform="translate(327.48 21.7)"><tspan class="cls-22">m</tspan><tspan class="cls-23" x="11.52" y="0">a</tspan><tspan class="cls-24" x="18.73" y="0">s</tspan><tspan class="cls-18" x="25.93" y="0">k</tspan><tspan class="cls-25" x="32.41" y="0">a</tspan><tspan class="cls-13" x="39.62" y="0">b</tspan><tspan class="cls-19" x="47.53" y="0">l</tspan><tspan x="50.42" y="0">e</tspan></text></g><g class="cls-7"><g class="cls-8"><text class="cls-9" transform="translate(411.11 21.7)"><tspan class="cls-26">V</tspan><tspan class="cls-13" x="8.65" y="0">e</tspan><tspan class="cls-24" x="16.55" y="0">c</tspan><tspan class="cls-15" x="23.75" y="0">t</tspan><tspan class="cls-13" x="27.36" y="0">o</tspan><tspan class="cls-14" x="35.27" y="0">r</tspan><tspan class="cls-13" x="39.59" y="0">e</tspan><tspan class="cls-25" x="47.5" y="0">d</tspan><tspan class="cls-15" x="54.71" y="0">/</tspan><tspan class="cls-27" x="58.32" y="0">N</tspan><tspan class="cls-13" x="67.69" y="0">o</tspan><tspan x="75.6" y="0">n</tspan></text></g><g class="cls-7"><g class="cls-8"><text class="cls-9" transform="translate(493.91 21.7)">-</text></g><g class="cls-7"><g class="cls-8"><text class="cls-9" transform="translate(498.23 21.7)"><tspan class="cls-18">v</tspan><tspan class="cls-13" x="6.48" y="0">e</tspan><tspan class="cls-24" x="14.39" y="0">c</tspan><tspan class="cls-15" x="21.59" y="0">t</tspan><tspan class="cls-23" x="25.2" y="0">o</tspan><tspan class="cls-28" x="32.41" y="0">r</tspan><tspan class="cls-13" x="36.73" y="0">e</tspan><tspan x="44.64" y="0">d</tspan></text></g><g class="cls-7"><g class="cls-8"><text class="cls-9" transform="translate(123.63 49.74)"><tspan class="cls-29">T</tspan><tspan class="cls-30" x="8.63" y="0">R</tspan><tspan class="cls-31" x="18.7" y="0">A</tspan><tspan x="28.06" y="0">P</tspan></text></g><g class="cls-7"><g class="cls-8"><text class="cls-32" transform="translate(267.73 49.74)">N<tspan class="cls-21" x="9.37" y="0">o</tspan><tspan class="cls-33" x="17.28" y="0">n</tspan></text></g><g class="cls-7"><g class="cls-8"><text class="cls-9" transform="translate(292.22 49.74)">-</text></g><g class="cls-7"><g class="cls-8"><text class="cls-9" transform="translate(296.53 49.74)"><tspan class="cls-22">m</tspan><tspan class="cls-23" x="11.52" y="0">a</tspan><tspan class="cls-24" x="18.73" y="0">s</tspan><tspan class="cls-18" x="25.93" y="0">k</tspan><tspan class="cls-25" x="32.41" y="0">a</tspan><tspan class="cls-13" x="39.62" y="0">b</tspan><tspan class="cls-19" x="47.53" y="0">l</tspan><tspan x="50.42" y="0">e</tspan></text></g><g class="cls-7"><g class="cls-8"><text class="cls-9" transform="translate(453.58 49.74)"><tspan class="cls-26">V</tspan><tspan class="cls-13" x="8.65" y="0">e</tspan><tspan class="cls-24" x="16.55" y="0">c</tspan><tspan class="cls-15" x="23.75" y="0">t</tspan><tspan class="cls-13" x="27.36" y="0">o</tspan><tspan class="cls-14" x="35.27" y="0">r</tspan><tspan class="cls-13" x="39.59" y="0">e</tspan><tspan x="47.5" y="0">d</tspan></text></g><g class="cls-7"><g class="cls-8"><text class="cls-34" transform="translate(117.16 77.77)">R<tspan class="cls-31" x="10.07" y="0">S</tspan><tspan class="cls-29" x="19.43" y="0">T</tspan><tspan class="cls-35" x="28.06" y="0"> </tspan><tspan class="cls-13" x="30.23" y="0">7</tspan><tspan class="cls-15" x="38.14" y="0">.</tspan><tspan class="cls-33" x="41.75" y="0">5</tspan></text></g><g class="cls-7"><g class="cls-8"><text class="cls-9" transform="translate(282.85 77.77)"><tspan class="cls-16">M</tspan><tspan class="cls-11" x="10.81" y="0">a</tspan><tspan class="cls-17" x="18.02" y="0">s</tspan><tspan class="cls-36" x="25.21" y="0">k</tspan><tspan class="cls-25" x="31.7" y="0">a</tspan><tspan class="cls-13" x="38.91" y="0">b</tspan><tspan class="cls-19" x="46.82" y="0">l</tspan><tspan x="49.71" y="0">e</tspan></text></g><g class="cls-7"><g class="cls-8"><text class="cls-9" transform="translate(453.58 77.77)"><tspan class="cls-26">V</tspan><tspan class="cls-13" x="8.65" y="0">e</tspan><tspan class="cls-24" x="16.55" y="0">c</tspan><tspan class="cls-15" x="23.75" y="0">t</tspan><tspan class="cls-13" x="27.36" y="0">o</tspan><tspan class="cls-14" x="35.27" y="0">r</tspan><tspan class="cls-13" x="39.59" y="0">e</tspan><tspan x="47.5" y="0">d</tspan></text></g><g class="cls-7"><g class="cls-8"><text class="cls-34" transform="translate(117.16 105.81)">R<tspan class="cls-31" x="10.07" y="0">S</tspan><tspan class="cls-29" x="19.43" y="0">T</tspan><tspan class="cls-35" x="28.06" y="0"> </tspan><tspan class="cls-13" x="30.23" y="0">6</tspan><tspan class="cls-15" x="38.14" y="0">.</tspan><tspan class="cls-33" x="41.75" y="0">5</tspan></text></g><g class="cls-7"><g class="cls-8"><text class="cls-9" transform="translate(282.85 105.81)"><tspan class="cls-16">M</tspan><tspan class="cls-11" x="10.81" y="0">a</tspan><tspan class="cls-17" x="18.02" y="0">s</tspan><tspan class="cls-36" x="25.21" y="0">k</tspan><tspan class="cls-25" x="31.7" y="0">a</tspan><tspan class="cls-13" x="38.91" y="0">b</tspan><tspan class="cls-19" x="46.82" y="0">l</tspan><tspan x="49.71" y="0">e</tspan></text></g><g class="cls-7"><g class="cls-8"><text class="cls-9" transform="translate(453.58 105.81)"><tspan class="cls-26">V</tspan><tspan class="cls-13" x="8.65" y="0">e</tspan><tspan class="cls-24" x="16.55" y="0">c</tspan><tspan class="cls-15" x="23.75" y="0">t</tspan><tspan class="cls-13" x="27.36" y="0">o</tspan><tspan class="cls-14" x="35.27" y="0">r</tspan><tspan class="cls-13" x="39.59" y="0">e</tspan><tspan x="47.5" y="0">d</tspan></text></g><g class="cls-7"><g class="cls-8"><text class="cls-34" transform="translate(117.16 133.84)">R<tspan class="cls-31" x="10.07" y="0">S</tspan><tspan class="cls-29" x="19.43" y="0">T</tspan><tspan class="cls-35" x="28.06" y="0"> </tspan><tspan class="cls-13" x="30.23" y="0">5</tspan><tspan class="cls-15" x="38.14" y="0">.</tspan><tspan class="cls-33" x="41.75" y="0">5</tspan></text></g><g class="cls-7"><g class="cls-8"><text class="cls-9" transform="translate(282.85 133.84)"><tspan class="cls-16">M</tspan><tspan class="cls-11" x="10.81" y="0">a</tspan><tspan class="cls-17" x="18.02" y="0">s</tspan><tspan class="cls-36" x="25.21" y="0">k</tspan><tspan class="cls-25" x="31.7" y="0">a</tspan><tspan class="cls-13" x="38.91" y="0">b</tspan><tspan class="cls-19" x="46.82" y="0">l</tspan><tspan x="49.71" y="0">e</tspan></text></g><g class="cls-7"><g class="cls-8"><text class="cls-9" transform="translate(453.58 133.84)"><tspan class="cls-26">V</tspan><tspan class="cls-13" x="8.65" y="0">e</tspan><tspan class="cls-24" x="16.55" y="0">c</tspan><tspan class="cls-15" x="23.75" y="0">t</tspan><tspan class="cls-13" x="27.36" y="0">o</tspan><tspan class="cls-14" x="35.27" y="0">r</tspan><tspan class="cls-13" x="39.59" y="0">e</tspan><tspan x="47.5" y="0">d</tspan></text></g><g class="cls-7"><g class="cls-8"><text class="cls-37" transform="translate(125.8 161.88)">I<tspan class="cls-20" x="4.31" y="0">N</tspan><tspan class="cls-29" x="13.68" y="0">T</tspan><tspan class="cls-33" x="22.31" y="0">R</tspan></text></g><g class="cls-7"><g class="cls-8"><text class="cls-9" transform="translate(282.85 161.88)"><tspan class="cls-16">M</tspan><tspan class="cls-11" x="10.81" y="0">a</tspan><tspan class="cls-17" x="18.02" y="0">s</tspan><tspan class="cls-36" x="25.21" y="0">k</tspan><tspan class="cls-25" x="31.7" y="0">a</tspan><tspan class="cls-13" x="38.91" y="0">b</tspan><tspan class="cls-19" x="46.82" y="0">l</tspan><tspan x="49.71" y="0">e</tspan></text></g><g class="cls-7"><g class="cls-8"><text class="cls-9" transform="translate(439.91 161.88)"><tspan class="cls-27">N</tspan><tspan class="cls-13" x="9.37" y="0">o</tspan><tspan x="17.28" y="0">n</tspan></text></g><g class="cls-7"><g class="cls-8"><text class="cls-9" transform="translate(464.38 161.88)">-</text></g><g class="cls-7"><g class="cls-8"><text class="cls-38" transform="translate(468.71 161.88)">v<tspan class="cls-13" x="6.48" y="0">e</tspan><tspan class="cls-24" x="14.39" y="0">c</tspan><tspan class="cls-15" x="21.59" y="0">t</tspan><tspan class="cls-13" x="25.2" y="0">o</tspan><tspan class="cls-14" x="33.11" y="0">r</tspan><tspan class="cls-13" x="37.43" y="0">e</tspan><tspan class="cls-39" x="45.34" y="0">d</tspan></text></g></g></g></g></g></g></g></g></g></g></g></g></g></g></g></g></g></g></g></g></g></g></g></g></g></g></g><line class="cls-40" x1="43.5" y1="36.5" x2="43.5" y2="165.5"/><line class="cls-41" x1="43.5" y1="43.56" x2="43.5" y2="165.5"/><polygon points="43.5 36.5 39.44 46.45 43.5 44.09 47.56 46.45 43.5 36.5"/><text class="cls-42" transform="translate(38 151) rotate(-90)">Priority Order</text><rect class="cls-2" width="600" height="175"/></g></g></svg>