<svg xmlns="http://www.w3.org/2000/svg" viewBox="0 0 560 200"><defs><style>.cls-1,.cls-3{fill:none;}.cls-2{fill:#fff;}.cls-2,.cls-3{stroke:#000;stroke-miterlimit:10;stroke-width:0.59px;}.cls-4,.cls-5{font-size:14px;}.cls-4{font-family:ArialMT, Arial;}.cls-5{font-family:CourierNewPSMT, Courier New;}</style></defs><title>Image1Chapter3OOP</title><g id="Layer_2" data-name="Layer 2"><g id="Layer_1-2" data-name="Layer 1"><rect class="cls-1" width="560" height="200"/><rect class="cls-2" x="124.5" y="13.5" width="60" height="30"/><rect class="cls-2" x="252.5" y="13.5" width="60" height="30"/><line class="cls-3" x1="184.5" y1="28.5" x2="247.73" y2="28.5"/><path d="M246.68,28.5l-1.29-2.11.08-.05,3.44,1.37,3.59.79-3.59.79-3.44,1.37-.08,0Z"/><rect class="cls-2" x="252.5" y="57.75" width="60" height="30"/><rect class="cls-2" x="252.5" y="86.75" width="60" height="30"/><rect class="cls-2" x="124.5" y="71.75" width="60" height="30"/><line class="cls-3" x1="184.5" y1="86.75" x2="247.73" y2="86.75"/><path d="M246.68,86.75l-1.29-2.11.08,0L248.91,86l3.59.79-3.59.79-3.44,1.37-.08,0Z"/><rect class="cls-2" x="253.5" y="129.5" width="60" height="30"/><rect class="cls-2" x="253.5" y="158.5" width="60" height="30"/><rect class="cls-2" x="123.5" y="143.5" width="60" height="30"/><line class="cls-3" x1="183.5" y1="158.5" x2="248.73" y2="158.5"/><path d="M247.68,158.5l-1.29-2.11.08,0,3.44,1.37,3.59.79-3.59.79-3.44,1.37-.08,0Z"/><text class="cls-4" transform="translate(53 35)">(Step 1)</text><text class="cls-4" transform="translate(53 93.5)">(Step 2)</text><text class="cls-4" transform="translate(53 165.5)">(Step 3)</text><text class="cls-5" transform="translate(385.2 28)">A obj;</text><text class="cls-5" transform="translate(351.6 86.5)">obj = new A();</text><text class="cls-5" transform="translate(364.2 158.5)">obj.incr();</text><text class="cls-5" transform="translate(141 33)">obj</text><text class="cls-5" transform="translate(141 91)">obj</text><text class="cls-5" transform="translate(140 161)">obj</text><text class="cls-5" transform="translate(266 32)">null</text><text class="cls-5" transform="translate(270 78)">i=0</text><text class="cls-5" transform="translate(261 106)">incr()</text><text class="cls-5" transform="translate(261 176)">incr()</text><text class="cls-5" transform="translate(271 148)">i=1</text></g></g></svg>