<svg xmlns="http://www.w3.org/2000/svg" viewBox="0 0 600 215"><defs><style>.cls-1,.cls-10,.cls-3,.cls-6,.cls-9{fill:none;}.cls-1,.cls-3,.cls-6,.cls-7,.cls-9{stroke:#000;stroke-miterlimit:10;}.cls-1{stroke-width:0.8px;}.cls-2{font-size:12px;}.cls-2,.cls-4,.cls-5{font-family:ArialMT, Arial;}.cls-3{stroke-width:0.65px;}.cls-4{font-size:11px;}.cls-5{font-size:14px;}.cls-6,.cls-7{stroke-width:0.92px;}.cls-8{letter-spacing:-0.06em;}.cls-9{stroke-width:0.93px;}</style></defs><title>oopmechanisms</title><g id="Layer_2" data-name="Layer 2"><g id="Layer_1-2" data-name="Layer 1"><circle class="cls-1" cx="135.94" cy="97.86" r="31.22"/><circle class="cls-1" cx="135.94" cy="97.86" r="77.56"/><line class="cls-1" x1="136.04" y1="20" x2="136.04" y2="66.94"/><line class="cls-1" x1="108.88" y1="113.43" x2="71.01" y2="140.3"/><line class="cls-1" x1="163" y1="113.43" x2="200.86" y2="140.3"/><text class="cls-2" transform="translate(80.62 95.75) rotate(-55)">Method 1</text><text class="cls-2" transform="matrix(0.57, 0.82, -0.82, 0.57, 167.49, 57.77)">Method 2</text><text class="cls-2" transform="translate(114.16 151.66)">Method 3</text><text class="cls-2" transform="translate(123.09 102.54)">Data</text><line x1="84.71" y1="58.68" x2="65.75" y2="39.72"/><line class="cls-3" x1="81.45" y1="55.42" x2="65.75" y2="39.72"/><polygon points="84.71 58.68 82 52.21 81.21 55.18 78.24 55.97 84.71 58.68"/><text class="cls-4" transform="translate(2.13 15.3)">Accessing data<tspan x="1.22" y="13.2">through proper</tspan><tspan x="16.21" y="26.4">interface</tspan></text><text class="cls-5" transform="translate(92.52 205.5)">Encapsulation</text><rect class="cls-6" x="253.88" y="23.38" width="91.55" height="54.93"/><line class="cls-6" x1="253.88" y1="42.61" x2="345.43" y2="42.61"/><line class="cls-6" x1="253.88" y1="60.92" x2="345.43" y2="60.92"/><rect class="cls-6" x="253.88" y="113.1" width="91.55" height="54.93"/><line class="cls-6" x1="253.88" y1="132.33" x2="345.43" y2="132.33"/><line class="cls-6" x1="253.88" y1="150.64" x2="345.43" y2="150.64"/><line class="cls-6" x1="299.65" y1="78.31" x2="299.65" y2="113.1"/><polygon class="cls-7" points="299.65 92.96 295.54 97.08 303.77 97.08 299.65 92.96"/><text class="cls-2" transform="translate(279.62 37.12)"><tspan class="cls-8">V</tspan><tspan x="7.34" y="0">ehicle</tspan></text><text class="cls-2" transform="translate(289.54 126.83)">Car</text><text class="cls-5" transform="translate(265.16 205.5)">Inheritance</text><rect class="cls-9" x="461.5" y="34.5" width="60" height="40"/><line class="cls-9" x1="461.5" y1="54.61" x2="521.5" y2="54.61"/><rect class="cls-9" x="461.5" y="118.5" width="60" height="40"/><line class="cls-9" x1="461.5" y1="138.61" x2="521.5" y2="138.61"/><rect class="cls-9" x="535.5" y="118.5" width="60" height="40"/><line class="cls-9" x1="535.5" y1="138.61" x2="595.5" y2="138.61"/><rect class="cls-9" x="387.5" y="118.5" width="60" height="40"/><line class="cls-9" x1="387.5" y1="138.61" x2="447.5" y2="138.61"/><line class="cls-9" x1="491.5" y1="74.5" x2="491.5" y2="112.29"/><polygon points="491.5 118.86 487.72 109.61 491.5 111.8 495.28 109.61 491.5 118.86"/><line class="cls-9" x1="422.15" y1="113.85" x2="461.5" y2="74.5"/><polygon points="417.5 118.5 426.72 114.63 422.49 113.51 421.37 109.28 417.5 118.5"/><line class="cls-9" x1="560.85" y1="114.22" x2="520.82" y2="74.18"/><polygon points="565.5 118.86 561.63 109.64 560.51 113.87 556.28 114.99 565.5 118.86"/><text class="cls-2" transform="translate(476.16 49.17)">Stack</text><text class="cls-4" transform="translate(474.38 67.5)">push( )</text><text class="cls-2" transform="translate(402.16 133.17)">Stack</text><text class="cls-2" transform="translate(476.16 133.17)">Stack</text><text class="cls-2" transform="translate(550.16 133.17)">Stack</text><text class="cls-4" transform="translate(396.1 151.5)">push(int)</text><text class="cls-4" transform="translate(465.21 151.5)">push(char)</text><text class="cls-4" transform="translate(539.51 151.5)">push(float)</text><text class="cls-5" transform="translate(447.16 205.5)">Polymorphism</text><rect class="cls-10" width="600" height="215"/></g></g></svg>