<svg xmlns="http://www.w3.org/2000/svg" viewBox="0 0 600 255"><defs><style>.cls-1,.cls-12,.cls-2,.cls-3,.cls-5{fill:none;}.cls-1,.cls-2,.cls-3,.cls-5{stroke:#000;stroke-miterlimit:10;}.cls-1{stroke-width:0.84px;}.cls-3{stroke-dasharray:13 3.25;}.cls-4{fill:#fff;}.cls-5{stroke-width:0.5px;}.cls-6,.cls-7,.cls-9{font-size:9px;}.cls-10,.cls-6,.cls-7,.cls-8,.cls-9{font-family:ArialMT, Arial;}.cls-7{letter-spacing:-0.02em;}.cls-8{font-size:6px;}.cls-9{letter-spacing:-0.06em;}.cls-10{font-size:8px;}.cls-11{letter-spacing:-0.06em;}</style></defs><title>opcodefetch_2</title><g id="Layer_2" data-name="Layer 2"><g id="Layer_1-2" data-name="Layer 1"><line class="cls-1" x1="316.33" y1="245.83" x2="316.33" y2="20.57"/><line class="cls-1" x1="389.17" y1="20.57" x2="389.17" y2="245.83"/><line class="cls-1" x1="243.5" y1="20.82" x2="243.5" y2="245.58"/><polygon class="cls-1" points="462 245.84 462 20.57 170.67 20.82 170.67 245.59 462 245.84"/><line class="cls-1" x1="170.67" y1="38.33" x2="462" y2="38.33"/><polyline class="cls-2" points="170.67 49.67 177.33 71 204.33 71 204.33 71"/><polyline class="cls-2" points="204.33 71 212 49.87 243.5 49.67 250.67 71 278.33 71 283 49.67 316.33 49.67 323 71 352.33 71 358.33 49.67 389.17 49.67 397.33 71 426.33 71 433 49.67 462 49.67"/><polyline class="cls-2" points="170.67 93.67 177.5 93.67 182.5 106.5 394.5 106.5 399.5 93.5 462 93.5"/><polyline class="cls-2" points="170.67 106.5 177.5 106.5 182.5 93.5 394.5 93.5 400.5 106.5 462 106.5"/><polyline class="cls-2" points="170.67 127.5 176.5 127.5 181.5 140.5 247.5 140.5 249.5 134.5 246.5 127.5 181.5 127.5 176.5 140.5 170.67 140.5"/><polygon class="cls-2" points="262.5 133.5 265.5 127.5 360.5 127.5 365.5 133.5 361.5 140.5 266.5 140.5 262.5 133.5"/><line class="cls-2" x1="249.5" y1="133.5" x2="255.5" y2="133.5"/><line class="cls-2" x1="257.5" y1="133.5" x2="263.5" y2="133.5"/><line class="cls-2" x1="365.5" y1="133.5" x2="371.5" y2="133.5"/><line class="cls-3" x1="374.75" y1="133.5" x2="454.38" y2="133.5"/><line class="cls-2" x1="456" y1="133.5" x2="462" y2="133.5"/><polyline class="cls-2" points="170.67 178 176.5 157.5 201.5 157.5 206.5 178.5 462 178.5"/><polyline class="cls-2" points="170.67 188 175.5 188 179.5 208.5 200.5 208.5 462 208.5"/><polyline class="cls-2" points="170.67 217 249.5 217 255.5 237.5 356.5 237.5 362.5 216.5 462 216.5"/><circle class="cls-4" cx="255.25" cy="237.25" r="1.49"/><path d="M255.25,236a1.23,1.23,0,1,1-1.22,1.23,1.22,1.22,0,0,1,1.22-1.23m0-.52a1.75,1.75,0,1,0,1.75,1.75,1.75,1.75,0,0,0-1.75-1.75Z"/><circle class="cls-4" cx="362.25" cy="217.25" r="1.49"/><path d="M362.25,216a1.23,1.23,0,1,1-1.22,1.23,1.22,1.22,0,0,1,1.22-1.23m0-.52a1.75,1.75,0,1,0,1.75,1.75,1.75,1.75,0,0,0-1.75-1.75Z"/><path class="cls-2" d="M255.5,237.5c28.32-35.15-10.11-50.28,9.48-93.81"/><polygon points="266.5 140.5 266.24 145.87 264.89 143.94 262.55 144.15 266.5 140.5"/><path class="cls-2" d="M362.5,216.5c21.33-25.21-9.41-36.88-.91-72.59"/><polygon points="362.5 140.5 363.21 145.83 361.54 144.17 359.27 144.8 362.5 140.5"/><line class="cls-2" x1="170.5" y1="20.5" x2="170.5" y2="10.5"/><line class="cls-2" x1="461.5" y1="20.5" x2="461.5" y2="10.5"/><line class="cls-5" x1="177.03" y1="15.5" x2="204.5" y2="15.5"/><polygon points="173.5 15.5 178.47 17.53 177.29 15.5 178.47 13.47 173.5 15.5"/><line class="cls-5" x1="428" y1="15.5" x2="455.47" y2="15.5"/><polygon points="459 15.5 454.02 17.53 455.21 15.5 454.02 13.47 459 15.5"/><text class="cls-6" transform="translate(286.48 16.61)">Opcode Fetch</text><text class="cls-7" transform="translate(203.33 32.5)">T</text><text class="cls-8" transform="translate(208.83 33.5)">1</text><text class="cls-9" transform="translate(153.25 95.5)">A</text><text class="cls-8" transform="translate(154.66 96.5)"><tspan xml:space="preserve">   15</tspan></text><text class="cls-9" transform="translate(155.25 108.5)">A</text><text class="cls-8" transform="translate(159.16 109.5)"><tspan xml:space="preserve">  8</tspan></text><text class="cls-6" transform="translate(147.75 129.5)">AD</text><text class="cls-8" transform="translate(149.33 130.5)"><tspan xml:space="preserve">       15</tspan></text><text class="cls-6" transform="translate(149.75 142.5)">AD</text><text class="cls-8" transform="translate(154.66 143.5)"><tspan xml:space="preserve">     8</tspan></text><text class="cls-7" transform="translate(279.33 32.5)">T</text><text class="cls-8" transform="translate(284.83 33.5)">2</text><text class="cls-7" transform="translate(351.33 32.5)">T</text><text class="cls-8" transform="translate(356.83 33.5)">3</text><text class="cls-7" transform="translate(422.33 32.5)">T</text><text class="cls-8" transform="translate(427.83 33.5)">4</text><text class="cls-6" transform="translate(144.91 63.33)">CLK</text><text class="cls-6" transform="translate(148.16 173.33)">ALE</text><text class="cls-6" transform="translate(152 230)">RD</text><text class="cls-6" transform="translate(144.75 201.5)">IO/M</text><line class="cls-5" x1="156.5" y1="193.5" x2="164.5" y2="193.5"/><rect class="cls-4" x="257" y="192" width="103" height="12"/><rect class="cls-4" x="291" y="129" width="51" height="9"/><line class="cls-5" x1="152" y1="221.5" x2="164" y2="221.5"/><text class="cls-6" transform="translate(262.25 201.5)">IO/M</text><line class="cls-5" x1="274" y1="193.5" x2="282" y2="193.5"/><text class="cls-6" transform="translate(284.45 201)">= 0, S</text><text class="cls-6" transform="translate(312.45 201)">= 1, S</text><text class="cls-6" transform="translate(340.95 201)">= 1</text><text class="cls-8" transform="translate(308.33 203.33)">0</text><text class="cls-8" transform="translate(336.33 203.33)">1</text><text class="cls-6" transform="translate(202.24 203)">Status</text><text class="cls-6" transform="translate(393.48 201)">Opcode Fetch </text><text class="cls-6" transform="translate(300.24 136.5)">Opcode</text><text class="cls-10" transform="translate(260.94 90)">High Order</text><text class="cls-10" transform="translate(250.49 113.5)">Memory<tspan class="cls-11" x="28.89" y="0"> </tspan><tspan x="30.67" y="0">Address</tspan></text><text class="cls-10" transform="translate(182.49 148.5)">Memory<tspan class="cls-11" x="28.89" y="0"> </tspan><tspan x="30.67" y="0">Address</tspan></text><text class="cls-10" transform="translate(192.83 125.5)">Low Order</text><text class="cls-10" transform="translate(409.1 103)">Unspecified</text><rect class="cls-12" width="600" height="255"/></g></g></svg>