<svg xmlns="http://www.w3.org/2000/svg" xmlns:xlink="http://www.w3.org/1999/xlink" viewBox="0 0 598.05 240"><defs><style>.cls-1,.cls-2,.cls-3,.cls-5,.cls-6{fill:none;}.cls-1{clip-rule:evenodd;}.cls-3,.cls-4{fill-rule:evenodd;}.cls-4{fill:#a5a5a5;}.cls-4,.cls-5,.cls-6{opacity:0.2;}.cls-5,.cls-6{stroke:#a5a5a5;stroke-linejoin:round;}.cls-5{stroke-width:0.96px;}.cls-6{stroke-width:1.93px;}.cls-7{clip-path:url(#clip-path);}.cls-8{clip-path:url(#clip-path-2);}.cls-34,.cls-44,.cls-47,.cls-59,.cls-60,.cls-9{font-size:13.73px;font-family:ArialMT, Arial;}.cls-10,.cls-59{letter-spacing:-0.04em;}.cls-11{letter-spacing:0.02em;}.cls-12{letter-spacing:-0.01em;}.cls-13{letter-spacing:-0.03em;}.cls-14{letter-spacing:-0.07em;}.cls-15{letter-spacing:0.01em;}.cls-16{letter-spacing:-0.03em;}.cls-17,.cls-34{letter-spacing:0.02em;}.cls-18{letter-spacing:-0.02em;}.cls-19{letter-spacing:-0.01em;}.cls-20{clip-path:url(#clip-path-5);}.cls-21{clip-path:url(#clip-path-6);}.cls-22,.cls-44{letter-spacing:-0.01em;}.cls-23{letter-spacing:-0.07em;}.cls-24{letter-spacing:-0.02em;}.cls-25{letter-spacing:-0.12em;}.cls-26,.cls-60{letter-spacing:0.03em;}.cls-27{letter-spacing:0.04em;}.cls-28{letter-spacing:-0.03em;}.cls-29{letter-spacing:0.01em;}.cls-30{letter-spacing:-0.03em;}.cls-31{letter-spacing:0.03em;}.cls-32{letter-spacing:-0.04em;}.cls-33{letter-spacing:0.01em;}.cls-35{letter-spacing:-0.07em;}.cls-36{letter-spacing:0em;}.cls-37{clip-path:url(#clip-path-13);}.cls-38{clip-path:url(#clip-path-14);}.cls-39{letter-spacing:-0.04em;}.cls-40{letter-spacing:-0.01em;}.cls-41{clip-path:url(#clip-path-19);}.cls-42{clip-path:url(#clip-path-20);}.cls-43,.cls-47{letter-spacing:0.02em;}.cls-45{clip-path:url(#clip-path-27);}.cls-46{clip-path:url(#clip-path-28);}.cls-48{clip-path:url(#clip-path-35);}.cls-49{clip-path:url(#clip-path-36);}.cls-50{letter-spacing:0.02em;}.cls-51{letter-spacing:0.09em;}.cls-52{clip-path:url(#clip-path-39);}.cls-53{clip-path:url(#clip-path-40);}.cls-54{clip-path:url(#clip-path-45);}.cls-55{clip-path:url(#clip-path-46);}.cls-56{letter-spacing:-0.12em;}.cls-57{clip-path:url(#clip-path-53);}.cls-58{clip-path:url(#clip-path-54);}.cls-61{letter-spacing:0.02em;}</style><clipPath id="clip-path" transform="translate(-0.48 -0.64)"><polygon class="cls-1" points="0 245.06 600 245.06 600 0 0 0 0 245.06 0 245.06"/></clipPath><clipPath id="clip-path-2" transform="translate(-0.48 -0.64)"><rect class="cls-2" width="600" height="245.06"/></clipPath><clipPath id="clip-path-5" transform="translate(-0.48 -0.64)"><polygon class="cls-1" points="0.72 245.06 300 245.06 300 0 0.72 0 0.72 245.06 0.72 245.06"/></clipPath><clipPath id="clip-path-6" transform="translate(-0.48 -0.64)"><rect class="cls-2" x="0.72" width="299.28" height="245.06"/></clipPath><clipPath id="clip-path-13" transform="translate(-0.48 -0.64)"><polygon class="cls-1" points="299.28 227.71 598.55 227.71 598.55 0 299.28 0 299.28 227.71 299.28 227.71"/></clipPath><clipPath id="clip-path-14" transform="translate(-0.48 -0.64)"><rect class="cls-2" x="299.28" width="299.28" height="227.71"/></clipPath><clipPath id="clip-path-19" transform="translate(-0.48 -0.64)"><polygon class="cls-1" points="0.72 169.88 300 169.88 300 55.66 0.72 55.66 0.72 169.88 0.72 169.88"/></clipPath><clipPath id="clip-path-20" transform="translate(-0.48 -0.64)"><rect class="cls-2" x="0.72" y="55.66" width="299.28" height="114.22"/></clipPath><clipPath id="clip-path-27" transform="translate(-0.48 -0.64)"><polygon class="cls-1" points="299.28 169.88 598.55 169.88 598.55 55.66 299.28 55.66 299.28 169.88 299.28 169.88"/></clipPath><clipPath id="clip-path-28" transform="translate(-0.48 -0.64)"><rect class="cls-2" x="299.28" y="55.66" width="299.28" height="114.22"/></clipPath><clipPath id="clip-path-35" transform="translate(-0.48 -0.64)"><polygon class="cls-1" points="0.72 245.06 300 245.06 300 35.42 0.72 35.42 0.72 245.06 0.72 245.06"/></clipPath><clipPath id="clip-path-36" transform="translate(-0.48 -0.64)"><rect class="cls-2" x="0.72" y="35.42" width="299.28" height="209.64"/></clipPath><clipPath id="clip-path-39" transform="translate(-0.48 -0.64)"><polygon class="cls-1" points="299.28 245.06 598.55 245.06 598.55 0 299.28 0 299.28 245.06 299.28 245.06"/></clipPath><clipPath id="clip-path-40" transform="translate(-0.48 -0.64)"><rect class="cls-2" x="299.28" width="299.28" height="245.06"/></clipPath><clipPath id="clip-path-45" transform="translate(-0.48 -0.64)"><polygon class="cls-1" points="0.72 245.06 300 245.06 300 41.93 0.72 41.93 0.72 245.06 0.72 245.06"/></clipPath><clipPath id="clip-path-46" transform="translate(-0.48 -0.64)"><rect class="cls-2" x="0.72" y="41.93" width="299.28" height="203.13"/></clipPath><clipPath id="clip-path-53" transform="translate(-0.48 -0.64)"><polygon class="cls-1" points="299.28 245.06 598.55 245.06 598.55 41.93 299.28 41.93 299.28 245.06 299.28 245.06"/></clipPath><clipPath id="clip-path-54" transform="translate(-0.48 -0.64)"><rect class="cls-2" x="299.28" y="41.93" width="299.28" height="203.13"/></clipPath></defs><title>overloadingvsoverriding</title><g id="Layer_2" data-name="Layer 2"><g id="Layer_1-2" data-name="Layer 1"><polygon class="cls-4" points="0.48 28.63 299.03 28.63 299.03 100.34 0.48 100.34 0.48 28.63 0.48 28.63"/><polygon class="cls-4" points="299.03 28.63 597.57 28.63 597.57 100.34 299.03 100.34 299.03 28.63 299.03 28.63"/><polygon class="cls-4" points="0.48 128.48 299.03 128.48 299.03 184 0.48 184 0.48 128.48 0.48 128.48"/><polygon class="cls-4" points="299.03 128.48 597.57 128.48 597.57 184 299.03 184 299.03 128.48 299.03 128.48"/><line class="cls-5" x1="299.03" x2="299.03" y2="240"/><line class="cls-6" y1="28.63" x2="598.05" y2="28.63"/><line class="cls-5" y1="100.34" x2="598.05" y2="100.34"/><line class="cls-5" y1="128.48" x2="598.05" y2="128.48"/><line class="cls-5" y1="184" x2="598.05" y2="184"/><line class="cls-5" x1="0.48" x2="0.48" y2="240"/><line class="cls-5" x1="597.57" x2="597.57" y2="240"/><line class="cls-5" y1="0.48" x2="598.05" y2="0.48"/><line class="cls-5" y1="239.52" x2="598.05" y2="239.52"/><g class="cls-7"><g class="cls-8"><text class="cls-9" transform="translate(88.44 19.48)"><tspan class="cls-10">M</tspan><tspan class="cls-11" x="10.85" y="0">e</tspan><tspan class="cls-12" x="18.79" y="0">t</tspan><tspan class="cls-13" x="22.42" y="0">h</tspan><tspan class="cls-11" x="29.66" y="0">od</tspan><tspan class="cls-14" x="45.54" y="0"> </tspan><tspan class="cls-15" x="48.43" y="0">O</tspan><tspan class="cls-16" x="59.27" y="0">v</tspan><tspan class="cls-17" x="65.78" y="0">e</tspan><tspan class="cls-18" x="73.72" y="0">r</tspan><tspan class="cls-19" x="78.06" y="0">l</tspan><tspan class="cls-17" x="80.96" y="0">o</tspan><tspan class="cls-13" x="88.9" y="0">a</tspan><tspan class="cls-11" x="96.14" y="0">d</tspan><tspan class="cls-19" x="104.08" y="0">i</tspan><tspan class="cls-13" x="106.98" y="0">n</tspan><tspan x="114.22" y="0">g</tspan></text></g><g class="cls-7"><g class="cls-8"><text class="cls-9" transform="translate(392.75 19.48)"><tspan class="cls-10">M</tspan><tspan class="cls-11" x="10.85" y="0">e</tspan><tspan class="cls-12" x="18.79" y="0">t</tspan><tspan class="cls-13" x="22.42" y="0">h</tspan><tspan class="cls-11" x="29.66" y="0">od</tspan><tspan class="cls-14" x="45.54" y="0"> </tspan><tspan class="cls-15" x="48.43" y="0">O</tspan><tspan class="cls-16" x="59.27" y="0">v</tspan><tspan class="cls-17" x="65.78" y="0">e</tspan><tspan class="cls-18" x="73.72" y="0">rr</tspan><tspan class="cls-19" x="82.4" y="0">i</tspan><tspan class="cls-11" x="85.3" y="0">d</tspan><tspan class="cls-19" x="93.24" y="0">i</tspan><tspan class="cls-13" x="96.14" y="0">n</tspan><tspan x="103.38" y="0">g</tspan></text></g></g></g><g class="cls-20"><g class="cls-21"><text class="cls-9" transform="translate(7.43 45.11)"><tspan class="cls-17">1</tspan><tspan class="cls-22" x="7.94" y="0">. </tspan><tspan class="cls-10" x="15.19" y="0">M</tspan><tspan class="cls-17" x="26.04" y="0">e</tspan><tspan class="cls-22" x="33.98" y="0">t</tspan><tspan class="cls-13" x="37.6" y="0">h</tspan><tspan class="cls-11" x="44.84" y="0">od</tspan><tspan class="cls-23" x="60.73" y="0"> </tspan><tspan class="cls-11" x="63.62" y="0">o</tspan><tspan class="cls-16" x="71.56" y="0">v</tspan><tspan class="cls-17" x="78.07" y="0">e</tspan><tspan class="cls-24" x="86.01" y="0">r</tspan><tspan class="cls-19" x="90.35" y="0">l</tspan><tspan class="cls-11" x="93.25" y="0">o</tspan><tspan class="cls-13" x="101.2" y="0">a</tspan><tspan class="cls-11" x="108.44" y="0">d</tspan><tspan class="cls-19" x="116.38" y="0">i</tspan><tspan class="cls-13" x="119.28" y="0">n</tspan><tspan class="cls-17" x="126.52" y="0">g</tspan><tspan class="cls-25" x="134.46" y="0"> </tspan><tspan class="cls-19" x="136.64" y="0">i</tspan><tspan class="cls-26" x="139.54" y="0">s</tspan><tspan class="cls-22" x="146.76" y="0"> </tspan><tspan class="cls-17" x="150.39" y="0">de</tspan><tspan class="cls-27" x="166.27" y="0">f</tspan><tspan class="cls-19" x="170.59" y="0">i</tspan><tspan class="cls-13" x="173.5" y="0">n</tspan><tspan class="cls-19" x="180.74" y="0">i</tspan><tspan class="cls-13" x="183.64" y="0">n</tspan><tspan class="cls-17" x="190.88" y="0">g</tspan><tspan class="cls-25" x="198.82" y="0"> </tspan><tspan class="cls-26" x="201" y="0">s</tspan><tspan class="cls-11" x="208.22" y="0">e</tspan><tspan class="cls-28" x="216.16" y="0">v</tspan><tspan class="cls-11" x="222.67" y="0">e</tspan><tspan class="cls-24" x="230.62" y="0">r</tspan><tspan class="cls-13" x="234.96" y="0">a</tspan><tspan class="cls-19" x="242.2" y="0">l</tspan><tspan x="245.1" y="0"> </tspan></text></g></g><g class="cls-20"><g class="cls-21"><text class="cls-9" transform="translate(7.43 61.74)"><tspan class="cls-29">m</tspan><tspan class="cls-11" x="11.56" y="0">e</tspan><tspan class="cls-22" x="19.51" y="0">t</tspan><tspan class="cls-13" x="23.13" y="0">h</tspan><tspan class="cls-17" x="30.37" y="0">od</tspan><tspan class="cls-26" x="46.25" y="0">s</tspan><tspan class="cls-25" x="53.48" y="0"> </tspan><tspan class="cls-19" x="55.66" y="0">i</tspan><tspan class="cls-13" x="58.56" y="0">n</tspan><tspan class="cls-12" x="65.8" y="0" xml:space="preserve"> t</tspan><tspan class="cls-13" x="73.05" y="0">h</tspan><tspan class="cls-11" x="80.29" y="0">e</tspan><tspan class="cls-12" x="88.23" y="0"> </tspan><tspan class="cls-26" x="91.85" y="0">c</tspan><tspan class="cls-19" x="99.08" y="0">l</tspan><tspan class="cls-30" x="101.98" y="0">a</tspan><tspan class="cls-31" x="109.22" y="0">ss</tspan><tspan class="cls-14" x="123.67" y="0"> </tspan><tspan class="cls-32" x="126.56" y="0">w</tspan><tspan class="cls-19" x="135.97" y="0">i</tspan><tspan class="cls-22" x="138.87" y="0">t</tspan><tspan class="cls-13" x="142.5" y="0">h</tspan><tspan class="cls-27" x="149.74" y="0"> </tspan><tspan class="cls-26" x="154.06" y="0">s</tspan><tspan class="cls-13" x="161.29" y="0">a</tspan><tspan class="cls-33" x="168.53" y="0">m</tspan><tspan class="cls-17" x="180.09" y="0">e</tspan><tspan class="cls-23" x="188.03" y="0"> </tspan><tspan class="cls-30" x="190.93" y="0">na</tspan><tspan class="cls-29" x="205.41" y="0">m</tspan><tspan class="cls-11" x="216.97" y="0">e</tspan><tspan class="cls-23" x="224.91" y="0"> </tspan><tspan class="cls-17" x="227.81" y="0">b</tspan><tspan class="cls-30" x="235.75" y="0">u</tspan><tspan class="cls-12" x="242.99" y="0">t</tspan><tspan x="246.61" y="0"> </tspan></text></g></g><g class="cls-20"><g class="cls-21"><text class="cls-34" transform="translate(7.43 77.64)">d<tspan class="cls-19" x="7.94" y="0">i</tspan><tspan class="cls-27" x="10.84" y="0">ff</tspan><tspan class="cls-11" x="19.49" y="0">e</tspan><tspan class="cls-24" x="27.43" y="0">r</tspan><tspan class="cls-30" x="31.77" y="0">en</tspan><tspan class="cls-12" x="46.25" y="0">t</tspan><tspan class="cls-25" x="49.88" y="0"> </tspan><tspan class="cls-26" x="52.06" y="0">s</tspan><tspan class="cls-19" x="59.28" y="0">i</tspan><tspan class="cls-11" x="62.18" y="0">g</tspan><tspan class="cls-13" x="70.12" y="0">na</tspan><tspan class="cls-22" x="84.6" y="0">t</tspan><tspan class="cls-13" x="88.23" y="0">u</tspan><tspan class="cls-24" x="95.47" y="0">r</tspan><tspan class="cls-11" x="99.81" y="0">e</tspan><tspan class="cls-26" x="107.75" y="0">s</tspan><tspan class="cls-12" x="114.97" y="0">,</tspan><tspan class="cls-14" x="118.6" y="0"> </tspan><tspan class="cls-12" x="121.49" y="0">t</tspan><tspan class="cls-30" x="125.12" y="0">ha</tspan><tspan class="cls-12" x="139.6" y="0">t</tspan><tspan class="cls-27" x="143.22" y="0"> </tspan><tspan class="cls-19" x="147.54" y="0">i</tspan><tspan class="cls-26" x="150.45" y="0">s</tspan><tspan class="cls-22" x="157.67" y="0">, t</tspan><tspan class="cls-30" x="168.54" y="0">h</tspan><tspan x="175.78" y="0">e</tspan><tspan class="cls-22" x="183.72" y="0"> </tspan><tspan class="cls-13" x="187.35" y="0">nu</tspan><tspan class="cls-29" x="201.83" y="0">m</tspan><tspan class="cls-11" x="213.39" y="0">be</tspan><tspan class="cls-35" x="229.27" y="0">r</tspan><tspan class="cls-12" x="232.9" y="0">,</tspan><tspan class="cls-14" x="236.52" y="0"> </tspan><tspan class="cls-12" x="239.42" y="0">t</tspan><tspan class="cls-16" x="243.04" y="0">y</tspan><tspan x="249.55" y="0">pe</tspan><tspan class="cls-36" x="265.44" y="0"> </tspan></text></g></g><g class="cls-20"><g class="cls-21"><text class="cls-9" transform="translate(7.43 93.54)"><tspan class="cls-13">an</tspan><tspan class="cls-11" x="14.48" y="0">d</tspan><tspan class="cls-12" x="22.42" y="0"> </tspan><tspan class="cls-11" x="26.04" y="0">o</tspan><tspan class="cls-24" x="33.99" y="0">r</tspan><tspan class="cls-11" x="38.33" y="0">de</tspan><tspan class="cls-18" x="54.21" y="0">r</tspan><tspan class="cls-23" x="58.55" y="0"> </tspan><tspan class="cls-11" x="61.44" y="0">o</tspan><tspan class="cls-27" x="69.39" y="0">f</tspan><tspan class="cls-25" x="73.71" y="0"> </tspan><tspan class="cls-13" x="75.89" y="0">a</tspan><tspan class="cls-24" x="83.13" y="0">r</tspan><tspan class="cls-11" x="87.47" y="0">g</tspan><tspan class="cls-13" x="95.41" y="0">u</tspan><tspan class="cls-29" x="102.65" y="0">m</tspan><tspan class="cls-11" x="114.22" y="0">e</tspan><tspan class="cls-13" x="122.16" y="0">n</tspan><tspan class="cls-22" x="129.4" y="0">t</tspan><tspan class="cls-26" x="133.02" y="0">s</tspan><tspan class="cls-12" x="140.25" y="0">.</tspan><tspan x="143.87" y="0"> </tspan></text></g></g><g class="cls-37"><g class="cls-38"><text class="cls-9" transform="translate(305.97 45.11)"><tspan class="cls-17">1</tspan><tspan class="cls-22" x="7.94" y="0">. </tspan><tspan class="cls-10" x="15.19" y="0">M</tspan><tspan class="cls-17" x="26.04" y="0">e</tspan><tspan class="cls-22" x="33.98" y="0">t</tspan><tspan class="cls-13" x="37.6" y="0">h</tspan><tspan class="cls-11" x="44.84" y="0">od</tspan><tspan class="cls-23" x="60.73" y="0"> </tspan><tspan class="cls-11" x="63.62" y="0">o</tspan><tspan class="cls-28" x="71.56" y="0">v</tspan><tspan class="cls-11" x="78.07" y="0">e</tspan><tspan class="cls-24" x="86.01" y="0">rr</tspan><tspan class="cls-19" x="94.69" y="0">i</tspan><tspan class="cls-17" x="97.59" y="0">d</tspan><tspan class="cls-19" x="105.54" y="0">i</tspan><tspan class="cls-30" x="108.44" y="0">n</tspan><tspan class="cls-17" x="115.68" y="0">g</tspan><tspan class="cls-23" x="123.62" y="0"> </tspan><tspan class="cls-19" x="126.51" y="0">i</tspan><tspan class="cls-26" x="129.41" y="0">s</tspan><tspan class="cls-23" x="136.64" y="0"> </tspan><tspan class="cls-11" x="139.53" y="0">de</tspan><tspan class="cls-27" x="155.42" y="0">f</tspan><tspan class="cls-19" x="159.74" y="0">i</tspan><tspan class="cls-30" x="162.64" y="0">n</tspan><tspan class="cls-19" x="169.88" y="0">i</tspan><tspan class="cls-13" x="172.78" y="0">n</tspan><tspan class="cls-17" x="180.02" y="0">g</tspan><tspan class="cls-23" x="187.96" y="0"> </tspan><tspan class="cls-22" x="190.86" y="0">t</tspan><tspan class="cls-13" x="194.48" y="0">h</tspan><tspan class="cls-11" x="201.72" y="0">e</tspan><tspan class="cls-12" x="209.66" y="0"> </tspan><tspan class="cls-26" x="213.29" y="0">s</tspan><tspan class="cls-30" x="220.51" y="0">a</tspan><tspan class="cls-29" x="227.75" y="0">m</tspan><tspan class="cls-17" x="239.32" y="0">e</tspan><tspan x="247.26" y="0"> </tspan></text></g></g><g class="cls-37"><g class="cls-38"><text class="cls-9" transform="translate(305.97 61.74)"><tspan class="cls-29">m</tspan><tspan class="cls-11" x="11.56" y="0">e</tspan><tspan class="cls-22" x="19.51" y="0">t</tspan><tspan class="cls-13" x="23.13" y="0">h</tspan><tspan class="cls-17" x="30.37" y="0">od</tspan><tspan class="cls-25" x="46.25" y="0"> </tspan><tspan class="cls-13" x="48.43" y="0">a</tspan><tspan class="cls-26" x="55.67" y="0">s</tspan><tspan class="cls-12" x="62.9" y="0"> </tspan><tspan class="cls-19" x="66.52" y="0">i</tspan><tspan class="cls-30" x="69.42" y="0">n</tspan><tspan class="cls-27" x="76.66" y="0"> </tspan><tspan class="cls-17" x="80.99" y="0">p</tspan><tspan class="cls-13" x="88.93" y="0">a</tspan><tspan class="cls-18" x="96.17" y="0">r</tspan><tspan class="cls-17" x="100.51" y="0">e</tspan><tspan class="cls-13" x="108.45" y="0">n</tspan><tspan class="cls-22" x="115.69" y="0">t</tspan><tspan class="cls-23" x="119.31" y="0"> </tspan><tspan class="cls-26" x="122.21" y="0">c</tspan><tspan class="cls-19" x="129.43" y="0">l</tspan><tspan class="cls-13" x="132.33" y="0">a</tspan><tspan class="cls-26" x="139.57" y="0">ss</tspan><tspan class="cls-22" x="154.02" y="0">,</tspan><tspan class="cls-23" x="157.65" y="0"> </tspan><tspan class="cls-19" x="160.54" y="0">i</tspan><tspan class="cls-13" x="163.44" y="0">n</tspan><tspan class="cls-27" x="170.68" y="0"> </tspan><tspan class="cls-22" x="175.01" y="0">t</tspan><tspan class="cls-13" x="178.63" y="0">h</tspan><tspan class="cls-11" x="185.87" y="0">e</tspan><tspan class="cls-12" x="193.81" y="0"> </tspan><tspan class="cls-26" x="197.44" y="0">s</tspan><tspan class="cls-13" x="204.66" y="0">u</tspan><tspan class="cls-11" x="211.9" y="0">b</tspan><tspan class="cls-26" x="219.84" y="0">c</tspan><tspan class="cls-19" x="227.07" y="0">l</tspan><tspan class="cls-13" x="229.97" y="0">a</tspan><tspan class="cls-26" x="237.21" y="0">ss</tspan><tspan class="cls-25" x="251.66" y="0"> </tspan><tspan class="cls-39" x="253.84" y="0">w</tspan><tspan class="cls-40" x="263.25" y="0">i</tspan><tspan class="cls-22" x="266.15" y="0">t</tspan><tspan class="cls-13" x="269.77" y="0">h</tspan><tspan x="277.01" y="0"> </tspan></text></g></g><g class="cls-37"><g class="cls-38"><text class="cls-9" transform="translate(305.97 77.64)"><tspan class="cls-26">s</tspan><tspan class="cls-13" x="7.22" y="0">a</tspan><tspan class="cls-33" x="14.46" y="0">m</tspan><tspan class="cls-17" x="26.03" y="0">e</tspan><tspan class="cls-23" x="33.97" y="0"> </tspan><tspan class="cls-30" x="36.87" y="0">na</tspan><tspan class="cls-29" x="51.35" y="0">m</tspan><tspan class="cls-11" x="62.91" y="0">e</tspan><tspan class="cls-23" x="70.85" y="0"> </tspan><tspan class="cls-13" x="73.75" y="0">an</tspan><tspan class="cls-11" x="88.23" y="0">d</tspan><tspan class="cls-12" x="96.17" y="0"> </tspan><tspan class="cls-26" x="99.79" y="0">s</tspan><tspan class="cls-19" x="107.02" y="0">i</tspan><tspan class="cls-11" x="109.92" y="0">g</tspan><tspan class="cls-13" x="117.86" y="0">na</tspan><tspan class="cls-22" x="132.34" y="0">t</tspan><tspan class="cls-13" x="135.96" y="0">u</tspan><tspan class="cls-24" x="143.21" y="0">r</tspan><tspan class="cls-11" x="147.54" y="0">e</tspan><tspan x="155.49" y="0">.</tspan></text></g></g><g class="cls-41"><g class="cls-42"><text class="cls-9" transform="translate(7.43 116.82)"><tspan class="cls-17">2</tspan><tspan class="cls-22" x="7.94" y="0">.</tspan><tspan x="11.56" y="0"> </tspan></text></g></g><g class="cls-7"><g class="cls-8"><text class="cls-9" transform="translate(21.88 116.82)"><tspan class="cls-43">T</tspan><tspan class="cls-30" x="8.66" y="0">h</tspan><tspan class="cls-17" x="15.91" y="0">e</tspan><tspan class="cls-16" x="23.85" y="0">y</tspan><tspan class="cls-12" x="30.36" y="0"> </tspan><tspan class="cls-30" x="33.98" y="0">a</tspan><tspan class="cls-24" x="41.22" y="0">r</tspan><tspan class="cls-11" x="45.56" y="0">e</tspan><tspan class="cls-12" x="53.5" y="0"> </tspan><tspan class="cls-11" x="57.13" y="0">e</tspan><tspan class="cls-13" x="65.07" y="0">a</tspan><tspan class="cls-24" x="72.31" y="0">r</tspan><tspan class="cls-19" x="76.65" y="0">l</tspan><tspan class="cls-16" x="79.55" y="0">y</tspan><tspan x="86.06" y="0"> </tspan></text></g><g class="cls-7"><g class="cls-8"><text class="cls-9" transform="translate(111.52 116.82)"><tspan class="cls-17">b</tspan><tspan class="cls-19" x="7.94" y="0">i</tspan><tspan class="cls-30" x="10.84" y="0">n</tspan><tspan class="cls-17" x="18.08" y="0">de</tspan><tspan x="33.96" y="0">d</tspan></text></g><g class="cls-7"><g class="cls-8"><text class="cls-44" transform="translate(153.45 116.82)">.<tspan class="cls-36" x="3.62" y="0"> </tspan></text></g></g></g></g><g class="cls-45"><g class="cls-46"><text class="cls-9" transform="translate(305.97 116.82)"><tspan class="cls-17">2</tspan><tspan class="cls-22" x="7.94" y="0">.</tspan><tspan x="11.56" y="0"> </tspan></text></g></g><g class="cls-7"><g class="cls-8"><text class="cls-47" transform="translate(320.43 116.82)">T<tspan class="cls-30" x="8.66" y="0">h</tspan><tspan class="cls-17" x="15.91" y="0">e</tspan><tspan class="cls-16" x="23.85" y="0">y</tspan><tspan class="cls-12" x="30.36" y="0"> </tspan><tspan class="cls-30" x="33.98" y="0">a</tspan><tspan class="cls-24" x="41.22" y="0">r</tspan><tspan class="cls-11" x="45.56" y="0">e</tspan><tspan class="cls-12" x="53.5" y="0"> </tspan><tspan class="cls-19" x="57.13" y="0">l</tspan><tspan class="cls-13" x="60.03" y="0">a</tspan><tspan class="cls-22" x="67.27" y="0">t</tspan><tspan class="cls-11" x="70.89" y="0">e</tspan><tspan class="cls-36" x="78.83" y="0"> </tspan></text></g><g class="cls-7"><g class="cls-8"><text class="cls-9" transform="translate(402.84 116.82)"><tspan class="cls-17">b</tspan><tspan class="cls-19" x="7.94" y="0">i</tspan><tspan class="cls-30" x="10.84" y="0">n</tspan><tspan class="cls-17" x="18.08" y="0">de</tspan><tspan x="33.96" y="0">d</tspan></text></g><g class="cls-7"><g class="cls-8"><text class="cls-9" transform="translate(444.76 116.82)">.</text></g></g></g></g><g class="cls-48"><g class="cls-49"><text class="cls-9" transform="translate(7.43 144.97)"><tspan class="cls-17">3</tspan><tspan class="cls-22" x="7.94" y="0">.</tspan><tspan class="cls-23" x="11.56" y="0"> </tspan><tspan class="cls-50" x="14.46" y="0">T</tspan><tspan class="cls-13" x="23.13" y="0">h</tspan><tspan class="cls-11" x="30.37" y="0">e</tspan><tspan class="cls-23" x="38.31" y="0"> </tspan><tspan class="cls-28" x="41.2" y="0">v</tspan><tspan class="cls-11" x="47.71" y="0">e</tspan><tspan class="cls-24" x="55.65" y="0">r</tspan><tspan class="cls-26" x="59.99" y="0">s</tspan><tspan class="cls-19" x="67.22" y="0">i</tspan><tspan class="cls-11" x="70.12" y="0">o</tspan><tspan class="cls-13" x="78.06" y="0">n</tspan><tspan class="cls-22" x="85.3" y="0"> </tspan><tspan class="cls-17" x="88.92" y="0">o</tspan><tspan class="cls-27" x="96.86" y="0">f</tspan><tspan class="cls-25" x="101.19" y="0"> </tspan><tspan class="cls-22" x="103.37" y="0">t</tspan><tspan class="cls-13" x="106.99" y="0">h</tspan><tspan class="cls-17" x="114.23" y="0">e</tspan><tspan class="cls-22" x="122.17" y="0"> </tspan><tspan class="cls-29" x="125.8" y="0">m</tspan><tspan class="cls-11" x="137.36" y="0">e</tspan><tspan class="cls-22" x="145.3" y="0">t</tspan><tspan class="cls-13" x="148.93" y="0">h</tspan><tspan class="cls-17" x="156.17" y="0">od</tspan><tspan class="cls-25" x="172.05" y="0"> </tspan><tspan class="cls-12" x="174.23" y="0">t</tspan><tspan class="cls-13" x="177.86" y="0">ha</tspan><tspan class="cls-12" x="192.34" y="0">t</tspan><tspan class="cls-51" x="195.96" y="0"> </tspan><tspan class="cls-32" x="201.01" y="0">w</tspan><tspan class="cls-19" x="210.42" y="0">ill</tspan><tspan class="cls-27" x="219.12" y="0"> </tspan><tspan class="cls-11" x="223.45" y="0">be</tspan><tspan class="cls-23" x="239.33" y="0"> </tspan><tspan class="cls-22" x="242.23" y="0"> </tspan><tspan class="cls-26" x="245.85" y="0">c</tspan><tspan class="cls-13" x="253.07" y="0">a</tspan><tspan class="cls-19" x="260.31" y="0">ll</tspan><tspan class="cls-11" x="266.12" y="0">ed</tspan><tspan x="282" y="0"> </tspan></text></g></g><g class="cls-48"><g class="cls-49"><text class="cls-34" transform="translate(7.43 161.59)">depe<tspan class="cls-13" x="31.76" y="0">n</tspan><tspan class="cls-11" x="39" y="0">d</tspan><tspan class="cls-28" x="46.95" y="0">s</tspan><tspan class="cls-25" x="53.46" y="0"> </tspan><tspan x="55.64" y="0">o</tspan><tspan class="cls-30" x="63.58" y="0">n</tspan><tspan class="cls-23" x="70.82" y="0"> </tspan><tspan class="cls-22" x="73.71" y="0">t</tspan><tspan class="cls-13" x="77.34" y="0">h</tspan><tspan x="84.58" y="0">e</tspan><tspan class="cls-22" x="92.52" y="0"> </tspan><tspan class="cls-26" x="96.14" y="0">s</tspan><tspan class="cls-19" x="103.37" y="0">i</tspan><tspan x="106.27" y="0">g</tspan><tspan class="cls-13" x="114.21" y="0">na</tspan><tspan class="cls-12" x="128.69" y="0">t</tspan><tspan class="cls-30" x="132.31" y="0">u</tspan><tspan class="cls-24" x="139.55" y="0">r</tspan><tspan x="143.89" y="0">e</tspan><tspan class="cls-22" x="151.83" y="0"> </tspan><tspan class="cls-11" x="155.46" y="0">o</tspan><tspan class="cls-27" x="163.4" y="0">f</tspan><tspan class="cls-23" x="167.72" y="0"> </tspan><tspan class="cls-22" x="170.62" y="0">t</tspan><tspan class="cls-13" x="174.24" y="0">h</tspan><tspan x="181.48" y="0">e</tspan><tspan class="cls-22" x="189.42" y="0"> </tspan><tspan class="cls-29" x="193.05" y="0">m</tspan><tspan class="cls-11" x="204.61" y="0">e</tspan><tspan class="cls-12" x="212.55" y="0">t</tspan><tspan class="cls-30" x="216.18" y="0">h</tspan><tspan x="223.42" y="0">od</tspan><tspan class="cls-36" x="239.3" y="0">.</tspan></text></g></g><g class="cls-52"><g class="cls-53"><text class="cls-9" transform="translate(305.97 144.97)"><tspan class="cls-17">3</tspan><tspan class="cls-22" x="7.94" y="0">. </tspan><tspan class="cls-23" x="15.19" y="0"> </tspan><tspan class="cls-50" x="18.08" y="0">T</tspan><tspan class="cls-13" x="26.75" y="0">h</tspan><tspan class="cls-17" x="33.99" y="0">e</tspan><tspan class="cls-22" x="41.93" y="0"> </tspan><tspan class="cls-28" x="45.55" y="0">v</tspan><tspan class="cls-11" x="52.06" y="0">e</tspan><tspan class="cls-24" x="60" y="0">r</tspan><tspan class="cls-26" x="64.34" y="0">s</tspan><tspan class="cls-19" x="71.57" y="0">i</tspan><tspan class="cls-11" x="74.47" y="0">o</tspan><tspan class="cls-13" x="82.41" y="0">n</tspan><tspan class="cls-23" x="89.65" y="0"> </tspan><tspan class="cls-11" x="92.55" y="0">o</tspan><tspan class="cls-27" x="100.49" y="0">f</tspan><tspan class="cls-25" x="104.81" y="0"> </tspan><tspan class="cls-12" x="106.99" y="0">t</tspan><tspan class="cls-13" x="110.62" y="0">h</tspan><tspan class="cls-11" x="117.86" y="0">e</tspan><tspan class="cls-22" x="125.8" y="0"> </tspan><tspan class="cls-29" x="129.42" y="0">m</tspan><tspan class="cls-11" x="140.99" y="0">e</tspan><tspan class="cls-12" x="148.93" y="0">t</tspan><tspan class="cls-13" x="152.55" y="0">h</tspan><tspan class="cls-11" x="159.79" y="0">od</tspan><tspan class="cls-14" x="175.67" y="0"> </tspan><tspan class="cls-12" x="178.57" y="0">t</tspan><tspan class="cls-13" x="182.19" y="0">ha</tspan><tspan class="cls-12" x="196.67" y="0">t</tspan><tspan class="cls-27" x="200.3" y="0"> </tspan><tspan class="cls-39" x="204.62" y="0">w</tspan><tspan class="cls-19" x="214.03" y="0">ill</tspan><tspan class="cls-27" x="222.73" y="0"> </tspan><tspan class="cls-17" x="227.06" y="0">be</tspan><tspan class="cls-23" x="242.94" y="0"> </tspan><tspan class="cls-26" x="245.84" y="0">c</tspan><tspan class="cls-13" x="253.06" y="0">a</tspan><tspan class="cls-19" x="260.3" y="0">ll</tspan><tspan class="cls-11" x="266.1" y="0">ed</tspan><tspan x="281.98" y="0"> </tspan></text></g></g><g class="cls-52"><g class="cls-53"><text class="cls-9" transform="translate(305.97 161.59)"><tspan class="cls-17">depe</tspan><tspan class="cls-13" x="31.76" y="0">n</tspan><tspan class="cls-11" x="39" y="0">d</tspan><tspan class="cls-28" x="46.95" y="0">s</tspan><tspan class="cls-25" x="53.46" y="0"> </tspan><tspan class="cls-17" x="55.64" y="0">o</tspan><tspan class="cls-30" x="63.58" y="0">n</tspan><tspan class="cls-23" x="70.82" y="0"> </tspan><tspan class="cls-22" x="73.71" y="0">t</tspan><tspan class="cls-13" x="77.34" y="0">h</tspan><tspan class="cls-17" x="84.58" y="0">e</tspan><tspan class="cls-22" x="92.52" y="0" xml:space="preserve"> t</tspan><tspan class="cls-28" x="99.77" y="0">y</tspan><tspan class="cls-11" x="106.28" y="0">pe</tspan><tspan class="cls-22" x="122.16" y="0"> </tspan><tspan class="cls-17" x="125.78" y="0">o</tspan><tspan class="cls-27" x="133.72" y="0">f</tspan><tspan class="cls-25" x="138.05" y="0"> </tspan><tspan class="cls-11" x="140.23" y="0">ob</tspan><tspan class="cls-19" x="156.11" y="0">j</tspan><tspan class="cls-17" x="159.01" y="0">e</tspan><tspan class="cls-26" x="166.95" y="0">c</tspan><tspan class="cls-22" x="174.18" y="0">t</tspan><tspan class="cls-25" x="177.8" y="0"> </tspan><tspan class="cls-27" x="179.98" y="0">f</tspan><tspan class="cls-18" x="184.31" y="0">r</tspan><tspan class="cls-17" x="188.65" y="0">o</tspan><tspan class="cls-29" x="196.59" y="0">m</tspan><tspan class="cls-25" x="208.15" y="0"> </tspan><tspan class="cls-39" x="210.33" y="0">w</tspan><tspan class="cls-13" x="219.74" y="0">h</tspan><tspan class="cls-19" x="226.98" y="0">i</tspan><tspan class="cls-26" x="229.88" y="0">c</tspan><tspan class="cls-13" x="237.11" y="0">h</tspan><tspan class="cls-27" x="244.35" y="0"> </tspan><tspan class="cls-22" x="248.67" y="0">t</tspan><tspan class="cls-13" x="252.3" y="0">h</tspan><tspan class="cls-17" x="259.54" y="0">e</tspan><tspan x="267.48" y="0"> </tspan></text></g></g><g class="cls-52"><g class="cls-53"><text class="cls-9" transform="translate(305.97 177.49)"><tspan class="cls-29">m</tspan><tspan class="cls-11" x="11.56" y="0">e</tspan><tspan class="cls-22" x="19.51" y="0">t</tspan><tspan class="cls-13" x="23.13" y="0">h</tspan><tspan class="cls-17" x="30.37" y="0">od</tspan><tspan class="cls-25" x="46.25" y="0"> </tspan><tspan class="cls-19" x="48.43" y="0">i</tspan><tspan class="cls-26" x="51.33" y="0">s</tspan><tspan class="cls-12" x="58.56" y="0"> </tspan><tspan class="cls-26" x="62.18" y="0">c</tspan><tspan class="cls-13" x="69.41" y="0">a</tspan><tspan class="cls-19" x="76.65" y="0">ll</tspan><tspan class="cls-11" x="82.45" y="0">ed</tspan><tspan x="98.33" y="0">.</tspan></text></g></g><g class="cls-54"><g class="cls-55"><text class="cls-9" transform="translate(7.43 200.48)"><tspan class="cls-17">4</tspan><tspan class="cls-22" x="7.94" y="0">.</tspan><tspan x="11.56" y="0"> </tspan></text></g></g><g class="cls-7"><g class="cls-8"><text class="cls-9" transform="translate(22.6 200.48)"><tspan class="cls-10">M</tspan><tspan class="cls-11" x="10.85" y="0">e</tspan><tspan class="cls-12" x="18.79" y="0">t</tspan><tspan class="cls-13" x="22.42" y="0">h</tspan><tspan class="cls-11" x="29.66" y="0">od</tspan><tspan class="cls-14" x="45.54" y="0"> </tspan><tspan class="cls-17" x="48.43" y="0">o</tspan><tspan class="cls-16" x="56.37" y="0">v</tspan><tspan class="cls-17" x="62.88" y="0">e</tspan><tspan class="cls-18" x="70.83" y="0">r</tspan><tspan class="cls-19" x="75.17" y="0">l</tspan><tspan class="cls-17" x="78.07" y="0">o</tspan><tspan class="cls-13" x="86.01" y="0">a</tspan><tspan class="cls-11" x="93.25" y="0">d</tspan><tspan class="cls-19" x="101.19" y="0">i</tspan><tspan class="cls-13" x="104.09" y="0">n</tspan><tspan class="cls-17" x="111.33" y="0">g</tspan><tspan class="cls-25" x="119.27" y="0"> </tspan><tspan class="cls-19" x="121.45" y="0">i</tspan><tspan class="cls-26" x="124.35" y="0">s</tspan><tspan class="cls-22" x="131.58" y="0"> </tspan><tspan class="cls-13" x="135.2" y="0">an</tspan><tspan class="cls-27" x="149.68" y="0"> </tspan><tspan class="cls-11" x="154" y="0">e</tspan><tspan class="cls-28" x="161.95" y="0">x</tspan><tspan class="cls-13" x="168.46" y="0">a</tspan><tspan class="cls-33" x="175.7" y="0">m</tspan><tspan class="cls-17" x="187.26" y="0">p</tspan><tspan class="cls-19" x="195.2" y="0">l</tspan><tspan class="cls-11" x="198.1" y="0">e</tspan><tspan class="cls-25" x="206.04" y="0"> </tspan><tspan class="cls-17" x="208.23" y="0">o</tspan><tspan class="cls-27" x="216.17" y="0">f</tspan><tspan x="220.49" y="0"> </tspan></text></g></g><g class="cls-54"><g class="cls-55"><text class="cls-9" transform="translate(7.43 217.11)"><tspan class="cls-26">c</tspan><tspan class="cls-17" x="7.22" y="0">o</tspan><tspan class="cls-33" x="15.17" y="0">m</tspan><tspan class="cls-17" x="26.73" y="0">p</tspan><tspan class="cls-19" x="34.67" y="0">il</tspan><tspan class="cls-11" x="40.47" y="0">e</tspan><tspan class="cls-25" x="48.41" y="0"> </tspan><tspan class="cls-12" x="50.59" y="0">t</tspan><tspan class="cls-19" x="54.22" y="0">i</tspan><tspan class="cls-33" x="57.12" y="0">m</tspan><tspan class="cls-17" x="68.68" y="0">e</tspan><tspan class="cls-14" x="76.62" y="0"> </tspan><tspan class="cls-17" x="79.52" y="0">po</tspan><tspan class="cls-19" x="95.4" y="0">l</tspan><tspan class="cls-16" x="98.3" y="0">y</tspan><tspan class="cls-33" x="104.81" y="0">m</tspan><tspan class="cls-17" x="116.38" y="0">o</tspan><tspan class="cls-24" x="124.32" y="0">r</tspan><tspan class="cls-11" x="128.66" y="0">p</tspan><tspan class="cls-13" x="136.6" y="0">h</tspan><tspan class="cls-19" x="143.84" y="0">i</tspan><tspan class="cls-26" x="146.74" y="0">s</tspan><tspan class="cls-10" x="153.96" y="0">m</tspan><tspan class="cls-22" x="164.82" y="0"> </tspan><tspan class="cls-17" x="168.44" y="0">b</tspan><tspan class="cls-13" x="176.38" y="0">e</tspan><tspan class="cls-26" x="183.62" y="0">c</tspan><tspan class="cls-30" x="190.84" y="0">au</tspan><tspan class="cls-26" x="205.33" y="0">s</tspan><tspan class="cls-13" x="212.55" y="0">e</tspan><tspan class="cls-25" x="219.79" y="0"> </tspan><tspan class="cls-17" x="221.97" y="0">b</tspan><tspan class="cls-19" x="229.91" y="0">i</tspan><tspan class="cls-13" x="232.81" y="0">n</tspan><tspan class="cls-11" x="240.05" y="0">d</tspan><tspan class="cls-19" x="248" y="0">i</tspan><tspan class="cls-13" x="250.9" y="0">n</tspan><tspan class="cls-11" x="258.14" y="0">g</tspan><tspan class="cls-56" x="266.08" y="0"> </tspan><tspan class="cls-19" x="268.26" y="0">i</tspan><tspan class="cls-26" x="271.16" y="0">s</tspan><tspan x="278.38" y="0"> </tspan></text></g></g><g class="cls-54"><g class="cls-55"><text class="cls-9" transform="translate(7.43 233.02)"><tspan class="cls-17">do</tspan><tspan class="cls-13" x="15.88" y="0">n</tspan><tspan class="cls-11" x="23.12" y="0">e</tspan><tspan class="cls-56" x="31.06" y="0"> </tspan><tspan class="cls-11" x="33.24" y="0">b</tspan><tspan class="cls-16" x="41.19" y="0">y</tspan><tspan class="cls-12" x="47.7" y="0" xml:space="preserve"> t</tspan><tspan class="cls-13" x="54.94" y="0">h</tspan><tspan class="cls-11" x="62.18" y="0">e</tspan><tspan class="cls-12" x="70.13" y="0"> </tspan><tspan class="cls-26" x="73.75" y="0">c</tspan><tspan class="cls-11" x="80.97" y="0">o</tspan><tspan class="cls-29" x="88.91" y="0">m</tspan><tspan class="cls-11" x="100.48" y="0">p</tspan><tspan class="cls-19" x="108.42" y="0">il</tspan><tspan class="cls-17" x="114.22" y="0">e</tspan><tspan class="cls-18" x="122.16" y="0">r</tspan><tspan class="cls-56" x="126.5" y="0"> </tspan><tspan class="cls-30" x="128.68" y="0">a</tspan><tspan class="cls-12" x="135.92" y="0">t </tspan><tspan class="cls-26" x="143.17" y="0">c</tspan><tspan class="cls-17" x="150.4" y="0">o</tspan><tspan class="cls-33" x="158.34" y="0">m</tspan><tspan class="cls-17" x="169.9" y="0">p</tspan><tspan class="cls-19" x="177.84" y="0">il</tspan><tspan class="cls-11" x="183.64" y="0">e</tspan><tspan class="cls-25" x="191.58" y="0"> </tspan><tspan class="cls-12" x="193.77" y="0">t</tspan><tspan class="cls-19" x="197.39" y="0">i</tspan><tspan class="cls-33" x="200.29" y="0">m</tspan><tspan class="cls-17" x="211.85" y="0">e</tspan><tspan x="219.79" y="0">.</tspan></text></g></g><g class="cls-57"><g class="cls-58"><text class="cls-9" transform="translate(305.97 200.48)"><tspan class="cls-17">4</tspan><tspan class="cls-22" x="7.94" y="0">.</tspan><tspan x="11.56" y="0"> </tspan></text></g></g><g class="cls-7"><g class="cls-8"><text class="cls-59" transform="translate(321.15 200.48)">M<tspan class="cls-11" x="10.85" y="0">e</tspan><tspan class="cls-12" x="18.79" y="0">t</tspan><tspan class="cls-13" x="22.42" y="0">h</tspan><tspan class="cls-11" x="29.66" y="0">od</tspan><tspan class="cls-14" x="45.54" y="0"> </tspan><tspan class="cls-17" x="48.43" y="0">o</tspan><tspan class="cls-16" x="56.37" y="0">v</tspan><tspan class="cls-17" x="62.88" y="0">e</tspan><tspan class="cls-18" x="70.83" y="0">rr</tspan><tspan class="cls-19" x="79.51" y="0">i</tspan><tspan class="cls-11" x="82.41" y="0">d</tspan><tspan class="cls-19" x="90.35" y="0">i</tspan><tspan class="cls-13" x="93.25" y="0">n</tspan><tspan class="cls-17" x="100.49" y="0">g</tspan><tspan class="cls-23" x="108.43" y="0"> </tspan><tspan class="cls-19" x="111.32" y="0">i</tspan><tspan class="cls-26" x="114.22" y="0">s</tspan><tspan class="cls-14" x="121.45" y="0"> </tspan><tspan class="cls-13" x="124.35" y="0">an</tspan><tspan class="cls-27" x="138.83" y="0"> </tspan><tspan class="cls-17" x="143.15" y="0">e</tspan><tspan class="cls-16" x="151.09" y="0">x</tspan><tspan class="cls-13" x="157.6" y="0">a</tspan><tspan class="cls-33" x="164.84" y="0">m</tspan><tspan class="cls-17" x="176.41" y="0">p</tspan><tspan class="cls-19" x="184.35" y="0">l</tspan><tspan class="cls-11" x="187.25" y="0">e</tspan><tspan class="cls-23" x="195.19" y="0"> </tspan><tspan class="cls-17" x="198.08" y="0">o</tspan><tspan class="cls-27" x="206.03" y="0">f</tspan><tspan class="cls-25" x="210.35" y="0"> </tspan><tspan class="cls-18" x="212.53" y="0">r</tspan><tspan class="cls-13" x="216.87" y="0">un</tspan><tspan class="cls-22" x="231.35" y="0">t</tspan><tspan class="cls-19" x="234.98" y="0">i</tspan><tspan class="cls-29" x="237.88" y="0">m</tspan><tspan class="cls-11" x="249.44" y="0">e</tspan><tspan class="cls-36" x="257.38" y="0"> </tspan></text></g></g><g class="cls-57"><g class="cls-58"><text class="cls-9" transform="translate(305.97 217.11)"><tspan class="cls-17">po</tspan><tspan class="cls-19" x="15.88" y="0">l</tspan><tspan class="cls-16" x="18.78" y="0">y</tspan><tspan class="cls-29" x="25.29" y="0">m</tspan><tspan class="cls-17" x="36.86" y="0">o</tspan><tspan class="cls-18" x="44.8" y="0">r</tspan><tspan class="cls-17" x="49.14" y="0">p</tspan><tspan class="cls-30" x="57.08" y="0">h</tspan><tspan class="cls-19" x="64.32" y="0">i</tspan><tspan class="cls-26" x="67.22" y="0">s</tspan><tspan class="cls-29" x="74.45" y="0">m</tspan><tspan class="cls-25" x="86.01" y="0"> </tspan><tspan class="cls-17" x="88.19" y="0">be</tspan><tspan class="cls-26" x="104.07" y="0">c</tspan><tspan class="cls-13" x="111.3" y="0">au</tspan><tspan class="cls-26" x="125.78" y="0">s</tspan><tspan class="cls-13" x="133" y="0">e</tspan><tspan class="cls-25" x="140.24" y="0"> </tspan><tspan class="cls-11" x="142.42" y="0">b</tspan><tspan class="cls-19" x="150.37" y="0">i</tspan><tspan class="cls-13" x="153.27" y="0">n</tspan><tspan class="cls-17" x="160.51" y="0">d</tspan><tspan class="cls-19" x="168.45" y="0">i</tspan><tspan class="cls-13" x="171.35" y="0">n</tspan><tspan class="cls-11" x="178.59" y="0">g</tspan><tspan class="cls-23" x="186.53" y="0"> </tspan><tspan class="cls-19" x="189.42" y="0">i</tspan><tspan class="cls-26" x="192.33" y="0">s</tspan><tspan class="cls-23" x="199.55" y="0"> </tspan><tspan class="cls-11" x="202.45" y="0">do</tspan><tspan class="cls-13" x="218.33" y="0">n</tspan><tspan class="cls-11" x="225.57" y="0">e</tspan><tspan class="cls-23" x="233.51" y="0"> </tspan><tspan class="cls-11" x="236.4" y="0">b</tspan><tspan class="cls-28" x="244.35" y="0">y</tspan><tspan class="cls-22" x="250.86" y="0" xml:space="preserve"> t</tspan><tspan class="cls-13" x="258.1" y="0">h</tspan><tspan class="cls-17" x="265.34" y="0">e</tspan><tspan x="273.28" y="0"> </tspan></text></g></g><g class="cls-57"><g class="cls-58"><text class="cls-60" transform="translate(305.97 233.02)">J<tspan class="cls-61" x="7.22" y="0">V</tspan><tspan class="cls-10" x="16.62" y="0">M</tspan><tspan class="cls-23" x="27.47" y="0"> </tspan><tspan class="cls-30" x="30.37" y="0">a</tspan><tspan class="cls-12" x="37.61" y="0">t</tspan><tspan class="cls-27" x="41.23" y="0"> </tspan><tspan class="cls-18" x="45.55" y="0">r</tspan><tspan class="cls-13" x="49.89" y="0">un</tspan><tspan class="cls-22" x="64.38" y="0">t</tspan><tspan class="cls-19" x="68" y="0">i</tspan><tspan class="cls-29" x="70.9" y="0">m</tspan><tspan class="cls-11" x="82.46" y="0">e</tspan><tspan class="cls-36" x="90.41" y="0">.</tspan></text></g></g></g></g></svg>