<svg xmlns="http://www.w3.org/2000/svg" xmlns:xlink="http://www.w3.org/1999/xlink" viewBox="0 0 595.66 236.35"><defs><style>.cls-1,.cls-2,.cls-3,.cls-5,.cls-6{fill:none;}.cls-1{clip-rule:evenodd;}.cls-3,.cls-4{fill-rule:evenodd;}.cls-4{fill:#a5a5a5;}.cls-4,.cls-5,.cls-6{opacity:0.2;}.cls-5,.cls-6{stroke:#a5a5a5;stroke-linejoin:round;}.cls-5{stroke-width:0.96px;}.cls-6{stroke-width:1.92px;}.cls-7{clip-path:url(#clip-path);}.cls-8{clip-path:url(#clip-path-2);}.cls-21,.cls-25,.cls-52,.cls-9{font-size:13.68px;font-family:ArialMT, Arial;}.cls-27,.cls-9{letter-spacing:0.02em;}.cls-10{letter-spacing:-0.02em;}.cls-11,.cls-52{letter-spacing:0.02em;}.cls-12{letter-spacing:0.03em;}.cls-13{letter-spacing:-0.03em;}.cls-14{letter-spacing:-0.02em;}.cls-15{letter-spacing:-0.01em;}.cls-16{letter-spacing:-0.12em;}.cls-17{letter-spacing:0.02em;}.cls-18{letter-spacing:0.01em;}.cls-19{letter-spacing:-0.01em;}.cls-20{letter-spacing:0em;}.cls-21,.cls-69{letter-spacing:0.01em;}.cls-22{letter-spacing:0em;}.cls-23{clip-path:url(#clip-path-5);}.cls-24{clip-path:url(#clip-path-6);}.cls-26{letter-spacing:-0.01em;}.cls-28{letter-spacing:0.02em;}.cls-29{letter-spacing:-0.01em;}.cls-30{letter-spacing:0.04em;}.cls-31{letter-spacing:0.04em;}.cls-32{letter-spacing:0.03em;}.cls-33{letter-spacing:-0.07em;}.cls-34{clip-path:url(#clip-path-9);}.cls-35{clip-path:url(#clip-path-10);}.cls-36{letter-spacing:-0.03em;}.cls-37{letter-spacing:-0.03em;}.cls-38{letter-spacing:-0.01em;}.cls-39{clip-path:url(#clip-path-11);}.cls-40{clip-path:url(#clip-path-12);}.cls-41{letter-spacing:0.01em;}.cls-42{clip-path:url(#clip-path-13);}.cls-43{clip-path:url(#clip-path-14);}.cls-44{clip-path:url(#clip-path-15);}.cls-45{clip-path:url(#clip-path-16);}.cls-46{letter-spacing:-0.07em;}.cls-47{clip-path:url(#clip-path-17);}.cls-48{clip-path:url(#clip-path-18);}.cls-49{letter-spacing:0.01em;}.cls-50{clip-path:url(#clip-path-19);}.cls-51{clip-path:url(#clip-path-20);}.cls-53{letter-spacing:0.02em;}.cls-54{clip-path:url(#clip-path-21);}.cls-55{clip-path:url(#clip-path-22);}.cls-56{letter-spacing:-0.04em;}.cls-57{clip-path:url(#clip-path-23);}.cls-58{clip-path:url(#clip-path-24);}.cls-59{letter-spacing:-0.04em;}.cls-60{clip-path:url(#clip-path-29);}.cls-61{clip-path:url(#clip-path-30);}.cls-62{letter-spacing:0.02em;}.cls-63{clip-path:url(#clip-path-35);}.cls-64{clip-path:url(#clip-path-36);}.cls-65{letter-spacing:0.01em;}.cls-66{letter-spacing:-0.03em;}.cls-67{clip-path:url(#clip-path-37);}.cls-68{clip-path:url(#clip-path-38);}.cls-70{clip-path:url(#clip-path-39);}.cls-71{clip-path:url(#clip-path-40);}.cls-72{letter-spacing:0.01em;}.cls-73{clip-path:url(#clip-path-41);}.cls-74{clip-path:url(#clip-path-42);}.cls-75{letter-spacing:-0.03em;}.cls-76{letter-spacing:0.02em;}.cls-77{letter-spacing:0em;}.cls-78{letter-spacing:-0.07em;}</style><clipPath id="clip-path" transform="translate(-0.48 -0.6)"><polygon class="cls-1" points="0 237.6 597.6 237.6 597.6 0 0 0 0 237.6 0 237.6"/></clipPath><clipPath id="clip-path-2" transform="translate(-0.48 -0.6)"><rect class="cls-2" width="597.6" height="237.6"/></clipPath><clipPath id="clip-path-5" transform="translate(-0.48 -0.6)"><polygon class="cls-1" points="0.72 162 298.8 162 298.8 0 0.72 0 0.72 162 0.72 162"/></clipPath><clipPath id="clip-path-6" transform="translate(-0.48 -0.6)"><rect class="cls-2" x="0.72" width="298.08" height="162"/></clipPath><clipPath id="clip-path-9" transform="translate(-0.48 -0.6)"><polygon class="cls-1" points="298.08 97.2 596.16 97.2 596.16 0 298.08 0 298.08 97.2 298.08 97.2"/></clipPath><clipPath id="clip-path-10" transform="translate(-0.48 -0.6)"><rect class="cls-2" x="298.08" width="298.08" height="97.2"/></clipPath><clipPath id="clip-path-11" transform="translate(-0.48 -0.6)"><polygon class="cls-1" points="0.72 136.8 298.8 136.8 298.8 23.04 0.72 23.04 0.72 136.8 0.72 136.8"/></clipPath><clipPath id="clip-path-12" transform="translate(-0.48 -0.6)"><rect class="cls-2" x="0.72" y="23.04" width="298.08" height="113.76"/></clipPath><clipPath id="clip-path-13" transform="translate(-0.48 -0.6)"><polygon class="cls-1" points="298.08 136.8 596.16 136.8 596.16 23.04 298.08 23.04 298.08 136.8 298.08 136.8"/></clipPath><clipPath id="clip-path-14" transform="translate(-0.48 -0.6)"><rect class="cls-2" x="298.08" y="23.04" width="298.08" height="113.76"/></clipPath><clipPath id="clip-path-15" transform="translate(-0.48 -0.6)"><polygon class="cls-1" points="0.72 164.88 298.8 164.88 298.8 51.12 0.72 51.12 0.72 164.88 0.72 164.88"/></clipPath><clipPath id="clip-path-16" transform="translate(-0.48 -0.6)"><rect class="cls-2" x="0.72" y="51.12" width="298.08" height="113.76"/></clipPath><clipPath id="clip-path-17" transform="translate(-0.48 -0.6)"><polygon class="cls-1" points="298.08 164.88 596.16 164.88 596.16 51.12 298.08 51.12 298.08 164.88 298.08 164.88"/></clipPath><clipPath id="clip-path-18" transform="translate(-0.48 -0.6)"><rect class="cls-2" x="298.08" y="51.12" width="298.08" height="113.76"/></clipPath><clipPath id="clip-path-19" transform="translate(-0.48 -0.6)"><polygon class="cls-1" points="0.72 192.96 298.8 192.96 298.8 79.2 0.72 79.2 0.72 192.96 0.72 192.96"/></clipPath><clipPath id="clip-path-20" transform="translate(-0.48 -0.6)"><rect class="cls-2" x="0.72" y="79.2" width="298.08" height="113.76"/></clipPath><clipPath id="clip-path-21" transform="translate(-0.48 -0.6)"><polygon class="cls-1" points="298.08 192.96 596.16 192.96 596.16 79.2 298.08 79.2 298.08 192.96 298.08 192.96"/></clipPath><clipPath id="clip-path-22" transform="translate(-0.48 -0.6)"><rect class="cls-2" x="298.08" y="79.2" width="298.08" height="113.76"/></clipPath><clipPath id="clip-path-23" transform="translate(-0.48 -0.6)"><polygon class="cls-1" points="0.72 221.04 298.8 221.04 298.8 107.28 0.72 107.28 0.72 221.04 0.72 221.04"/></clipPath><clipPath id="clip-path-24" transform="translate(-0.48 -0.6)"><rect class="cls-2" x="0.72" y="107.28" width="298.08" height="113.76"/></clipPath><clipPath id="clip-path-29" transform="translate(-0.48 -0.6)"><polygon class="cls-1" points="298.08 221.04 596.16 221.04 596.16 107.28 298.08 107.28 298.08 221.04 298.08 221.04"/></clipPath><clipPath id="clip-path-30" transform="translate(-0.48 -0.6)"><rect class="cls-2" x="298.08" y="107.28" width="298.08" height="113.76"/></clipPath><clipPath id="clip-path-35" transform="translate(-0.48 -0.6)"><polygon class="cls-1" points="0.72 237.6 298.8 237.6 298.8 135.36 0.72 135.36 0.72 237.6 0.72 237.6"/></clipPath><clipPath id="clip-path-36" transform="translate(-0.48 -0.6)"><rect class="cls-2" x="0.72" y="135.36" width="298.08" height="102.24"/></clipPath><clipPath id="clip-path-37" transform="translate(-0.48 -0.6)"><polygon class="cls-1" points="298.08 237.6 596.16 237.6 596.16 135.36 298.08 135.36 298.08 237.6 298.08 237.6"/></clipPath><clipPath id="clip-path-38" transform="translate(-0.48 -0.6)"><rect class="cls-2" x="298.08" y="135.36" width="298.08" height="102.24"/></clipPath><clipPath id="clip-path-39" transform="translate(-0.48 -0.6)"><polygon class="cls-1" points="0.72 237.6 298.8 237.6 298.8 163.44 0.72 163.44 0.72 237.6 0.72 237.6"/></clipPath><clipPath id="clip-path-40" transform="translate(-0.48 -0.6)"><rect class="cls-2" x="0.72" y="163.44" width="298.08" height="74.16"/></clipPath><clipPath id="clip-path-41" transform="translate(-0.48 -0.6)"><polygon class="cls-1" points="298.08 237.6 596.16 237.6 596.16 163.44 298.08 163.44 298.08 237.6 298.08 237.6"/></clipPath><clipPath id="clip-path-42" transform="translate(-0.48 -0.6)"><rect class="cls-2" x="298.08" y="163.44" width="298.08" height="74.16"/></clipPath></defs><title>ProceduralvsOOP</title><g id="Layer_2" data-name="Layer 2"><g id="Layer_1-2" data-name="Layer 1"><polygon class="cls-4" points="0.48 28.51 297.83 28.51 297.83 67.68 0.48 67.68 0.48 28.51 0.48 28.51"/><polygon class="cls-4" points="297.83 28.51 595.18 28.51 595.18 67.68 297.83 67.68 297.83 28.51 297.83 28.51"/><polygon class="cls-4" points="0.48 95.71 297.83 95.71 297.83 123.74 0.48 123.74 0.48 95.71 0.48 95.71"/><polygon class="cls-4" points="297.83 95.71 595.18 95.71 595.18 123.74 297.83 123.74 297.83 95.71 297.83 95.71"/><polygon class="cls-4" points="0.48 151.78 297.83 151.78 297.83 179.81 0.48 179.81 0.48 151.78 0.48 151.78"/><polygon class="cls-4" points="297.83 151.78 595.18 151.78 595.18 179.81 297.83 179.81 297.83 151.78 297.83 151.78"/><polygon class="cls-4" points="0.48 207.84 297.83 207.84 297.83 235.87 0.48 235.87 0.48 207.84 0.48 207.84"/><polygon class="cls-4" points="297.83 207.84 595.18 207.84 595.18 235.87 297.83 235.87 297.83 207.84 297.83 207.84"/><line class="cls-5" x1="297.83" x2="297.83" y2="236.35"/><line class="cls-6" y1="28.51" x2="595.66" y2="28.51"/><line class="cls-5" y1="67.68" x2="595.66" y2="67.68"/><line class="cls-5" y1="95.71" x2="595.66" y2="95.71"/><line class="cls-5" y1="123.74" x2="595.66" y2="123.74"/><line class="cls-5" y1="151.78" x2="595.66" y2="151.78"/><line class="cls-5" y1="179.81" x2="595.66" y2="179.81"/><line class="cls-5" y1="207.84" x2="595.66" y2="207.84"/><line class="cls-5" x1="0.48" x2="0.48" y2="236.35"/><line class="cls-5" x1="595.18" x2="595.18" y2="236.35"/><line class="cls-5" y1="0.48" x2="595.66" y2="0.48"/><line class="cls-5" y1="235.87" x2="595.66" y2="235.87"/><g class="cls-7"><g class="cls-8"><text class="cls-9" transform="translate(74.4 19.4)">P<tspan class="cls-10" x="9.36" y="0">r</tspan><tspan class="cls-11" x="13.68" y="0">o</tspan><tspan class="cls-12" x="21.59" y="0">c</tspan><tspan class="cls-11" x="28.78" y="0">ed</tspan><tspan class="cls-13" x="44.6" y="0">u</tspan><tspan class="cls-14" x="51.81" y="0">r</tspan><tspan class="cls-13" x="56.14" y="0">a</tspan><tspan class="cls-15" x="63.35" y="0">l</tspan><tspan class="cls-16" x="66.24" y="0"> </tspan><tspan class="cls-17" x="68.41" y="0">p</tspan><tspan class="cls-10" x="76.32" y="0">r</tspan><tspan class="cls-11" x="80.64" y="0">og</tspan><tspan class="cls-14" x="96.46" y="0">r</tspan><tspan class="cls-13" x="100.78" y="0">a</tspan><tspan class="cls-18" x="108" y="0">mm</tspan><tspan class="cls-19" x="131.03" y="0">i</tspan><tspan class="cls-13" x="133.92" y="0">n</tspan><tspan class="cls-20" x="141.13" y="0">g</tspan></text></g><g class="cls-7"><g class="cls-8"><text class="cls-21" transform="translate(430.78 19.4)">OO<tspan class="cls-22" x="21.58" y="0">P</tspan></text></g></g></g><g class="cls-23"><g class="cls-24"><text class="cls-25" transform="translate(7.4 44.94)"><tspan class="cls-11">1</tspan><tspan class="cls-26" x="7.91" y="0">. </tspan><tspan class="cls-27" x="15.13" y="0">S</tspan><tspan class="cls-28" x="24.48" y="0">ep</tspan><tspan class="cls-13" x="40.3" y="0">a</tspan><tspan class="cls-10" x="47.51" y="0">r</tspan><tspan class="cls-13" x="51.84" y="0">a</tspan><tspan class="cls-29" x="59.05" y="0">t</tspan><tspan class="cls-11" x="62.66" y="0">e</tspan><tspan class="cls-16" x="70.57" y="0"> </tspan><tspan class="cls-11" x="72.74" y="0">d</tspan><tspan class="cls-13" x="80.65" y="0">a</tspan><tspan class="cls-26" x="87.86" y="0">t</tspan><tspan class="cls-13" x="91.47" y="0">a</tspan><tspan class="cls-30" x="98.68" y="0" xml:space="preserve"> f</tspan><tspan class="cls-14" x="107.29" y="0">r</tspan><tspan class="cls-11" x="111.62" y="0">o</tspan><tspan class="cls-18" x="119.53" y="0">m</tspan><tspan class="cls-16" x="131.05" y="0"> </tspan><tspan class="cls-31" x="133.22" y="0">f</tspan><tspan class="cls-13" x="137.53" y="0">un</tspan><tspan class="cls-32" x="151.95" y="0">c</tspan><tspan class="cls-26" x="159.14" y="0">t</tspan><tspan class="cls-19" x="162.75" y="0">i</tspan><tspan class="cls-11" x="165.64" y="0">o</tspan><tspan class="cls-13" x="173.55" y="0">n</tspan><tspan class="cls-12" x="180.76" y="0">s</tspan><tspan class="cls-33" x="187.96" y="0"> </tspan><tspan class="cls-29" x="190.84" y="0">t</tspan><tspan class="cls-13" x="194.45" y="0">ha</tspan><tspan class="cls-26" x="208.87" y="0">t</tspan><tspan class="cls-31" x="212.48" y="0"> </tspan><tspan class="cls-11" x="216.79" y="0">ope</tspan><tspan class="cls-10" x="240.52" y="0">r</tspan><tspan class="cls-13" x="244.84" y="0">a</tspan><tspan class="cls-29" x="252.05" y="0">t</tspan><tspan class="cls-11" x="255.66" y="0">e</tspan><tspan class="cls-16" x="263.57" y="0"> </tspan><tspan class="cls-11" x="265.74" y="0">o</tspan><tspan class="cls-13" x="273.65" y="0">n</tspan><tspan x="280.86" y="0"> </tspan></text></g></g><g class="cls-23"><g class="cls-24"><text class="cls-25" transform="translate(7.4 61.5)"><tspan class="cls-26">t</tspan><tspan class="cls-13" x="3.61" y="0">h</tspan><tspan class="cls-11" x="10.82" y="0">e</tspan><tspan x="18.73" y="0">m</tspan></text></g></g><g class="cls-34"><g class="cls-35"><text class="cls-25" transform="translate(304.75 44.94)"><tspan class="cls-11">1</tspan><tspan class="cls-26" x="7.91" y="0">. </tspan><tspan class="cls-27" x="15.13" y="0">E</tspan><tspan class="cls-36" x="24.48" y="0">n</tspan><tspan class="cls-32" x="31.7" y="0">c</tspan><tspan class="cls-36" x="38.89" y="0">a</tspan><tspan class="cls-11" x="46.1" y="0">p</tspan><tspan class="cls-32" x="54.01" y="0">s</tspan><tspan class="cls-37" x="61.21" y="0">u</tspan><tspan class="cls-19" x="68.42" y="0">l</tspan><tspan class="cls-36" x="71.31" y="0">a</tspan><tspan class="cls-26" x="78.52" y="0">t</tspan><tspan class="cls-11" x="82.13" y="0">e</tspan><tspan class="cls-16" x="90.04" y="0"> </tspan><tspan class="cls-11" x="92.21" y="0">d</tspan><tspan class="cls-37" x="100.12" y="0">a</tspan><tspan class="cls-26" x="107.33" y="0">t</tspan><tspan class="cls-36" x="110.94" y="0">a</tspan><tspan class="cls-30" x="118.15" y="0"> </tspan><tspan class="cls-37" x="122.46" y="0">an</tspan><tspan class="cls-11" x="136.88" y="0">d</tspan><tspan class="cls-26" x="144.79" y="0"> </tspan><tspan class="cls-18" x="148.4" y="0">m</tspan><tspan class="cls-11" x="159.92" y="0">e</tspan><tspan class="cls-38" x="167.83" y="0">t</tspan><tspan class="cls-36" x="171.44" y="0">h</tspan><tspan class="cls-11" x="178.65" y="0">od</tspan><tspan class="cls-32" x="194.47" y="0">s</tspan><tspan class="cls-16" x="201.66" y="0"> </tspan><tspan class="cls-19" x="203.83" y="0">i</tspan><tspan class="cls-36" x="206.72" y="0">n</tspan><tspan class="cls-26" x="213.94" y="0"> </tspan><tspan class="cls-37" x="217.54" y="0">a</tspan><tspan class="cls-26" x="224.76" y="0"> </tspan><tspan class="cls-32" x="228.37" y="0">c</tspan><tspan class="cls-19" x="235.56" y="0">l</tspan><tspan class="cls-36" x="238.45" y="0">a</tspan><tspan class="cls-32" x="245.66" y="0">s</tspan><tspan x="252.86" y="0">s</tspan></text></g></g><g class="cls-39"><g class="cls-40"><text class="cls-25" transform="translate(7.4 84.09)"><tspan class="cls-11">2</tspan><tspan class="cls-26" x="7.91" y="0">. </tspan><tspan class="cls-41" x="15.13" y="0">D</tspan><tspan class="cls-28" x="25.2" y="0">eb</tspan><tspan class="cls-13" x="41.02" y="0">u</tspan><tspan class="cls-11" x="48.23" y="0">gg</tspan><tspan class="cls-19" x="64.05" y="0">i</tspan><tspan class="cls-13" x="66.94" y="0">n</tspan><tspan class="cls-11" x="74.15" y="0">g</tspan><tspan class="cls-16" x="82.06" y="0"> </tspan><tspan class="cls-19" x="84.23" y="0">i</tspan><tspan class="cls-12" x="87.12" y="0">s</tspan><tspan class="cls-16" x="94.31" y="0"> </tspan><tspan class="cls-17" x="96.49" y="0">d</tspan><tspan class="cls-15" x="104.39" y="0">i</tspan><tspan class="cls-30" x="107.28" y="0">ff</tspan><tspan class="cls-19" x="115.9" y="0">i</tspan><tspan class="cls-12" x="118.79" y="0">c</tspan><tspan class="cls-13" x="125.98" y="0">u</tspan><tspan class="cls-19" x="133.19" y="0">l</tspan><tspan x="136.08" y="0">t</tspan></text></g></g><g class="cls-42"><g class="cls-43"><text class="cls-25" transform="translate(304.75 84.09)"><tspan class="cls-11">2</tspan><tspan class="cls-26" x="7.91" y="0">. </tspan><tspan class="cls-41" x="15.13" y="0">D</tspan><tspan class="cls-11" x="25.2" y="0">eb</tspan><tspan class="cls-37" x="41.02" y="0">u</tspan><tspan class="cls-11" x="48.23" y="0">gg</tspan><tspan class="cls-19" x="64.05" y="0">i</tspan><tspan class="cls-36" x="66.93" y="0">n</tspan><tspan class="cls-11" x="74.15" y="0">g</tspan><tspan class="cls-16" x="82.06" y="0"> </tspan><tspan class="cls-19" x="84.23" y="0">i</tspan><tspan class="cls-32" x="87.12" y="0">s</tspan><tspan class="cls-16" x="94.31" y="0"> </tspan><tspan class="cls-11" x="96.49" y="0">e</tspan><tspan class="cls-36" x="104.39" y="0">a</tspan><tspan class="cls-32" x="111.61" y="0">s</tspan><tspan class="cls-19" x="118.8" y="0">i</tspan><tspan class="cls-11" x="121.69" y="0">e</tspan><tspan x="129.6" y="0">r</tspan></text></g></g><g class="cls-44"><g class="cls-45"><text class="cls-25" transform="translate(7.4 112.13)"><tspan class="cls-11">3</tspan><tspan class="cls-26" x="7.91" y="0">. </tspan><tspan class="cls-41" x="15.13" y="0">D</tspan><tspan class="cls-19" x="25.2" y="0">i</tspan><tspan class="cls-31" x="28.09" y="0">ff</tspan><tspan class="cls-15" x="36.7" y="0">i</tspan><tspan class="cls-32" x="39.59" y="0">c</tspan><tspan class="cls-36" x="46.79" y="0">u</tspan><tspan class="cls-15" x="54" y="0">l</tspan><tspan class="cls-29" x="56.89" y="0">t</tspan><tspan class="cls-16" x="60.49" y="0"> </tspan><tspan class="cls-26" x="62.67" y="0">t</tspan><tspan class="cls-11" x="66.28" y="0">o</tspan><tspan class="cls-46" x="74.19" y="0"> </tspan><tspan class="cls-15" x="77.07" y="0">i</tspan><tspan class="cls-18" x="79.96" y="0">m</tspan><tspan class="cls-11" x="91.48" y="0">p</tspan><tspan class="cls-19" x="99.39" y="0">l</tspan><tspan class="cls-11" x="102.28" y="0">e</tspan><tspan class="cls-18" x="110.18" y="0">m</tspan><tspan class="cls-11" x="121.7" y="0">e</tspan><tspan class="cls-13" x="129.61" y="0">n</tspan><tspan class="cls-26" x="136.82" y="0">t</tspan><tspan class="cls-16" x="140.43" y="0"> </tspan><tspan class="cls-32" x="142.61" y="0">c</tspan><tspan class="cls-13" x="149.8" y="0">han</tspan><tspan class="cls-11" x="171.44" y="0">g</tspan><tspan x="179.34" y="0">e</tspan></text></g></g><g class="cls-47"><g class="cls-48"><text class="cls-25" transform="translate(304.75 112.13)"><tspan class="cls-11">3</tspan><tspan class="cls-26" x="7.91" y="0">. </tspan><tspan class="cls-27" x="15.13" y="0">E</tspan><tspan class="cls-36" x="24.48" y="0">a</tspan><tspan class="cls-32" x="31.7" y="0">s</tspan><tspan class="cls-19" x="38.89" y="0">i</tspan><tspan class="cls-11" x="41.78" y="0">e</tspan><tspan class="cls-10" x="49.69" y="0">r</tspan><tspan class="cls-46" x="54.01" y="0"> </tspan><tspan class="cls-26" x="56.9" y="0">t</tspan><tspan class="cls-11" x="60.51" y="0">o</tspan><tspan class="cls-46" x="68.42" y="0"> </tspan><tspan class="cls-49" x="71.3" y="0">m</tspan><tspan class="cls-37" x="82.82" y="0">ana</tspan><tspan class="cls-11" x="104.45" y="0">ge</tspan><tspan class="cls-26" x="120.27" y="0"> </tspan><tspan class="cls-37" x="123.88" y="0">an</tspan><tspan class="cls-11" x="138.3" y="0">d</tspan><tspan class="cls-26" x="146.21" y="0"> </tspan><tspan class="cls-19" x="149.82" y="0">i</tspan><tspan class="cls-18" x="152.71" y="0">m</tspan><tspan class="cls-11" x="164.23" y="0">p</tspan><tspan class="cls-19" x="172.14" y="0">l</tspan><tspan class="cls-11" x="175.03" y="0">e</tspan><tspan class="cls-18" x="182.94" y="0">m</tspan><tspan class="cls-11" x="194.45" y="0">e</tspan><tspan class="cls-37" x="202.36" y="0">n</tspan><tspan class="cls-26" x="209.57" y="0">t</tspan><tspan class="cls-16" x="213.18" y="0"> </tspan><tspan class="cls-32" x="215.36" y="0">c</tspan><tspan class="cls-36" x="222.55" y="0">han</tspan><tspan class="cls-11" x="244.19" y="0">g</tspan><tspan x="252.1" y="0">e</tspan></text></g></g><g class="cls-50"><g class="cls-51"><text class="cls-52" transform="translate(7.4 140.17)">4<tspan class="cls-26" x="7.91" y="0">. </tspan><tspan class="cls-53" x="15.13" y="0">F</tspan><tspan class="cls-13" x="23.76" y="0">a</tspan><tspan class="cls-12" x="30.97" y="0">s</tspan><tspan class="cls-26" x="38.16" y="0">t</tspan><tspan x="41.77" y="0">e</tspan><tspan class="cls-20" x="49.68" y="0">r</tspan></text></g></g><g class="cls-54"><g class="cls-55"><text class="cls-25" transform="translate(304.75 140.17)"><tspan class="cls-11">4</tspan><tspan class="cls-26" x="7.91" y="0">. </tspan><tspan class="cls-27" x="15.13" y="0">S</tspan><tspan class="cls-19" x="24.48" y="0">l</tspan><tspan class="cls-11" x="27.37" y="0">o</tspan><tspan class="cls-56" x="35.28" y="0">w</tspan><tspan class="cls-11" x="44.66" y="0">e</tspan><tspan x="52.56" y="0">r</tspan></text></g></g><g class="cls-57"><g class="cls-58"><text class="cls-25" transform="translate(7.4 168.2)"><tspan class="cls-11">5</tspan><tspan class="cls-26" x="7.91" y="0">. </tspan><tspan class="cls-59" x="15.13" y="0">U</tspan><tspan class="cls-12" x="24.5" y="0">s</tspan><tspan class="cls-28" x="31.7" y="0">e</tspan><tspan class="cls-33" x="39.61" y="0"> </tspan><tspan class="cls-29" x="42.49" y="0">t</tspan><tspan class="cls-11" x="46.1" y="0">o</tspan><tspan x="54.01" y="0">p</tspan></text></g></g><g class="cls-7"><g class="cls-8"><text class="cls-25" transform="translate(69.31 168.2)">-</text></g><g class="cls-7"><g class="cls-8"><text class="cls-25" transform="translate(73.64 168.2)"><tspan class="cls-11">do</tspan><tspan class="cls-59" x="15.82" y="0">w</tspan><tspan class="cls-36" x="25.19" y="0">n</tspan><tspan class="cls-33" x="32.4" y="0"> </tspan><tspan class="cls-13" x="35.29" y="0">a</tspan><tspan class="cls-11" x="42.5" y="0">pp</tspan><tspan class="cls-10" x="58.32" y="0">r</tspan><tspan class="cls-11" x="62.64" y="0">o</tspan><tspan class="cls-13" x="70.55" y="0">a</tspan><tspan class="cls-32" x="77.76" y="0">c</tspan><tspan x="84.96" y="0">h</tspan></text></g></g></g><g class="cls-60"><g class="cls-61"><text class="cls-25" transform="translate(304.75 168.2)"><tspan class="cls-11">5</tspan><tspan class="cls-26" x="7.91" y="0">. </tspan><tspan class="cls-56" x="15.13" y="0">U</tspan><tspan class="cls-32" x="24.5" y="0">s</tspan><tspan class="cls-11" x="31.7" y="0">e</tspan><tspan class="cls-46" x="39.61" y="0"> </tspan><tspan class="cls-11" x="42.49" y="0">bo</tspan><tspan class="cls-26" x="58.31" y="0">tt</tspan><tspan class="cls-11" x="65.53" y="0">o</tspan><tspan x="73.44" y="0">m</tspan></text></g></g><g class="cls-7"><g class="cls-8"><text class="cls-25" transform="translate(389.7 168.2)">-</text></g><g class="cls-7"><g class="cls-8"><text class="cls-25" transform="translate(394.03 168.2)"><tspan class="cls-36">u</tspan><tspan class="cls-62" x="7.21" y="0">p</tspan><tspan class="cls-16" x="15.12" y="0"> </tspan><tspan class="cls-36" x="17.29" y="0">a</tspan><tspan class="cls-11" x="24.5" y="0">pp</tspan><tspan class="cls-10" x="40.32" y="0">r</tspan><tspan class="cls-62" x="44.65" y="0">o</tspan><tspan class="cls-36" x="52.55" y="0">a</tspan><tspan class="cls-32" x="59.77" y="0">c</tspan><tspan x="66.96" y="0">h</tspan></text></g></g></g><g class="cls-63"><g class="cls-64"><text class="cls-25" transform="translate(7.4 196.22)"><tspan class="cls-11">6</tspan><tspan class="cls-26" x="7.91" y="0">. </tspan><tspan class="cls-65" x="15.13" y="0">O</tspan><tspan class="cls-13" x="25.92" y="0">n</tspan><tspan class="cls-19" x="33.13" y="0">l</tspan><tspan class="cls-66" x="36.02" y="0">y</tspan><tspan class="cls-29" x="42.5" y="0"> </tspan><tspan class="cls-13" x="46.11" y="0">a</tspan><tspan class="cls-31" x="53.32" y="0" xml:space="preserve"> f</tspan><tspan class="cls-13" x="61.94" y="0">un</tspan><tspan class="cls-12" x="76.36" y="0">c</tspan><tspan class="cls-26" x="83.56" y="0">t</tspan><tspan class="cls-19" x="87.17" y="0">i</tspan><tspan class="cls-11" x="90.05" y="0">o</tspan><tspan class="cls-13" x="97.96" y="0">n</tspan><tspan class="cls-33" x="105.17" y="0"> </tspan><tspan class="cls-12" x="108.06" y="0">c</tspan><tspan class="cls-13" x="115.25" y="0">a</tspan><tspan class="cls-19" x="122.47" y="0">ll</tspan><tspan class="cls-26" x="128.24" y="0"> </tspan><tspan class="cls-13" x="131.85" y="0">an</tspan><tspan class="cls-17" x="146.28" y="0">o</tspan><tspan class="cls-26" x="154.18" y="0">t</tspan><tspan class="cls-13" x="157.79" y="0">h</tspan><tspan class="cls-11" x="165.01" y="0">e</tspan><tspan x="172.91" y="0">r</tspan></text></g></g><g class="cls-67"><g class="cls-68"><text class="cls-25" transform="translate(304.75 196.22)"><tspan class="cls-11">6</tspan><tspan class="cls-26" x="7.91" y="0">. </tspan><tspan class="cls-69" x="15.13" y="0">O</tspan><tspan class="cls-11" x="25.92" y="0">b</tspan><tspan class="cls-19" x="33.83" y="0">j</tspan><tspan class="cls-11" x="36.72" y="0">e</tspan><tspan class="cls-32" x="44.63" y="0">c</tspan><tspan class="cls-26" x="51.82" y="0">t</tspan><tspan class="cls-16" x="55.43" y="0"> </tspan><tspan class="cls-32" x="57.6" y="0">c</tspan><tspan class="cls-11" x="64.8" y="0">o</tspan><tspan class="cls-18" x="72.71" y="0">mm</tspan><tspan class="cls-37" x="95.75" y="0">un</tspan><tspan class="cls-19" x="110.17" y="0">i</tspan><tspan class="cls-32" x="113.06" y="0">c</tspan><tspan class="cls-36" x="120.25" y="0">a</tspan><tspan class="cls-38" x="127.46" y="0">t</tspan><tspan class="cls-19" x="131.07" y="0">i</tspan><tspan class="cls-11" x="133.96" y="0">o</tspan><tspan class="cls-36" x="141.87" y="0">n</tspan><tspan class="cls-16" x="149.08" y="0"> </tspan><tspan class="cls-19" x="151.26" y="0">i</tspan><tspan class="cls-32" x="154.14" y="0">s</tspan><tspan class="cls-26" x="161.34" y="0" xml:space="preserve"> t</tspan><tspan class="cls-37" x="168.56" y="0">h</tspan><tspan class="cls-11" x="175.77" y="0">e</tspan><tspan class="cls-10" x="183.68" y="0">r</tspan><tspan x="188" y="0">e</tspan></text></g></g><g class="cls-70"><g class="cls-71"><text class="cls-25" transform="translate(7.4 224.26)"><tspan class="cls-11">7</tspan><tspan class="cls-26" x="7.91" y="0">. </tspan><tspan class="cls-27" x="15.13" y="0">E</tspan><tspan class="cls-66" x="24.48" y="0">x</tspan><tspan class="cls-36" x="30.97" y="0">a</tspan><tspan class="cls-72" x="38.18" y="0">m</tspan><tspan class="cls-17" x="49.7" y="0">p</tspan><tspan class="cls-15" x="57.61" y="0">l</tspan><tspan class="cls-17" x="60.5" y="0">e</tspan><tspan class="cls-12" x="68.41" y="0">s</tspan><tspan class="cls-26" x="75.6" y="0">:</tspan><tspan class="cls-16" x="79.21" y="0"> </tspan><tspan class="cls-41" x="81.38" y="0">C</tspan><tspan class="cls-29" x="91.45" y="0">, </tspan><tspan class="cls-27" x="98.67" y="0">B</tspan><tspan class="cls-13" x="108.03" y="0">a</tspan><tspan class="cls-12" x="115.24" y="0">s</tspan><tspan class="cls-19" x="122.44" y="0">i</tspan><tspan class="cls-12" x="125.33" y="0">c</tspan><tspan class="cls-26" x="132.52" y="0">,</tspan><tspan class="cls-46" x="136.13" y="0"> </tspan><tspan class="cls-53" x="139.01" y="0">F</tspan><tspan class="cls-65" x="147.64" y="0">O</tspan><tspan class="cls-41" x="158.44" y="0">R</tspan><tspan class="cls-53" x="168.51" y="0">T</tspan><tspan class="cls-59" x="177.14" y="0">R</tspan><tspan class="cls-27" x="186.51" y="0">A</tspan><tspan x="195.87" y="0">N</tspan></text></g></g><g class="cls-73"><g class="cls-74"><text class="cls-25" transform="translate(304.75 224.26)"><tspan class="cls-11">7</tspan><tspan class="cls-26" x="7.91" y="0">. </tspan><tspan class="cls-32" x="15.13" y="0">J</tspan><tspan class="cls-75" x="22.32" y="0">AV</tspan><tspan class="cls-76" x="39.61" y="0">A</tspan><tspan class="cls-26" x="48.97" y="0">,</tspan><tspan class="cls-16" x="52.58" y="0"> </tspan><tspan class="cls-41" x="54.75" y="0">C</tspan><tspan class="cls-77" x="64.82" y="0">++</tspan><tspan class="cls-26" x="80.67" y="0">,</tspan><tspan class="cls-78" x="84.27" y="0"> </tspan><tspan class="cls-27" x="87.16" y="0">P</tspan><tspan class="cls-66" x="96.52" y="0">y</tspan><tspan class="cls-26" x="103" y="0">t</tspan><tspan class="cls-37" x="106.61" y="0">h</tspan><tspan class="cls-11" x="113.82" y="0">o</tspan><tspan x="121.73" y="0">n</tspan></text></g></g></g></g></svg>