<svg xmlns="http://www.w3.org/2000/svg" viewBox="0 0 600 300"><defs><style>.cls-1,.cls-2,.cls-4,.cls-5{fill:none;}.cls-2,.cls-4,.cls-5{stroke:#000;stroke-miterlimit:10;}.cls-2{stroke-width:1px;}.cls-3,.cls-7{font-size:12px;}.cls-3{font-family:ArialMT, Arial;}.cls-4{stroke-width:0.85px;}.cls-5{stroke-width:0.89px;}.cls-6{letter-spacing:-0.11em;}.cls-7{font-family:CourierNewPSMT, Courier New;}</style></defs><title>threadstates_2</title><g id="Layer_2" data-name="Layer 2"><g id="Layer_1-2" data-name="Layer 1"><rect class="cls-1" width="600" height="300"/><ellipse class="cls-2" cx="133.5" cy="94.83" rx="59" ry="22"/><text class="cls-3" transform="translate(121 91.33)">New<tspan x="-7.01" y="14.4">Thread</tspan></text><ellipse class="cls-4" cx="247.5" cy="47.14" rx="50" ry="18.64"/><text class="cls-3" transform="translate(221 50)">Runnable</text><ellipse class="cls-4" cx="380.5" cy="47.14" rx="50" ry="18.64"/><text class="cls-3" transform="translate(359 51)">Running</text><ellipse class="cls-5" cx="313.5" cy="46.41" rx="125" ry="36.57"/><ellipse class="cls-2" cx="493.5" cy="94.83" rx="59" ry="22"/><text class="cls-3" transform="translate(472 98.33)">Blocked</text><ellipse class="cls-2" cx="313.67" cy="197.5" rx="59" ry="22"/><text class="cls-3" transform="translate(284.17 201)"><tspan class="cls-6">T</tspan><tspan x="6" y="0">erminated</tspan></text><text class="cls-3" transform="translate(21.5 121)">New</text><text class="cls-3" transform="translate(300 290)">Dead</text><circle class="cls-2" cx="34.75" cy="93.25" r="15"/><circle cx="34.75" cy="93.25" r="7.5"/><circle class="cls-2" cx="313.5" cy="259.5" r="15"/><circle cx="313.5" cy="259.5" r="7.5"/><text class="cls-7" transform="translate(108.8 50)">start()</text><text class="cls-7" transform="translate(105.39 161.5)">interrupt()</text><text class="cls-7" transform="translate(232.39 125)">interrupt()</text><text class="cls-7" transform="translate(446.39 161.5)">interrupt()</text><text class="cls-7" transform="translate(445.59 14)">suspend()<tspan x="7.2" y="14.4">sleep()</tspan><tspan x="10.8" y="28.8">wait()</tspan></text><text class="cls-7" transform="translate(370.19 105)">notify()<tspan x="0" y="14.4">resume()</tspan></text><line x1="49.25" y1="93.75" x2="73.25" y2="93.75"/><line class="cls-2" x1="49.25" y1="93.75" x2="66.19" y2="93.75"/><polygon points="73.25 93.75 63.3 97.81 65.66 93.75 63.3 89.69 73.25 93.75"/><line x1="313.67" y1="219" x2="313.67" y2="244"/><line class="cls-2" x1="313.67" y1="219" x2="313.67" y2="236.94"/><polygon points="313.67 244 309.6 234.05 313.67 236.41 317.73 234.05 313.67 244"/><line x1="133.5" y1="116.5" x2="254.5" y2="197.5"/><line class="cls-2" x1="133.5" y1="116.5" x2="248.63" y2="193.57"/><polygon points="254.5 197.5 243.97 195.34 248.19 193.28 248.49 188.59 254.5 197.5"/><line x1="493.5" y1="116.5" x2="372.5" y2="197.5"/><line class="cls-2" x1="493.5" y1="116.5" x2="378.37" y2="193.57"/><polygon points="372.5 197.5 378.51 188.59 378.81 193.28 383.03 195.34 372.5 197.5"/><text class="cls-7" transform="translate(288.8 35)">yield()</text><path class="cls-5" d="M438.5,46.5Q473.38,50,489.55,67.6"/><polygon points="493.5 72.5 485.06 67.95 489.2 67.27 490.67 63.34 493.5 72.5"/><path class="cls-5" d="M434.5,94.5c-20.1.76-35.7-4.72-48.89-13.54"/><polygon points="380.5 77.29 389.84 79.47 386.02 81.2 385.64 85.38 380.5 77.29"/><line class="cls-5" x1="313.5" y1="82.5" x2="313.5" y2="169.2"/><polygon points="313.5 175.5 309.87 166.63 313.5 168.73 317.13 166.63 313.5 175.5"/><path class="cls-5" d="M133.5,72.5q18.9-19.95,48.77-25.1"/><polygon points="188.5 46.5 180.28 51.43 181.81 47.53 179.18 44.27 188.5 46.5"/><path class="cls-5" d="M272,30.9Q311.2,9.45,350.37,28"/><polygon points="355.98 30.9 346.42 30.16 349.93 27.86 349.67 23.68 355.98 30.9"/><path class="cls-5" d="M277.67,66.18c26.79,12.28,54.75,11.55,78.31-2.79"/><polygon points="272.02 63.39 278.42 70.53 278.11 66.35 281.59 64.01 272.02 63.39"/></g></g></svg>