<svg xmlns="http://www.w3.org/2000/svg" xmlns:xlink="http://www.w3.org/1999/xlink" viewBox="0 0 598.05 318.65"><defs><style>.cls-1,.cls-2,.cls-3,.cls-5,.cls-6{fill:none;}.cls-1{clip-rule:evenodd;}.cls-3,.cls-4{fill-rule:evenodd;}.cls-4{fill:#a5a5a5;}.cls-4,.cls-5,.cls-6{opacity:0.2;}.cls-5,.cls-6{stroke:#a5a5a5;stroke-linejoin:round;}.cls-5{stroke-width:0.96px;}.cls-6{stroke-width:1.93px;}.cls-7{clip-path:url(#clip-path);}.cls-8{clip-path:url(#clip-path-2);}.cls-15,.cls-22,.cls-24,.cls-40,.cls-51,.cls-52,.cls-65,.cls-66,.cls-9{font-size:13.73px;font-family:ArialMT, Arial;}.cls-64,.cls-9{letter-spacing:0.02em;}.cls-10{letter-spacing:-0.02em;}.cls-11,.cls-40{letter-spacing:0.02em;}.cls-12{letter-spacing:0.03em;}.cls-13,.cls-66{letter-spacing:-0.03em;}.cls-14{letter-spacing:0em;}.cls-15{letter-spacing:0.02em;}.cls-16{letter-spacing:-0.03em;}.cls-17{letter-spacing:-0.02em;}.cls-18{letter-spacing:0.02em;}.cls-19,.cls-52{letter-spacing:-0.03em;}.cls-20{clip-path:url(#clip-path-5);}.cls-21{clip-path:url(#clip-path-6);}.cls-23{letter-spacing:-0.01em;}.cls-24,.cls-34{letter-spacing:-0.03em;}.cls-25{letter-spacing:-0.07em;}.cls-26{letter-spacing:-0.03em;}.cls-27,.cls-65{letter-spacing:-0.01em;}.cls-28{letter-spacing:-0.12em;}.cls-29{letter-spacing:0.01em;}.cls-30{letter-spacing:0.04em;}.cls-31{letter-spacing:0em;}.cls-32{clip-path:url(#clip-path-9);}.cls-33{clip-path:url(#clip-path-10);}.cls-35{letter-spacing:-0.01em;}.cls-36{letter-spacing:-0.04em;}.cls-37{letter-spacing:0.09em;}.cls-38{clip-path:url(#clip-path-15);}.cls-39{clip-path:url(#clip-path-16);}.cls-41{letter-spacing:0.02em;}.cls-42{clip-path:url(#clip-path-17);}.cls-43{clip-path:url(#clip-path-18);}.cls-44{letter-spacing:-0.07em;}.cls-45{clip-path:url(#clip-path-19);}.cls-46{clip-path:url(#clip-path-20);}.cls-47,.cls-51{letter-spacing:0.01em;}.cls-48{clip-path:url(#clip-path-21);}.cls-49{clip-path:url(#clip-path-22);}.cls-50{letter-spacing:-0.04em;}.cls-53{letter-spacing:0.03em;}.cls-54{clip-path:url(#clip-path-35);}.cls-55{clip-path:url(#clip-path-36);}.cls-56{clip-path:url(#clip-path-37);}.cls-57{clip-path:url(#clip-path-38);}.cls-58{letter-spacing:-0.12em;}.cls-59{clip-path:url(#clip-path-41);}.cls-60{clip-path:url(#clip-path-42);}.cls-61{clip-path:url(#clip-path-59);}.cls-62{clip-path:url(#clip-path-60);}.cls-63{letter-spacing:0.01em;}.cls-67{letter-spacing:-0.08em;}.cls-68{clip-path:url(#clip-path-69);}.cls-69{clip-path:url(#clip-path-70);}.cls-70{letter-spacing:0.01em;}.cls-71{letter-spacing:-0.04em;}.cls-72{letter-spacing:0.09em;}.cls-73{letter-spacing:-0.01em;}.cls-74{letter-spacing:-0.09em;}.cls-75{clip-path:url(#clip-path-73);}.cls-76{clip-path:url(#clip-path-74);}</style><clipPath id="clip-path" transform="translate(-0.48 -0.64)"><polygon class="cls-1" points="0 323.86 600 323.86 600 0 0 0 0 323.86 0 323.86"/></clipPath><clipPath id="clip-path-2" transform="translate(-0.48 -0.64)"><rect class="cls-2" width="600" height="323.86"/></clipPath><clipPath id="clip-path-5" transform="translate(-0.48 -0.64)"><polygon class="cls-1" points="0.72 97.59 300 97.59 300 0 0.72 0 0.72 97.59 0.72 97.59"/></clipPath><clipPath id="clip-path-6" transform="translate(-0.48 -0.64)"><rect class="cls-2" x="0.72" width="299.28" height="97.59"/></clipPath><clipPath id="clip-path-9" transform="translate(-0.48 -0.64)"><polygon class="cls-1" points="299.28 162.65 598.55 162.65 598.55 0 299.28 0 299.28 162.65 299.28 162.65"/></clipPath><clipPath id="clip-path-10" transform="translate(-0.48 -0.64)"><rect class="cls-2" x="299.28" width="299.28" height="162.65"/></clipPath><clipPath id="clip-path-15" transform="translate(-0.48 -0.64)"><polygon class="cls-1" points="0.72 137.35 300 137.35 300 23.13 0.72 23.13 0.72 137.35 0.72 137.35"/></clipPath><clipPath id="clip-path-16" transform="translate(-0.48 -0.64)"><rect class="cls-2" x="0.72" y="23.13" width="299.28" height="114.22"/></clipPath><clipPath id="clip-path-17" transform="translate(-0.48 -0.64)"><polygon class="cls-1" points="299.28 137.35 598.55 137.35 598.55 23.13 299.28 23.13 299.28 137.35 299.28 137.35"/></clipPath><clipPath id="clip-path-18" transform="translate(-0.48 -0.64)"><rect class="cls-2" x="299.28" y="23.13" width="299.28" height="114.22"/></clipPath><clipPath id="clip-path-19" transform="translate(-0.48 -0.64)"><polygon class="cls-1" points="0.72 165.54 300 165.54 300 51.33 0.72 51.33 0.72 165.54 0.72 165.54"/></clipPath><clipPath id="clip-path-20" transform="translate(-0.48 -0.64)"><rect class="cls-2" x="0.72" y="51.33" width="299.28" height="114.22"/></clipPath><clipPath id="clip-path-21" transform="translate(-0.48 -0.64)"><polygon class="cls-1" points="299.28 294.94 598.55 294.94 598.55 0 299.28 0 299.28 294.94 299.28 294.94"/></clipPath><clipPath id="clip-path-22" transform="translate(-0.48 -0.64)"><rect class="cls-2" x="299.28" width="299.28" height="294.94"/></clipPath><clipPath id="clip-path-35" transform="translate(-0.48 -0.64)"><polygon class="cls-1" points="0.72 221.21 300 221.21 300 106.99 0.72 106.99 0.72 221.21 0.72 221.21"/></clipPath><clipPath id="clip-path-36" transform="translate(-0.48 -0.64)"><rect class="cls-2" x="0.72" y="106.99" width="299.28" height="114.22"/></clipPath><clipPath id="clip-path-37" transform="translate(-0.48 -0.64)"><polygon class="cls-1" points="299.28 285.54 598.55 285.54 598.55 58.55 299.28 58.55 299.28 285.54 299.28 285.54"/></clipPath><clipPath id="clip-path-38" transform="translate(-0.48 -0.64)"><rect class="cls-2" x="299.28" y="58.55" width="299.28" height="226.99"/></clipPath><clipPath id="clip-path-41" transform="translate(-0.48 -0.64)"><polygon class="cls-1" points="0.72 323.86 300 323.86 300 97.59 0.72 97.59 0.72 323.86 0.72 323.86"/></clipPath><clipPath id="clip-path-42" transform="translate(-0.48 -0.64)"><rect class="cls-2" x="0.72" y="97.59" width="299.28" height="226.27"/></clipPath><clipPath id="clip-path-59" transform="translate(-0.48 -0.64)"><polygon class="cls-1" points="299.28 323.86 598.55 323.86 598.55 0 299.28 0 299.28 323.86 299.28 323.86"/></clipPath><clipPath id="clip-path-60" transform="translate(-0.48 -0.64)"><rect class="cls-2" x="299.28" width="299.28" height="323.86"/></clipPath><clipPath id="clip-path-69" transform="translate(-0.48 -0.64)"><polygon class="cls-1" points="0.72 323.86 300 323.86 300 185.78 0.72 185.78 0.72 323.86 0.72 323.86"/></clipPath><clipPath id="clip-path-70" transform="translate(-0.48 -0.64)"><rect class="cls-2" x="0.72" y="185.78" width="299.28" height="138.07"/></clipPath><clipPath id="clip-path-73" transform="translate(-0.48 -0.64)"><polygon class="cls-1" points="299.28 323.86 598.55 323.86 598.55 185.78 299.28 185.78 299.28 323.86 299.28 323.86"/></clipPath><clipPath id="clip-path-74" transform="translate(-0.48 -0.64)"><rect class="cls-2" x="299.28" y="185.78" width="299.28" height="138.07"/></clipPath></defs><title>threadvsprocess</title><g id="Layer_2" data-name="Layer 2"><g id="Layer_1-2" data-name="Layer 1"><polygon class="cls-4" points="0.48 28.63 299.03 28.63 299.03 67.95 0.48 67.95 0.48 28.63 0.48 28.63"/><polygon class="cls-4" points="299.03 28.63 597.57 28.63 597.57 67.95 299.03 67.95 299.03 28.63 299.03 28.63"/><polygon class="cls-4" points="0.48 96.1 299.03 96.1 299.03 151.61 0.48 151.61 0.48 96.1 0.48 96.1"/><polygon class="cls-4" points="299.03 96.1 597.57 96.1 597.57 151.61 299.03 151.61 299.03 96.1 299.03 96.1"/><polygon class="cls-4" points="0.48 190.94 299.03 190.94 299.03 278.84 0.48 278.84 0.48 190.94 0.48 190.94"/><polygon class="cls-4" points="299.03 190.94 597.57 190.94 597.57 278.84 299.03 278.84 299.03 190.94 299.03 190.94"/><line class="cls-5" x1="299.03" x2="299.03" y2="318.65"/><line class="cls-6" y1="28.63" x2="598.05" y2="28.63"/><line class="cls-5" y1="67.95" x2="598.05" y2="67.95"/><line class="cls-5" y1="96.1" x2="598.05" y2="96.1"/><line class="cls-5" y1="151.61" x2="598.05" y2="151.61"/><line class="cls-5" y1="190.94" x2="598.05" y2="190.94"/><line class="cls-5" y1="278.84" x2="598.05" y2="278.84"/><line class="cls-5" x1="0.48" x2="0.48" y2="318.65"/><line class="cls-5" x1="597.57" x2="597.57" y2="318.65"/><line class="cls-5" y1="0.48" x2="598.05" y2="0.48"/><line class="cls-5" y1="318.17" x2="598.05" y2="318.17"/><g class="cls-7"><g class="cls-8"><text class="cls-9" transform="translate(117.35 19.48)">P<tspan class="cls-10" x="9.39" y="0">r</tspan><tspan class="cls-11" x="13.74" y="0">o</tspan><tspan class="cls-12" x="21.68" y="0">c</tspan><tspan class="cls-11" x="28.9" y="0">e</tspan><tspan class="cls-12" x="36.84" y="0">s</tspan><tspan class="cls-13" x="44.07" y="0">s</tspan><tspan class="cls-11" x="50.58" y="0">e</tspan><tspan class="cls-14" x="58.52" y="0">s</tspan></text></g><g class="cls-7"><g class="cls-8"><text class="cls-15" transform="translate(423.13 19.48)">T<tspan class="cls-16" x="8.66" y="0">h</tspan><tspan class="cls-17" x="15.91" y="0">r</tspan><tspan class="cls-18" x="20.25" y="0">e</tspan><tspan class="cls-19" x="28.19" y="0">a</tspan><tspan class="cls-11" x="35.43" y="0">d</tspan><tspan class="cls-14" x="43.37" y="0">s</tspan></text></g></g></g><g class="cls-20"><g class="cls-21"><text class="cls-22" transform="translate(7.43 45.11)"><tspan class="cls-11">1</tspan><tspan class="cls-23" x="7.94" y="0">.</tspan><tspan x="11.56" y="0"> </tspan></text></g></g><g class="cls-7"><g class="cls-8"><text class="cls-24" transform="translate(21.88 45.11)">A<tspan class="cls-25" x="8.68" y="0"> </tspan><tspan class="cls-11" x="11.58" y="0">p</tspan><tspan class="cls-10" x="19.52" y="0">r</tspan><tspan class="cls-11" x="23.86" y="0">o</tspan><tspan class="cls-12" x="31.8" y="0">c</tspan><tspan class="cls-18" x="39.02" y="0">e</tspan><tspan class="cls-12" x="46.96" y="0">s</tspan><tspan class="cls-26" x="54.19" y="0">s</tspan><tspan class="cls-23" x="60.7" y="0"> </tspan><tspan class="cls-27" x="64.32" y="0">i</tspan><tspan class="cls-12" x="67.22" y="0">s</tspan><tspan class="cls-28" x="74.45" y="0"> </tspan><tspan class="cls-19" x="76.63" y="0">a</tspan><tspan class="cls-23" x="83.87" y="0"> </tspan><tspan class="cls-11" x="87.49" y="0">p</tspan><tspan class="cls-10" x="95.43" y="0">r</tspan><tspan class="cls-11" x="99.77" y="0">og</tspan><tspan class="cls-17" x="115.66" y="0">r</tspan><tspan class="cls-19" x="120" y="0">a</tspan><tspan class="cls-29" x="127.24" y="0">m</tspan><tspan class="cls-28" x="138.8" y="0"> </tspan><tspan class="cls-27" x="140.98" y="0">i</tspan><tspan class="cls-19" x="143.88" y="0">n</tspan><tspan class="cls-30" x="151.12" y="0"> </tspan><tspan class="cls-11" x="155.45" y="0">e</tspan><tspan class="cls-13" x="163.39" y="0">x</tspan><tspan class="cls-11" x="169.9" y="0">e</tspan><tspan class="cls-12" x="177.84" y="0">c</tspan><tspan class="cls-19" x="185.06" y="0">u</tspan><tspan class="cls-23" x="192.3" y="0">t</tspan><tspan class="cls-27" x="195.93" y="0">i</tspan><tspan class="cls-18" x="198.83" y="0">o</tspan><tspan class="cls-19" x="206.77" y="0">n</tspan><tspan class="cls-31" x="214.01" y="0">.</tspan></text></g></g><g class="cls-32"><g class="cls-33"><text class="cls-22" transform="translate(305.97 45.11)"><tspan class="cls-11">1</tspan><tspan class="cls-23" x="7.94" y="0">.</tspan><tspan x="11.56" y="0"> </tspan></text></g></g><g class="cls-32"><g class="cls-33"><text class="cls-22" transform="translate(320.43 45.11)"><tspan class="cls-34">A</tspan><tspan class="cls-25" x="8.68" y="0"> </tspan><tspan class="cls-23" x="11.58" y="0">t</tspan><tspan class="cls-19" x="15.2" y="0">h</tspan><tspan class="cls-17" x="22.44" y="0">r</tspan><tspan class="cls-18" x="26.78" y="0">e</tspan><tspan class="cls-19" x="34.72" y="0">a</tspan><tspan class="cls-11" x="41.96" y="0">d</tspan><tspan class="cls-23" x="49.9" y="0"> </tspan><tspan class="cls-27" x="53.53" y="0">i</tspan><tspan class="cls-12" x="56.43" y="0">s</tspan><tspan class="cls-23" x="63.65" y="0"> </tspan><tspan class="cls-19" x="67.28" y="0">an</tspan><tspan class="cls-30" x="81.76" y="0"> </tspan><tspan class="cls-11" x="86.08" y="0">e</tspan><tspan class="cls-16" x="94.02" y="0">n</tspan><tspan class="cls-35" x="101.26" y="0">t</tspan><tspan class="cls-27" x="104.88" y="0">i</tspan><tspan class="cls-23" x="107.79" y="0">t</tspan><tspan class="cls-13" x="111.41" y="0">y</tspan><tspan class="cls-35" x="117.92" y="0"> </tspan><tspan class="cls-36" x="121.54" y="0">w</tspan><tspan class="cls-27" x="130.95" y="0">i</tspan><tspan class="cls-35" x="133.85" y="0">t</tspan><tspan class="cls-16" x="137.48" y="0">h</tspan><tspan class="cls-27" x="144.72" y="0">i</tspan><tspan class="cls-19" x="147.62" y="0">n</tspan><tspan class="cls-37" x="154.86" y="0"> </tspan><tspan class="cls-19" x="159.91" y="0">a</tspan><tspan class="cls-30" x="167.15" y="0"> </tspan><tspan class="cls-18" x="171.48" y="0">p</tspan><tspan class="cls-17" x="179.42" y="0">r</tspan><tspan class="cls-18" x="183.76" y="0">o</tspan><tspan class="cls-12" x="191.7" y="0">c</tspan><tspan class="cls-11" x="198.92" y="0">e</tspan><tspan class="cls-13" x="206.86" y="0">s</tspan><tspan class="cls-12" x="213.37" y="0">s</tspan><tspan class="cls-28" x="220.6" y="0"> </tspan><tspan class="cls-35" x="222.78" y="0">t</tspan><tspan class="cls-16" x="226.4" y="0">ha</tspan><tspan class="cls-35" x="240.88" y="0">t </tspan><tspan class="cls-12" x="248.13" y="0">c</tspan><tspan class="cls-19" x="255.36" y="0">an</tspan><tspan x="269.84" y="0"> </tspan></text></g></g><g class="cls-32"><g class="cls-33"><text class="cls-22" transform="translate(305.97 61.73)"><tspan class="cls-11">be</tspan><tspan class="cls-25" x="15.88" y="0"> </tspan><tspan class="cls-12" x="18.78" y="0">sc</tspan><tspan class="cls-19" x="33.23" y="0">h</tspan><tspan class="cls-18" x="40.47" y="0">ed</tspan><tspan class="cls-19" x="56.35" y="0">u</tspan><tspan class="cls-27" x="63.59" y="0">l</tspan><tspan class="cls-18" x="66.49" y="0">ed</tspan><tspan class="cls-28" x="82.37" y="0"> </tspan><tspan class="cls-30" x="84.55" y="0">f</tspan><tspan class="cls-18" x="88.88" y="0">o</tspan><tspan class="cls-17" x="96.82" y="0">r</tspan><tspan class="cls-28" x="101.16" y="0"> </tspan><tspan class="cls-18" x="103.34" y="0">e</tspan><tspan class="cls-26" x="111.28" y="0">x</tspan><tspan class="cls-18" x="117.79" y="0">e</tspan><tspan class="cls-12" x="125.73" y="0">c</tspan><tspan class="cls-19" x="132.96" y="0">u</tspan><tspan class="cls-35" x="140.2" y="0">t</tspan><tspan class="cls-27" x="143.82" y="0">i</tspan><tspan class="cls-18" x="146.72" y="0">o</tspan><tspan class="cls-19" x="154.66" y="0">n</tspan><tspan x="161.9" y="0">.</tspan></text></g></g><g class="cls-38"><g class="cls-39"><text class="cls-40" transform="translate(7.43 84.44)">2<tspan class="cls-23" x="7.94" y="0">.</tspan><tspan class="cls-25" x="11.56" y="0"> </tspan><tspan class="cls-41" x="14.46" y="0">T</tspan><tspan class="cls-19" x="23.13" y="0">h</tspan><tspan class="cls-18" x="30.37" y="0">e</tspan><tspan class="cls-26" x="38.31" y="0">y</tspan><tspan class="cls-23" x="44.82" y="0"> </tspan><tspan class="cls-19" x="48.44" y="0">a</tspan><tspan class="cls-17" x="55.68" y="0">r</tspan><tspan class="cls-18" x="60.02" y="0">e</tspan><tspan class="cls-23" x="67.96" y="0"> </tspan><tspan class="cls-27" x="71.59" y="0">i</tspan><tspan class="cls-19" x="74.49" y="0">n</tspan><tspan x="81.73" y="0">depe</tspan><tspan class="cls-19" x="113.49" y="0">n</tspan><tspan x="120.73" y="0">de</tspan><tspan class="cls-19" x="136.61" y="0">n</tspan><tspan class="cls-23" x="143.85" y="0">t</tspan><tspan class="cls-31" x="147.48" y="0">.</tspan></text></g></g><g class="cls-42"><g class="cls-43"><text class="cls-40" transform="translate(305.97 84.44)">2<tspan class="cls-23" x="7.94" y="0">.</tspan><tspan class="cls-25" x="11.56" y="0"> </tspan><tspan class="cls-41" x="14.46" y="0">T</tspan><tspan class="cls-19" x="23.13" y="0">h</tspan><tspan class="cls-18" x="30.37" y="0">e</tspan><tspan class="cls-26" x="38.31" y="0">y</tspan><tspan class="cls-23" x="44.82" y="0"> </tspan><tspan x="48.44" y="0">e</tspan><tspan class="cls-13" x="56.38" y="0">x</tspan><tspan class="cls-27" x="62.89" y="0">i</tspan><tspan class="cls-12" x="65.79" y="0">s</tspan><tspan class="cls-35" x="73.02" y="0">t</tspan><tspan class="cls-12" x="76.64" y="0">s</tspan><tspan class="cls-44" x="83.86" y="0"> </tspan><tspan class="cls-19" x="86.76" y="0">a</tspan><tspan class="cls-12" x="94" y="0">s</tspan><tspan class="cls-25" x="101.23" y="0"> </tspan><tspan class="cls-12" x="104.12" y="0">s</tspan><tspan class="cls-19" x="111.35" y="0">u</tspan><tspan class="cls-18" x="118.59" y="0">b</tspan><tspan class="cls-12" x="126.53" y="0">s</tspan><tspan x="133.75" y="0">e</tspan><tspan class="cls-23" x="141.69" y="0">t</tspan><tspan class="cls-12" x="145.32" y="0">s</tspan><tspan class="cls-28" x="152.54" y="0"> </tspan><tspan x="154.72" y="0">o</tspan><tspan class="cls-30" x="162.66" y="0">f</tspan><tspan class="cls-28" x="166.99" y="0"> </tspan><tspan class="cls-19" x="169.17" y="0">a</tspan><tspan class="cls-30" x="176.41" y="0"> </tspan><tspan class="cls-18" x="180.73" y="0">p</tspan><tspan class="cls-17" x="188.67" y="0">r</tspan><tspan class="cls-18" x="193.01" y="0">o</tspan><tspan class="cls-12" x="200.96" y="0">c</tspan><tspan x="208.18" y="0">e</tspan><tspan class="cls-12" x="216.12" y="0">s</tspan><tspan class="cls-13" x="223.35" y="0">s</tspan><tspan class="cls-31" x="229.86" y="0">.</tspan></text></g></g><g class="cls-45"><g class="cls-46"><text class="cls-40" transform="translate(7.43 112.58)">3<tspan class="cls-23" x="7.94" y="0">. </tspan><tspan class="cls-30" x="15.19" y="0">I</tspan><tspan class="cls-35" x="19.51" y="0">t</tspan><tspan class="cls-44" x="23.14" y="0"> </tspan><tspan class="cls-12" x="26.03" y="0">c</tspan><tspan class="cls-19" x="33.26" y="0">a</tspan><tspan class="cls-17" x="40.5" y="0">rr</tspan><tspan class="cls-26" x="49.18" y="0">y</tspan><tspan class="cls-30" x="55.69" y="0"> </tspan><tspan class="cls-29" x="60.01" y="0">m</tspan><tspan x="71.58" y="0">o</tspan><tspan class="cls-10" x="79.52" y="0">r</tspan><tspan x="83.86" y="0">e</tspan><tspan class="cls-28" x="91.8" y="0"> </tspan><tspan class="cls-12" x="93.98" y="0">s</tspan><tspan class="cls-23" x="101.21" y="0">t</tspan><tspan class="cls-19" x="104.83" y="0">a</tspan><tspan class="cls-23" x="112.07" y="0">t</tspan><tspan x="115.69" y="0">e</tspan><tspan class="cls-23" x="123.63" y="0"> </tspan><tspan class="cls-27" x="127.26" y="0">i</tspan><tspan class="cls-19" x="130.16" y="0">n</tspan><tspan class="cls-30" x="137.4" y="0">f</tspan><tspan x="141.72" y="0">o</tspan><tspan class="cls-10" x="149.66" y="0">r</tspan><tspan class="cls-47" x="154" y="0">m</tspan><tspan class="cls-16" x="165.57" y="0">a</tspan><tspan class="cls-35" x="172.81" y="0">t</tspan><tspan class="cls-27" x="176.43" y="0">i</tspan><tspan class="cls-18" x="179.33" y="0">o</tspan><tspan class="cls-19" x="187.27" y="0">n</tspan><tspan class="cls-31" x="194.51" y="0">.</tspan></text></g></g><g class="cls-48"><g class="cls-49"><text class="cls-22" transform="translate(305.97 112.58)"><tspan class="cls-11">3</tspan><tspan class="cls-23" x="7.94" y="0">.</tspan><tspan x="11.56" y="0"> </tspan></text></g></g><g class="cls-7"><g class="cls-8"><text class="cls-22" transform="translate(321.15 112.58)"><tspan class="cls-50">M</tspan><tspan class="cls-19" x="10.85" y="0">u</tspan><tspan class="cls-27" x="18.09" y="0">l</tspan><tspan class="cls-23" x="20.99" y="0">t</tspan><tspan class="cls-27" x="24.62" y="0">i</tspan><tspan class="cls-11" x="27.52" y="0">p</tspan><tspan class="cls-27" x="35.46" y="0">l</tspan><tspan class="cls-18" x="38.36" y="0">e</tspan><tspan class="cls-23" x="46.3" y="0" xml:space="preserve"> t</tspan><tspan class="cls-19" x="53.54" y="0">h</tspan><tspan class="cls-10" x="60.79" y="0">r</tspan><tspan class="cls-11" x="65.13" y="0">e</tspan><tspan class="cls-16" x="73.07" y="0">a</tspan><tspan class="cls-11" x="80.31" y="0">d</tspan><tspan class="cls-12" x="88.25" y="0">s</tspan><tspan class="cls-25" x="95.47" y="0"> </tspan><tspan class="cls-36" x="98.37" y="0">w</tspan><tspan class="cls-27" x="107.78" y="0">i</tspan><tspan class="cls-35" x="110.68" y="0">t</tspan><tspan class="cls-16" x="114.3" y="0">h</tspan><tspan class="cls-27" x="121.54" y="0">i</tspan><tspan class="cls-19" x="124.44" y="0">n</tspan><tspan class="cls-37" x="131.68" y="0"> </tspan><tspan class="cls-19" x="136.74" y="0">a</tspan><tspan class="cls-23" x="143.98" y="0"> </tspan><tspan class="cls-11" x="147.6" y="0">p</tspan><tspan class="cls-10" x="155.54" y="0">r</tspan><tspan class="cls-11" x="159.88" y="0">o</tspan><tspan class="cls-12" x="167.82" y="0">c</tspan><tspan class="cls-18" x="175.05" y="0">e</tspan><tspan class="cls-12" x="182.99" y="0">ss</tspan><tspan class="cls-28" x="197.44" y="0"> </tspan><tspan class="cls-12" x="199.62" y="0">s</tspan><tspan class="cls-19" x="206.84" y="0">ha</tspan><tspan class="cls-17" x="221.32" y="0">r</tspan><tspan class="cls-18" x="225.66" y="0">e</tspan><tspan x="233.61" y="0"> </tspan></text></g></g><g class="cls-48"><g class="cls-49"><text class="cls-22" transform="translate(305.97 129.21)"><tspan class="cls-11">p</tspan><tspan class="cls-10" x="7.94" y="0">r</tspan><tspan class="cls-11" x="12.28" y="0">o</tspan><tspan class="cls-12" x="20.22" y="0">c</tspan><tspan class="cls-18" x="27.45" y="0">e</tspan><tspan class="cls-12" x="35.39" y="0">s</tspan><tspan class="cls-26" x="42.61" y="0">s</tspan><tspan class="cls-28" x="49.12" y="0"> </tspan><tspan class="cls-12" x="51.3" y="0">s</tspan><tspan class="cls-23" x="58.53" y="0">t</tspan><tspan class="cls-19" x="62.15" y="0">a</tspan><tspan class="cls-23" x="69.39" y="0">t</tspan><tspan class="cls-11" x="73.02" y="0">e</tspan><tspan class="cls-44" x="80.96" y="0"> </tspan><tspan class="cls-19" x="83.85" y="0">a</tspan><tspan class="cls-12" x="91.09" y="0">s</tspan><tspan class="cls-35" x="98.32" y="0"> </tspan><tspan class="cls-36" x="101.94" y="0">w</tspan><tspan class="cls-11" x="111.35" y="0">e</tspan><tspan class="cls-27" x="119.29" y="0">ll</tspan><tspan class="cls-23" x="125.09" y="0"> </tspan><tspan class="cls-19" x="128.72" y="0">a</tspan><tspan x="135.96" y="0">s</tspan></text></g></g><g class="cls-7"><g class="cls-8"><text class="cls-51" transform="translate(452.71 129.21)">m<tspan class="cls-18" x="11.56" y="0">e</tspan><tspan x="19.51" y="0">m</tspan><tspan class="cls-18" x="31.07" y="0">o</tspan><tspan class="cls-17" x="39.01" y="0">r</tspan><tspan class="cls-14" x="43.35" y="0">y</tspan></text></g><g class="cls-7"><g class="cls-8"><text class="cls-52" transform="translate(504.76 129.21)">an<tspan class="cls-18" x="14.48" y="0">d</tspan><tspan class="cls-31" x="22.42" y="0"> </tspan></text></g></g></g><g class="cls-48"><g class="cls-49"><text class="cls-40" transform="translate(305.97 145.11)">o<tspan class="cls-23" x="7.94" y="0">t</tspan><tspan class="cls-19" x="11.56" y="0">h</tspan><tspan class="cls-18" x="18.8" y="0">e</tspan><tspan class="cls-31" x="26.75" y="0">r</tspan></text></g></g><g class="cls-7"><g class="cls-8"><text class="cls-22" transform="translate(339.94 145.11)"><tspan class="cls-10">r</tspan><tspan class="cls-11" x="4.34" y="0">e</tspan><tspan class="cls-12" x="12.28" y="0">s</tspan><tspan class="cls-11" x="19.51" y="0">o</tspan><tspan class="cls-16" x="27.45" y="0">u</tspan><tspan class="cls-17" x="34.69" y="0">r</tspan><tspan class="cls-12" x="39.03" y="0">c</tspan><tspan class="cls-18" x="46.25" y="0">e</tspan><tspan class="cls-53" x="54.19" y="0">s</tspan><tspan x="61.42" y="0">.</tspan></text></g></g><g class="cls-54"><g class="cls-55"><text class="cls-22" transform="translate(7.43 168.09)"><tspan class="cls-11">4</tspan><tspan class="cls-23" x="7.94" y="0">.</tspan><tspan class="cls-25" x="11.56" y="0"> </tspan><tspan class="cls-41" x="14.46" y="0">T</tspan><tspan class="cls-19" x="23.13" y="0">h</tspan><tspan class="cls-18" x="30.37" y="0">e</tspan><tspan class="cls-26" x="38.31" y="0">y</tspan><tspan class="cls-23" x="44.82" y="0"> </tspan><tspan class="cls-19" x="48.44" y="0">ha</tspan><tspan class="cls-13" x="62.92" y="0">v</tspan><tspan class="cls-11" x="69.43" y="0">e</tspan><tspan class="cls-23" x="77.37" y="0"> </tspan><tspan class="cls-12" x="81" y="0">s</tspan><tspan class="cls-11" x="88.22" y="0">ep</tspan><tspan class="cls-19" x="104.1" y="0">a</tspan><tspan class="cls-17" x="111.34" y="0">r</tspan><tspan class="cls-16" x="115.68" y="0">a</tspan><tspan class="cls-35" x="122.92" y="0">t</tspan><tspan class="cls-18" x="126.55" y="0">e</tspan><tspan class="cls-25" x="134.49" y="0"> </tspan><tspan class="cls-19" x="137.38" y="0">a</tspan><tspan class="cls-18" x="144.62" y="0">dd</tspan><tspan class="cls-10" x="160.51" y="0">r</tspan><tspan class="cls-11" x="164.85" y="0">e</tspan><tspan class="cls-12" x="172.79" y="0">ss</tspan><tspan class="cls-28" x="187.24" y="0"> </tspan><tspan class="cls-12" x="189.42" y="0">s</tspan><tspan class="cls-11" x="196.64" y="0">p</tspan><tspan class="cls-16" x="204.58" y="0">a</tspan><tspan class="cls-12" x="211.82" y="0">c</tspan><tspan class="cls-11" x="219.05" y="0">e</tspan><tspan x="226.99" y="0">.</tspan></text></g></g><g class="cls-56"><g class="cls-57"><text class="cls-22" transform="translate(305.97 168.09)"><tspan class="cls-11">4</tspan><tspan class="cls-23" x="7.94" y="0">. </tspan><tspan class="cls-50" x="15.19" y="0">M</tspan><tspan class="cls-19" x="26.04" y="0">u</tspan><tspan class="cls-27" x="33.28" y="0">l</tspan><tspan class="cls-23" x="36.18" y="0">t</tspan><tspan class="cls-27" x="39.8" y="0">i</tspan><tspan class="cls-11" x="42.7" y="0">p</tspan><tspan class="cls-27" x="50.64" y="0">l</tspan><tspan class="cls-18" x="53.54" y="0">e</tspan><tspan class="cls-35" x="61.49" y="0" xml:space="preserve"> t</tspan><tspan class="cls-19" x="68.73" y="0">h</tspan><tspan class="cls-10" x="75.97" y="0">r</tspan><tspan class="cls-11" x="80.31" y="0">e</tspan><tspan class="cls-19" x="88.25" y="0">a</tspan><tspan class="cls-18" x="95.5" y="0">d</tspan><tspan class="cls-12" x="103.44" y="0">s</tspan><tspan class="cls-25" x="110.66" y="0"> </tspan><tspan class="cls-36" x="113.56" y="0">w</tspan><tspan class="cls-27" x="122.97" y="0">i</tspan><tspan class="cls-35" x="125.87" y="0">t</tspan><tspan class="cls-19" x="129.49" y="0">h</tspan><tspan class="cls-27" x="136.73" y="0">i</tspan><tspan class="cls-16" x="139.63" y="0">n</tspan><tspan class="cls-37" x="146.87" y="0"> </tspan><tspan class="cls-19" x="151.92" y="0">a</tspan><tspan class="cls-23" x="159.17" y="0"> </tspan><tspan class="cls-11" x="162.79" y="0">p</tspan><tspan class="cls-10" x="170.73" y="0">r</tspan><tspan class="cls-11" x="175.07" y="0">o</tspan><tspan class="cls-12" x="183.01" y="0">c</tspan><tspan class="cls-18" x="190.24" y="0">e</tspan><tspan class="cls-12" x="198.18" y="0">ss</tspan><tspan class="cls-58" x="212.63" y="0"> </tspan><tspan class="cls-12" x="214.81" y="0">s</tspan><tspan class="cls-16" x="222.03" y="0">ha</tspan><tspan class="cls-17" x="236.51" y="0">r</tspan><tspan class="cls-18" x="240.85" y="0">e</tspan><tspan class="cls-28" x="248.79" y="0"> </tspan><tspan class="cls-35" x="250.98" y="0">t</tspan><tspan class="cls-16" x="254.6" y="0">h</tspan><tspan class="cls-11" x="261.84" y="0">e</tspan><tspan x="269.78" y="0"> </tspan></text></g></g><g class="cls-56"><g class="cls-57"><text class="cls-22" transform="translate(305.97 184.72)"><tspan class="cls-12">s</tspan><tspan class="cls-19" x="7.22" y="0">a</tspan><tspan class="cls-29" x="14.46" y="0">m</tspan><tspan class="cls-11" x="26.03" y="0">e</tspan><tspan class="cls-25" x="33.97" y="0"> </tspan><tspan class="cls-16" x="36.87" y="0">a</tspan><tspan class="cls-11" x="44.11" y="0">dd</tspan><tspan class="cls-10" x="59.99" y="0">r</tspan><tspan class="cls-11" x="64.33" y="0">e</tspan><tspan class="cls-12" x="72.27" y="0">ss</tspan><tspan class="cls-28" x="86.72" y="0"> </tspan><tspan class="cls-12" x="88.9" y="0">s</tspan><tspan class="cls-18" x="96.13" y="0">p</tspan><tspan class="cls-19" x="104.07" y="0">a</tspan><tspan class="cls-12" x="111.31" y="0">c</tspan><tspan class="cls-11" x="118.53" y="0">e</tspan><tspan x="126.47" y="0">.</tspan></text></g></g><g class="cls-59"><g class="cls-60"><text class="cls-22" transform="translate(7.43 207.42)"><tspan class="cls-11">5</tspan><tspan class="cls-23" x="7.94" y="0">.</tspan><tspan x="11.56" y="0"> </tspan></text></g></g><g class="cls-7"><g class="cls-8"><text class="cls-15" transform="translate(21.88 207.42)">T<tspan class="cls-16" x="8.66" y="0">h</tspan><tspan class="cls-11" x="15.91" y="0">e</tspan><tspan class="cls-13" x="23.85" y="0">y</tspan><tspan class="cls-35" x="30.36" y="0"> </tspan><tspan class="cls-27" x="33.98" y="0">i</tspan><tspan class="cls-16" x="36.88" y="0">n</tspan><tspan class="cls-35" x="44.12" y="0">t</tspan><tspan class="cls-18" x="47.74" y="0">e</tspan><tspan class="cls-17" x="55.69" y="0">r</tspan><tspan class="cls-19" x="60.03" y="0">a</tspan><tspan class="cls-12" x="67.27" y="0">c</tspan><tspan class="cls-23" x="74.49" y="0">t </tspan><tspan class="cls-11" x="81.74" y="0">o</tspan><tspan class="cls-19" x="89.68" y="0">n</tspan><tspan class="cls-27" x="96.92" y="0">l</tspan><tspan class="cls-13" x="99.82" y="0">y</tspan><tspan class="cls-23" x="106.33" y="0" xml:space="preserve"> t</tspan><tspan class="cls-19" x="113.58" y="0">h</tspan><tspan class="cls-10" x="120.82" y="0">r</tspan><tspan class="cls-11" x="125.16" y="0">o</tspan><tspan class="cls-16" x="133.1" y="0">u</tspan><tspan class="cls-11" x="140.34" y="0">g</tspan><tspan class="cls-19" x="148.28" y="0">h</tspan><tspan class="cls-23" x="155.52" y="0"> </tspan><tspan class="cls-12" x="159.14" y="0">s</tspan><tspan class="cls-26" x="166.37" y="0">y</tspan><tspan class="cls-12" x="172.88" y="0">s</tspan><tspan class="cls-23" x="180.1" y="0">t</tspan><tspan class="cls-18" x="183.73" y="0">e</tspan><tspan class="cls-31" x="191.67" y="0">m</tspan></text></g><g class="cls-7"><g class="cls-8"><text class="cls-22" transform="translate(225.02 207.42)">-</text></g><g class="cls-7"><g class="cls-8"><text class="cls-22" transform="translate(229.35 207.42)"><tspan class="cls-11">p</tspan><tspan class="cls-10" x="7.94" y="0">r</tspan><tspan class="cls-11" x="12.28" y="0">o</tspan><tspan class="cls-13" x="20.22" y="0">v</tspan><tspan class="cls-27" x="26.73" y="0">i</tspan><tspan class="cls-11" x="29.63" y="0">de</tspan><tspan class="cls-19" x="45.51" y="0">d</tspan><tspan x="52.75" y="0"> </tspan></text></g></g></g></g><g class="cls-59"><g class="cls-60"><text class="cls-22" transform="translate(7.43 224.05)"><tspan class="cls-27">i</tspan><tspan class="cls-19" x="2.9" y="0">n</tspan><tspan class="cls-23" x="10.14" y="0">t</tspan><tspan class="cls-11" x="13.76" y="0">e</tspan><tspan x="21.71" y="0">r</tspan></text></g></g><g class="cls-7"><g class="cls-8"><text class="cls-22" transform="translate(33.45 224.05)">-</text></g><g class="cls-7"><g class="cls-8"><text class="cls-22" transform="translate(37.79 224.05)"><tspan class="cls-11">p</tspan><tspan class="cls-10" x="7.94" y="0">r</tspan><tspan class="cls-11" x="12.28" y="0">o</tspan><tspan class="cls-12" x="20.22" y="0">c</tspan><tspan class="cls-18" x="27.45" y="0">e</tspan><tspan class="cls-12" x="35.39" y="0">s</tspan><tspan class="cls-26" x="42.61" y="0">s</tspan><tspan x="49.12" y="0"> </tspan></text></g><g class="cls-7"><g class="cls-8"><text class="cls-22" transform="translate(90.56 224.05)"><tspan class="cls-12">c</tspan><tspan class="cls-19" x="7.22" y="0">o</tspan><tspan class="cls-29" x="14.46" y="0">m</tspan><tspan class="cls-50" x="26.03" y="0">m</tspan><tspan class="cls-19" x="36.88" y="0">un</tspan><tspan class="cls-27" x="51.36" y="0">i</tspan><tspan class="cls-12" x="54.26" y="0">c</tspan><tspan class="cls-19" x="61.49" y="0">a</tspan><tspan class="cls-23" x="68.73" y="0">t</tspan><tspan class="cls-27" x="72.35" y="0">i</tspan><tspan class="cls-11" x="75.25" y="0">o</tspan><tspan x="83.19" y="0">n</tspan></text></g><g class="cls-7"><g class="cls-8"><text class="cls-51" transform="translate(183.09 224.05)">m<tspan class="cls-18" x="11.56" y="0">e</tspan><tspan class="cls-12" x="19.51" y="0">c</tspan><tspan class="cls-19" x="26.73" y="0">han</tspan><tspan class="cls-27" x="48.45" y="0">i</tspan><tspan class="cls-12" x="51.35" y="0">s</tspan><tspan class="cls-29" x="58.58" y="0">m</tspan><tspan class="cls-12" x="70.14" y="0">s</tspan><tspan class="cls-31" x="77.37" y="0">.</tspan></text></g></g></g></g></g><g class="cls-61"><g class="cls-62"><text class="cls-22" transform="translate(305.97 207.42)"><tspan class="cls-11">5</tspan><tspan class="cls-23" x="7.94" y="0">.</tspan><tspan class="cls-25" x="11.56" y="0"> </tspan><tspan class="cls-41" x="14.46" y="0">T</tspan><tspan class="cls-19" x="23.13" y="0">h</tspan><tspan class="cls-18" x="30.37" y="0">e</tspan><tspan class="cls-27" x="38.31" y="0">i</tspan><tspan class="cls-17" x="41.21" y="0">r</tspan><tspan class="cls-23" x="45.55" y="0"> </tspan><tspan class="cls-27" x="49.17" y="0">i</tspan><tspan class="cls-19" x="52.07" y="0">n</tspan><tspan class="cls-23" x="59.31" y="0">t</tspan><tspan class="cls-11" x="62.94" y="0">e</tspan><tspan class="cls-10" x="70.88" y="0">r</tspan><tspan class="cls-19" x="75.22" y="0">a</tspan><tspan class="cls-12" x="82.46" y="0">c</tspan><tspan class="cls-35" x="89.68" y="0">t</tspan><tspan class="cls-27" x="93.3" y="0">i</tspan><tspan class="cls-18" x="96.21" y="0">o</tspan><tspan class="cls-19" x="104.15" y="0">n</tspan><tspan class="cls-23" x="111.39" y="0"> </tspan><tspan class="cls-11" x="115.01" y="0">depe</tspan><tspan class="cls-16" x="146.77" y="0">n</tspan><tspan class="cls-11" x="154.01" y="0">d</tspan><tspan class="cls-13" x="161.96" y="0">s</tspan><tspan class="cls-28" x="168.47" y="0"> </tspan><tspan class="cls-11" x="170.65" y="0">o</tspan><tspan class="cls-19" x="178.59" y="0">n</tspan><tspan class="cls-44" x="185.83" y="0"> </tspan><tspan class="cls-35" x="188.72" y="0">t</tspan><tspan class="cls-19" x="192.35" y="0">h</tspan><tspan class="cls-18" x="199.59" y="0">e</tspan><tspan class="cls-35" x="207.53" y="0"> </tspan><tspan class="cls-27" x="211.15" y="0">l</tspan><tspan class="cls-16" x="214.05" y="0">an</tspan><tspan class="cls-11" x="228.53" y="0">g</tspan><tspan class="cls-19" x="236.47" y="0">ua</tspan><tspan class="cls-11" x="250.96" y="0">ge</tspan><tspan class="cls-35" x="266.84" y="0"> </tspan><tspan class="cls-27" x="270.46" y="0">i</tspan><tspan class="cls-19" x="273.36" y="0">n</tspan><tspan x="280.6" y="0"> </tspan></text></g></g><g class="cls-61"><g class="cls-62"><text class="cls-22" transform="translate(305.97 224.05)"><tspan class="cls-36">w</tspan><tspan class="cls-19" x="9.41" y="0">h</tspan><tspan class="cls-27" x="16.65" y="0">i</tspan><tspan class="cls-12" x="19.55" y="0">c</tspan><tspan class="cls-19" x="26.78" y="0">h</tspan><tspan class="cls-30" x="34.02" y="0"> </tspan><tspan class="cls-23" x="38.34" y="0">t</tspan><tspan class="cls-19" x="41.96" y="0">h</tspan><tspan class="cls-11" x="49.21" y="0">e</tspan><tspan class="cls-23" x="57.15" y="0" xml:space="preserve"> t</tspan><tspan class="cls-19" x="64.39" y="0">h</tspan><tspan class="cls-17" x="71.63" y="0">r</tspan><tspan class="cls-18" x="75.97" y="0">e</tspan><tspan class="cls-19" x="83.92" y="0">a</tspan><tspan class="cls-11" x="91.16" y="0">d</tspan><tspan class="cls-23" x="99.1" y="0"> </tspan><tspan class="cls-27" x="102.72" y="0">i</tspan><tspan class="cls-12" x="105.62" y="0">s</tspan><tspan class="cls-25" x="112.84" y="0"> </tspan><tspan class="cls-27" x="115.74" y="0">i</tspan><tspan class="cls-29" x="118.64" y="0">m</tspan><tspan class="cls-11" x="130.21" y="0">p</tspan><tspan class="cls-27" x="138.15" y="0">l</tspan><tspan class="cls-18" x="141.05" y="0">e</tspan><tspan class="cls-47" x="148.99" y="0">m</tspan><tspan class="cls-11" x="160.55" y="0">e</tspan><tspan class="cls-16" x="168.49" y="0">n</tspan><tspan class="cls-35" x="175.73" y="0">t</tspan><tspan class="cls-18" x="179.36" y="0">ed</tspan><tspan class="cls-23" x="195.24" y="0">.</tspan><tspan class="cls-28" x="198.86" y="0"> </tspan><tspan class="cls-63" x="201.04" y="0">OO</tspan><tspan class="cls-64" x="222.71" y="0">P</tspan><tspan x="232.11" y="0"> </tspan></text></g></g><g class="cls-61"><g class="cls-62"><text class="cls-65" transform="translate(305.97 239.95)">l<tspan class="cls-19" x="2.9" y="0">an</tspan><tspan class="cls-18" x="17.38" y="0">g</tspan><tspan class="cls-19" x="25.32" y="0">ua</tspan><tspan class="cls-18" x="39.8" y="0">ge</tspan><tspan class="cls-12" x="55.68" y="0">s</tspan><tspan class="cls-25" x="62.91" y="0"> </tspan><tspan x="65.8" y="0">li</tspan><tspan class="cls-13" x="71.61" y="0">k</tspan><tspan class="cls-11" x="78.12" y="0">e</tspan><tspan class="cls-23" x="86.06" y="0"> </tspan><tspan class="cls-12" x="89.68" y="0">J</tspan><tspan class="cls-19" x="96.91" y="0">a</tspan><tspan class="cls-13" x="104.15" y="0">v</tspan><tspan class="cls-19" x="110.66" y="0">a</tspan><tspan class="cls-30" x="117.9" y="0"> </tspan><tspan class="cls-11" x="122.22" y="0">p</tspan><tspan class="cls-10" x="130.16" y="0">r</tspan><tspan class="cls-11" x="134.5" y="0">o</tspan><tspan class="cls-13" x="142.44" y="0">v</tspan><tspan x="148.95" y="0">i</tspan><tspan class="cls-11" x="151.85" y="0">de</tspan><tspan class="cls-28" x="167.74" y="0"> </tspan><tspan class="cls-47" x="169.92" y="0">m</tspan><tspan class="cls-19" x="181.48" y="0">an</tspan><tspan class="cls-26" x="195.96" y="0">y</tspan><tspan class="cls-23" x="202.47" y="0"> </tspan><tspan class="cls-30" x="206.1" y="0">f</tspan><tspan class="cls-11" x="210.42" y="0">e</tspan><tspan class="cls-19" x="218.36" y="0">a</tspan><tspan class="cls-23" x="225.6" y="0">t</tspan><tspan class="cls-19" x="229.23" y="0">u</tspan><tspan class="cls-10" x="236.47" y="0">r</tspan><tspan class="cls-11" x="240.81" y="0">ed</tspan><tspan class="cls-31" x="256.69" y="0"> </tspan></text></g></g><g class="cls-61"><g class="cls-62"><text class="cls-22" transform="translate(305.97 255.86)"><tspan class="cls-47">m</tspan><tspan class="cls-18" x="11.56" y="0">e</tspan><tspan class="cls-23" x="19.51" y="0">t</tspan><tspan class="cls-19" x="23.13" y="0">h</tspan><tspan class="cls-11" x="30.37" y="0">od</tspan><tspan class="cls-12" x="46.25" y="0">s</tspan><tspan class="cls-28" x="53.48" y="0"> </tspan><tspan class="cls-35" x="55.66" y="0">t</tspan><tspan class="cls-18" x="59.28" y="0">o</tspan><tspan class="cls-25" x="67.22" y="0"> </tspan><tspan class="cls-27" x="70.12" y="0">i</tspan><tspan class="cls-19" x="73.02" y="0">n</tspan><tspan class="cls-23" x="80.26" y="0">t</tspan><tspan class="cls-11" x="83.88" y="0">e</tspan><tspan class="cls-10" x="91.82" y="0">r</tspan><tspan class="cls-19" x="96.16" y="0">a</tspan><tspan class="cls-12" x="103.4" y="0">c</tspan><tspan class="cls-23" x="110.63" y="0">t </tspan><tspan class="cls-19" x="117.88" y="0">a</tspan><tspan class="cls-29" x="125.12" y="0">m</tspan><tspan class="cls-11" x="136.68" y="0">o</tspan><tspan class="cls-16" x="144.62" y="0">n</tspan><tspan class="cls-11" x="151.86" y="0">g</tspan><tspan class="cls-25" x="159.8" y="0"> </tspan><tspan class="cls-18" x="162.7" y="0">d</tspan><tspan class="cls-27" x="170.64" y="0">i</tspan><tspan class="cls-30" x="173.54" y="0">ff</tspan><tspan class="cls-11" x="182.19" y="0">e</tspan><tspan class="cls-10" x="190.13" y="0">r</tspan><tspan class="cls-11" x="194.47" y="0">e</tspan><tspan class="cls-19" x="202.41" y="0">n</tspan><tspan class="cls-23" x="209.65" y="0">t</tspan><tspan class="cls-28" x="213.28" y="0"> </tspan><tspan class="cls-23" x="215.46" y="0">t</tspan><tspan class="cls-19" x="219.08" y="0">h</tspan><tspan class="cls-17" x="226.32" y="0">r</tspan><tspan class="cls-18" x="230.66" y="0">e</tspan><tspan class="cls-19" x="238.6" y="0">a</tspan><tspan class="cls-11" x="245.84" y="0">d</tspan><tspan class="cls-12" x="253.78" y="0">s</tspan><tspan x="261.01" y="0"> </tspan></text></g></g><g class="cls-61"><g class="cls-62"><text class="cls-66" transform="translate(305.97 272.49)">v<tspan class="cls-11" x="6.51" y="0">e</tspan><tspan class="cls-10" x="14.45" y="0">r</tspan><tspan class="cls-26" x="18.79" y="0">y</tspan><tspan class="cls-23" x="25.3" y="0"> </tspan><tspan class="cls-11" x="28.93" y="0">e</tspan><tspan class="cls-16" x="36.87" y="0">a</tspan><tspan class="cls-53" x="44.11" y="0">s</tspan><tspan class="cls-27" x="51.33" y="0">il</tspan><tspan class="cls-67" x="57.13" y="0">y</tspan><tspan class="cls-31" x="62.93" y="0">.</tspan></text></g></g><g class="cls-68"><g class="cls-69"><text class="cls-22" transform="translate(7.43 295.32)"><tspan class="cls-11">6</tspan><tspan class="cls-23" x="7.94" y="0">. </tspan><tspan class="cls-70" x="15.19" y="0">C</tspan><tspan class="cls-11" x="25.3" y="0">o</tspan><tspan class="cls-19" x="33.24" y="0">n</tspan><tspan class="cls-23" x="40.48" y="0">t</tspan><tspan class="cls-11" x="44.1" y="0">e</tspan><tspan class="cls-13" x="52.04" y="0">x</tspan><tspan class="cls-23" x="58.56" y="0">t</tspan><tspan class="cls-25" x="62.18" y="0"> </tspan><tspan class="cls-12" x="65.08" y="0">s</tspan><tspan class="cls-36" x="72.3" y="0">w</tspan><tspan class="cls-27" x="81.71" y="0">i</tspan><tspan class="cls-35" x="84.61" y="0">t</tspan><tspan class="cls-12" x="88.23" y="0">c</tspan><tspan class="cls-19" x="95.46" y="0">h</tspan><tspan class="cls-27" x="102.7" y="0">i</tspan><tspan class="cls-16" x="105.6" y="0">n</tspan><tspan class="cls-11" x="112.84" y="0">g</tspan><tspan class="cls-23" x="120.78" y="0"> </tspan><tspan class="cls-71" x="124.41" y="0">w</tspan><tspan class="cls-27" x="133.82" y="0">i</tspan><tspan class="cls-23" x="136.72" y="0">t</tspan><tspan class="cls-19" x="140.34" y="0">h</tspan><tspan class="cls-27" x="147.58" y="0">i</tspan><tspan class="cls-19" x="150.48" y="0">n</tspan><tspan class="cls-72" x="157.72" y="0"> </tspan><tspan class="cls-11" x="162.77" y="0">d</tspan><tspan class="cls-27" x="170.71" y="0">i</tspan><tspan class="cls-30" x="173.61" y="0">ff</tspan><tspan class="cls-19" x="182.26" y="0">e</tspan><tspan class="cls-10" x="189.5" y="0">r</tspan><tspan class="cls-11" x="193.84" y="0">e</tspan><tspan class="cls-19" x="201.78" y="0">n</tspan><tspan class="cls-23" x="209.02" y="0">t</tspan><tspan class="cls-28" x="212.65" y="0"> </tspan><tspan class="cls-11" x="214.83" y="0">p</tspan><tspan class="cls-10" x="222.77" y="0">r</tspan><tspan class="cls-11" x="227.11" y="0">o</tspan><tspan class="cls-12" x="235.05" y="0">c</tspan><tspan class="cls-18" x="242.28" y="0">e</tspan><tspan class="cls-26" x="250.22" y="0">s</tspan><tspan class="cls-12" x="256.73" y="0">s</tspan><tspan class="cls-19" x="263.95" y="0">e</tspan><tspan class="cls-13" x="271.19" y="0">s</tspan><tspan x="277.7" y="0"> </tspan></text></g></g><g class="cls-68"><g class="cls-69"><text class="cls-22" transform="translate(7.43 311.95)"><tspan class="cls-27">i</tspan><tspan class="cls-12" x="2.9" y="0">s</tspan><tspan class="cls-23" x="10.13" y="0" xml:space="preserve"> t</tspan><tspan class="cls-13" x="17.37" y="0">y</tspan><tspan class="cls-11" x="23.88" y="0">p</tspan><tspan class="cls-27" x="31.82" y="0">i</tspan><tspan class="cls-12" x="34.72" y="0">c</tspan><tspan class="cls-19" x="41.95" y="0">a</tspan><tspan class="cls-27" x="49.19" y="0">ll</tspan><tspan class="cls-13" x="54.99" y="0">y</tspan><tspan class="cls-23" x="61.5" y="0"> </tspan><tspan class="cls-26" x="65.12" y="0">v</tspan><tspan class="cls-18" x="71.63" y="0">e</tspan><tspan class="cls-17" x="79.58" y="0">r</tspan><tspan class="cls-13" x="83.92" y="0">y</tspan><tspan class="cls-23" x="90.43" y="0"> </tspan><tspan class="cls-12" x="94.05" y="0">s</tspan><tspan class="cls-73" x="101.27" y="0">l</tspan><tspan class="cls-18" x="104.17" y="0">o</tspan><tspan class="cls-74" x="112.12" y="0">w</tspan><tspan x="120.8" y="0">.</tspan></text></g></g><g class="cls-75"><g class="cls-76"><text class="cls-40" transform="translate(305.97 295.32)">6<tspan class="cls-23" x="7.94" y="0">. </tspan><tspan class="cls-70" x="15.19" y="0">C</tspan><tspan x="25.3" y="0">o</tspan><tspan class="cls-19" x="33.24" y="0">n</tspan><tspan class="cls-23" x="40.48" y="0">t</tspan><tspan x="44.1" y="0">e</tspan><tspan class="cls-13" x="52.04" y="0">x</tspan><tspan class="cls-23" x="58.56" y="0">t</tspan><tspan class="cls-25" x="62.18" y="0"> </tspan><tspan class="cls-12" x="65.08" y="0">s</tspan><tspan class="cls-36" x="72.3" y="0">w</tspan><tspan class="cls-27" x="81.71" y="0">i</tspan><tspan class="cls-35" x="84.61" y="0">t</tspan><tspan class="cls-12" x="88.23" y="0">c</tspan><tspan class="cls-19" x="95.46" y="0">h</tspan><tspan class="cls-27" x="102.7" y="0">i</tspan><tspan class="cls-16" x="105.6" y="0">n</tspan><tspan x="112.84" y="0">g</tspan><tspan class="cls-23" x="120.78" y="0"> </tspan><tspan class="cls-71" x="124.41" y="0">w</tspan><tspan class="cls-27" x="133.82" y="0">i</tspan><tspan class="cls-23" x="136.72" y="0">t</tspan><tspan class="cls-19" x="140.34" y="0">h</tspan><tspan class="cls-27" x="147.58" y="0">i</tspan><tspan class="cls-19" x="150.48" y="0">n</tspan><tspan class="cls-72" x="157.72" y="0"> </tspan><tspan x="162.77" y="0">d</tspan><tspan class="cls-27" x="170.71" y="0">i</tspan><tspan class="cls-30" x="173.61" y="0">ff</tspan><tspan class="cls-19" x="182.26" y="0">e</tspan><tspan class="cls-10" x="189.5" y="0">r</tspan><tspan x="193.84" y="0">e</tspan><tspan class="cls-19" x="201.78" y="0">n</tspan><tspan class="cls-23" x="209.02" y="0">t</tspan><tspan class="cls-28" x="212.65" y="0"> </tspan><tspan class="cls-23" x="214.83" y="0">t</tspan><tspan class="cls-19" x="218.45" y="0">h</tspan><tspan class="cls-17" x="225.69" y="0">r</tspan><tspan class="cls-18" x="230.03" y="0">e</tspan><tspan class="cls-19" x="237.98" y="0">a</tspan><tspan x="245.22" y="0">d</tspan><tspan class="cls-12" x="253.16" y="0">s</tspan><tspan class="cls-44" x="260.38" y="0"> </tspan><tspan class="cls-27" x="263.28" y="0">i</tspan><tspan class="cls-12" x="266.18" y="0">s</tspan><tspan class="cls-31" x="273.4" y="0"> </tspan></text></g></g><g class="cls-75"><g class="cls-76"><text class="cls-66" transform="translate(305.97 311.95)">v<tspan class="cls-11" x="6.51" y="0">e</tspan><tspan class="cls-10" x="14.45" y="0">r</tspan><tspan class="cls-26" x="18.79" y="0">y</tspan><tspan class="cls-23" x="25.3" y="0"> </tspan><tspan class="cls-30" x="28.93" y="0">f</tspan><tspan class="cls-19" x="33.25" y="0">a</tspan><tspan class="cls-12" x="40.49" y="0">s</tspan><tspan class="cls-23" x="47.71" y="0">t</tspan><tspan class="cls-31" x="51.34" y="0">.</tspan></text></g></g></g></g></svg>